<svg width="499" height="207" viewBox="0 0 499 207" fill="none" xmlns="http://www.w3.org/2000/svg">
<g clip-path="url(#clip0_1428_10299)">
<path d="M23.5996 1.1001H1.59961V94.2001H23.5996V1.1001Z" fill="#84D4F5"/>
<path d="M394.4 1.1001H372.4V94.2001H394.4V1.1001Z" fill="#84D4F5"/>
<path d="M123.7 200.8V205.6H81.4004V166.5H87.1004V200.8H123.7Z" fill="#05172F"/>
<path d="M183.4 200.8V205.6H141.2V128.3H146.8V200.8H183.4Z" fill="#05172F"/>
<path d="M342.4 133.1H315.3V205.6H309.6V133.1H282.3V128.3H342.4V133.1Z" fill="#05172F"/>
<path d="M365.5 128.3H359.9V166.4H365.5V128.3Z" fill="#05172F"/>
<path d="M498.4 200.9L498.3 205.6H452V128.3H498.3V133H457.6V164.2H491.5V168.7H457.6V200.9H498.4Z" fill="#05172F"/>
<path d="M115.9 70.1C116.4 70.1 116.9 70.2 117.5 70.4C118 70.6 118.5 70.9 119 71.4L127.7 80.4C123.9 85.3 119.1 89 113.4 91.5C107.7 94 100.9 95.2 93.1 95.2C85.9 95.2 79.5 94 73.8 91.6C68.1 89.2 63.3 85.9 59.3 81.6C55.3 77.4 52.3 72.3 50.2 66.5C48.1 60.7 47 54.4 47 47.5C47 40.6 48.1 34.2 50.4 28.4C52.7 22.6 55.9 17.6 60.1 13.3C64.2 9.1 69.2 5.8 75 3.5C80.8 1.2 87.2 0 94.1 0C97.6 0 101 0.3 104.1 0.9C107.2 1.5 110.2 2.4 112.9 3.5C115.6 4.6 118.1 5.9 120.4 7.4C122.7 8.9 124.7 10.6 126.5 12.4L119.1 22.2C118.6 22.8 118.1 23.3 117.4 23.8C116.8 24.3 115.8 24.5 114.7 24.5C113.9 24.5 113.2 24.3 112.5 24C111.8 23.7 111.1 23.2 110.3 22.8C109.5 22.3 108.7 21.8 107.7 21.2C106.8 20.6 105.7 20.1 104.4 19.6C103.1 19.1 101.6 18.7 99.9 18.4C98.2 18.1 96.2 17.9 93.9 17.9C90.3 17.9 87 18.6 84 19.9C81 21.2 78.4 23.1 76.2 25.7C74 28.2 72.3 31.3 71.1 35C69.9 38.7 69.3 42.9 69.3 47.6C69.3 52.4 70 56.6 71.3 60.3C72.6 64 74.4 67.1 76.7 69.7C79 72.2 81.6 74.2 84.6 75.5C87.6 76.8 90.9 77.5 94.3 77.5C96.3 77.5 98.1 77.4 99.7 77.2C101.3 77 102.9 76.7 104.3 76.2C105.7 75.8 107.1 75.2 108.3 74.4C109.6 73.7 110.8 72.7 112.1 71.6C112.6 71.2 113.2 70.8 113.8 70.5C114.6 70.2 115.3 70.1 115.9 70.1Z" fill="#84D4F5"/>
<path d="M215.6 47.6001C215.6 43.0001 215 38.9001 213.8 35.2001C212.6 31.5001 210.9 28.4001 208.6 25.8001C206.3 23.2001 203.6 21.3001 200.3 19.9001C197 18.5001 193.3 17.9001 189.1 17.9001C184.9 17.9001 181.1 18.6001 177.8 19.9001C174.5 21.3001 171.7 23.2001 169.4 25.8001C167.1 28.4001 165.4 31.5001 164.2 35.2001C163 38.9001 162.4 43.0001 162.4 47.6001C162.4 52.2001 163 56.4001 164.2 60.1001C165.4 63.8001 167.2 66.9001 169.4 69.5001C171.7 72.1001 174.5 74.0001 177.8 75.3001C181.1 76.6001 184.9 77.3001 189.1 77.3001C193.3 77.3001 197 76.6001 200.3 75.3001C203.6 74.0001 206.4 72.0001 208.6 69.5001C210.9 66.9001 212.6 63.8001 213.8 60.1001C215 56.4001 215.6 52.2001 215.6 47.6001ZM238.1 47.6001C238.1 54.3001 236.9 60.6001 234.6 66.4001C232.2 72.2001 228.9 77.2001 224.7 81.5001C220.4 85.8001 215.3 89.1001 209.2 91.6001C203.2 94.0001 196.5 95.2001 189.1 95.2001C181.8 95.2001 175.1 94.0001 169 91.6001C163 89.2001 157.8 85.8001 153.5 81.5001C149.2 77.2001 145.9 72.2001 143.5 66.4001C141.1 60.6001 140 54.3001 140 47.6001C140 40.9001 141.2 34.6001 143.5 28.8001C145.9 23.0001 149.2 18.0001 153.5 13.7001C157.8 9.4001 163 6.1001 169 3.7001C175 1.3001 181.7 0.100098 189.1 0.100098C196.4 0.100098 203.1 1.3001 209.2 3.8001C215.2 6.3001 220.4 9.6001 224.7 13.9001C229 18.2001 232.3 23.2001 234.6 29.0001C236.9 34.7001 238.1 40.9001 238.1 47.6001Z" fill="#84D4F5"/>
<path d="M343.8 1.1001V94.2001H332.4C330.7 94.2001 329.3 93.9001 328.2 93.4001C327.1 92.9001 325.9 91.9001 324.8 90.6001L280.3 35.1001C280.5 36.8001 280.6 38.4001 280.7 39.9001C280.8 41.5001 280.8 42.9001 280.8 44.3001V94.2001H261.5V1.1001H273C273.9 1.1001 274.7 1.1001 275.4 1.2001C276 1.3001 276.6 1.4001 277.2 1.7001C277.7 1.9001 278.2 2.3001 278.7 2.7001C279.2 3.1001 279.7 3.7001 280.3 4.4001L325 60.3001C324.8 58.5001 324.6 56.8001 324.5 55.1001C324.4 53.4001 324.4 51.8001 324.4 50.3001V1.1001H343.8Z" fill="#84D4F5"/>
<path d="M486.7 70.1C487.2 70.1 487.7 70.2 488.3 70.4C488.8 70.6 489.3 70.9 489.8 71.4L498.5 80.4C494.7 85.3 489.9 89 484.2 91.5C478.5 94 471.7 95.2 463.9 95.2C456.7 95.2 450.3 94 444.6 91.6C438.9 89.2 434.1 85.9 430.1 81.6C426.1 77.4 423.1 72.3 421 66.5C418.9 60.7 417.8 54.4 417.8 47.5C417.8 40.6 418.9 34.2 421.2 28.4C423.5 22.6 426.7 17.6 430.9 13.3C435 9.1 440 5.8 445.8 3.5C451.6 1.2 458 0 464.9 0C468.4 0 471.8 0.3 474.9 0.9C478 1.5 481 2.4 483.7 3.5C486.4 4.6 488.9 5.9 491.2 7.4C493.5 8.9 495.5 10.6 497.3 12.4L489.9 22.2C489.4 22.8 488.9 23.3 488.2 23.8C487.6 24.3 486.6 24.5 485.5 24.5C484.7 24.5 484 24.3 483.3 24C482.6 23.7 481.9 23.2 481.1 22.8C480.3 22.3 479.5 21.8 478.5 21.2C477.6 20.6 476.5 20.1 475.2 19.6C473.9 19.1 472.4 18.7 470.7 18.4C469 18.1 467 17.9 464.7 17.9C461.1 17.9 457.8 18.6 454.8 19.9C451.8 21.2 449.2 23.1 447 25.7C444.8 28.2 443.1 31.3 441.9 35C440.7 38.7 440.1 42.9 440.1 47.6C440.1 52.4 440.8 56.6 442.1 60.3C443.4 64 445.2 67.1 447.5 69.7C449.8 72.2 452.4 74.2 455.4 75.5C458.4 76.8 461.7 77.5 465.1 77.5C467.1 77.5 468.9 77.4 470.5 77.2C472.1 77 473.7 76.7 475.1 76.2C476.5 75.8 477.9 75.2 479.1 74.4C480.4 73.7 481.6 72.7 482.9 71.6C483.4 71.2 484 70.8 484.6 70.5C485.4 70.2 486.1 70.1 486.7 70.1Z" fill="#84D4F5"/>
<path d="M60.8 192.6C61.2 192.6 61.5 192.7 61.7 193L63.9 195.3C62.3 197 60.6 198.5 58.7 199.9C56.8 201.3 54.8 202.4 52.5 203.4C50.3 204.4 47.8 205.1 45.1 205.6C42.4 206.1 39.5 206.4 36.3 206.4C30.9 206.4 26 205.5 21.6 203.6C17.1 201.7 13.3 199.1 10.1 195.6C6.9 192.2 4.4 188 2.6 183.1C0.9 178.3 0 172.9 0 166.9C0 161 0.9 155.7 2.7 150.9C4.5 146.1 7.1 141.9 10.3 138.4C13.6 134.9 17.5 132.2 22.1 130.3C26.7 128.4 31.7 127.4 37.3 127.4C42.6 127.4 47.3 128.2 51.3 129.9C55.4 131.5 59.1 133.9 62.4 136.8L60.7 139.3C60.4 139.7 60 140 59.3 140C58.9 140 58.2 139.6 57.2 138.8C56.2 138 54.9 137.1 53.1 136.2C51.4 135.2 49.2 134.4 46.6 133.6C44 132.8 40.9 132.4 37.2 132.4C32.5 132.4 28.3 133.2 24.4 134.8C20.5 136.4 17.2 138.7 14.4 141.7C11.6 144.7 9.4 148.3 7.9 152.6C6.3 156.9 5.6 161.7 5.6 167.1C5.6 172.6 6.4 177.4 8 181.7C9.6 186 11.8 189.6 14.5 192.6C17.3 195.6 20.5 197.8 24.3 199.4C28.1 201 32.1 201.8 36.5 201.8C39.3 201.8 41.7 201.6 43.9 201.3C46.1 200.9 48.1 200.4 49.9 199.7C51.7 199 53.4 198.1 55 197C56.6 195.9 58.1 194.7 59.6 193.3C59.8 193.2 60 193 60.1 192.9C60.4 192.6 60.6 192.6 60.8 192.6Z" fill="#05172F"/>
<path d="M261.7 192.6C262.1 192.6 262.4 192.7 262.6 193L264.8 195.3C263.2 197 261.5 198.5 259.6 199.9C257.7 201.3 255.7 202.4 253.4 203.4C251.2 204.4 248.7 205.1 246 205.6C243.3 206.1 240.4 206.4 237.2 206.4C231.8 206.4 226.9 205.5 222.5 203.6C218 201.7 214.2 199.1 211 195.6C207.8 192.2 205.3 188 203.5 183.1C201.7 178.2 200.8 172.8 200.8 166.8C200.8 160.9 201.7 155.6 203.5 150.8C205.3 146 207.9 141.8 211.2 138.3C214.5 134.8 218.4 132.1 223 130.2C227.6 128.3 232.6 127.3 238.2 127.3C243.5 127.3 248.2 128.1 252.2 129.8C256.3 131.4 260 133.8 263.3 136.7L261.6 139.2C261.3 139.6 260.9 139.9 260.2 139.9C259.8 139.9 259.1 139.5 258.1 138.7C257.1 137.9 255.8 137 254 136.1C252.3 135.1 250.1 134.3 247.5 133.5C244.9 132.7 241.8 132.3 238.1 132.3C233.4 132.3 229.2 133.1 225.3 134.7C221.4 136.3 218.1 138.6 215.3 141.6C212.5 144.6 210.3 148.2 208.8 152.5C207.2 156.8 206.4 161.6 206.4 167C206.4 172.5 207.2 177.3 208.8 181.6C210.4 185.9 212.6 189.5 215.3 192.5C218.1 195.5 221.3 197.7 225.1 199.3C228.9 200.9 232.9 201.7 237.3 201.7C240.1 201.7 242.5 201.5 244.7 201.2C246.9 200.8 248.9 200.3 250.7 199.6C252.5 198.9 254.2 198 255.8 196.9C257.4 195.8 258.9 194.6 260.4 193.2C260.6 193.1 260.8 192.9 260.9 192.8C261.3 192.6 261.5 192.6 261.7 192.6Z" fill="#05172F"/>
<path d="M435 166.4L420 205.5H415L383.1 128.3H387.5C388 128.3 388.4 128.4 388.8 128.7C389.1 129 389.4 129.3 389.6 129.8L415.9 193.9C416.2 194.7 416.5 195.6 416.8 196.5C417.1 197.4 417.4 198.3 417.6 199.3C417.8 198.4 418.1 197.4 418.3 196.5C418.6 195.6 418.8 194.7 419.2 193.9L428.6 167.9C428.7 167.5 429 167.2 429.4 166.9C429.8 166.6 430.2 166.5 430.7 166.5H435V166.4Z" fill="#05172F"/>
</g>
<defs>
<clipPath id="clip0_1428_10299">
<rect width="498.4" height="206.5" fill="white"/>
</clipPath>
</defs>
</svg>
