<?xml version="1.0" standalone="no"?>
<!DOCTYPE svg PUBLIC "-//W3C//DTD SVG 1.1//EN" "http://www.w3.org/Graphics/SVG/1.1/DTD/svg11.dtd" >
<svg xmlns="http://www.w3.org/2000/svg" xmlns:xlink="http://www.w3.org/1999/xlink" version="1.1">
<metadata>
Created by FontForge 20170731 at Wed Dec 14 18:12:47 2022
 By Aleksey,,,
Copyright (c) 1990 Adobe Systems Incorporated.  All Rights Reserved.Helvetica is a trademark of Linotype AG and/or its subsidiaries.
</metadata>
<defs>
<font id="HelveticaNeueLT-LightExt" horiz-adv-x="1368" >
  <font-face 
    font-family="Helvetica Neue LT"
    font-weight="300"
    font-stretch="normal"
    units-per-em="2048"
    panose-1="0 0 0 0 0 0 0 0 0 0"
    ascent="1638"
    descent="-410"
    x-height="1065"
    cap-height="1462"
    bbox="-328 -451 2378 1952"
    underline-thickness="102"
    underline-position="-307"
    unicode-range="U+0020-FB02"
  />
<missing-glyph horiz-adv-x="569" 
 />
    <glyph glyph-name=".notdef" horiz-adv-x="569" 
 />
    <glyph glyph-name=".null" horiz-adv-x="0" 
 />
    <glyph glyph-name="nonmarkingreturn" horiz-adv-x="682" 
 />
    <glyph glyph-name="space" unicode=" " horiz-adv-x="569" 
 />
    <glyph glyph-name="exclam" unicode="!" horiz-adv-x="606" 
d="M215 0v225h176v-225h-176zM258 379l-37 696v387h164v-387l-37 -696h-90z" />
    <glyph glyph-name="quotedbl" unicode="&#x22;" horiz-adv-x="833" 
d="M207 950v512h115v-512h-115zM512 950v512h115v-512h-115z" />
    <glyph glyph-name="numbersign" unicode="#" 
d="M336 0l65 463h-233v90h246l45 315h-234v90h246l66 463h102l-66 -463h291l66 463h102l-65 -463h233v-90h-246l-45 -315h234v-90h-246l-66 -463h-102l66 463h-291l-66 -463h-102zM807 553l45 315h-291l-45 -315h291z" />
    <glyph glyph-name="dollar" unicode="$" 
d="M629 811v500q-175 -6 -275 -70t-100 -182q0 -58 28.5 -101.5t84 -71.5t116 -44.5t146.5 -30.5zM743 649v-543q83 1 153.5 15t131 44.5t95 85.5t34.5 130q0 106 -96.5 173t-317.5 95zM629 106v560q-69 11 -116 20t-108.5 25t-102.5 34t-84.5 46.5t-69 63t-42 83
t-16.5 106.5q0 86 30 155t81 114t121 76t146 45t161 16v125h114v-125q107 -6 197.5 -31.5t167 -75t121.5 -133.5t49 -196h-152q-7 77 -38.5 133.5t-85 90t-116.5 50.5t-143 23v-523q311 -41 444.5 -129.5t133.5 -250.5q0 -97 -34 -174t-89.5 -125.5t-132.5 -81t-155.5 -46
t-166.5 -14.5v-198h-114v198q-579 28 -582 502h152q0 -338 430 -363z" />
    <glyph glyph-name="percent" unicode="%" horiz-adv-x="1972" 
d="M1487 70q109 0 170 78.5t61 216.5t-61 216t-170 78t-170.5 -78t-61.5 -216t61.5 -216.5t170.5 -78.5zM436 -33l975 1483h121l-975 -1483h-121zM485 758q109 0 170.5 78.5t61.5 216.5t-61.5 216.5t-170.5 78.5t-170 -78.5t-61 -216.5t61 -216.5t170 -78.5zM1487 -33
q-160 0 -259.5 104t-99.5 294t99.5 293.5t259.5 103.5t259 -103.5t99 -293.5q0 -191 -99.5 -294.5t-258.5 -103.5zM485 655q-159 0 -258.5 103.5t-99.5 294.5q0 190 99 293.5t259 103.5t259.5 -103.5t99.5 -293.5t-99.5 -294t-259.5 -104z" />
    <glyph glyph-name="ampersand" unicode="&#x26;" horiz-adv-x="1593" 
d="M1143 270l-506 480q-175 -65 -257.5 -150t-82.5 -205q0 -126 104.5 -213.5t305.5 -87.5q136 0 238 38.5t198 137.5zM1430 0l-191 182q-79 -99 -223.5 -157t-317.5 -58q-269 0 -411 120.5t-142 315.5q0 149 94 247t312 188q-95 89 -139.5 158t-44.5 163q0 136 97.5 219.5
t258.5 83.5q95 0 167 -27t111.5 -71.5t58.5 -94.5t19 -104q0 -228 -305 -354l449 -424q30 40 50.5 114t26.5 132h140q0 -65 -30.5 -160.5t-86.5 -177.5l313 -295h-206zM940 1157q0 77 -56.5 127.5t-172.5 50.5q-82 0 -143.5 -47.5t-61.5 -122.5q0 -52 32.5 -107.5
t145.5 -166.5q131 57 193.5 122t62.5 144z" />
    <glyph glyph-name="quotesingle" unicode="'" horiz-adv-x="569" 
d="M227 950v512h115v-512h-115z" />
    <glyph glyph-name="parenleft" unicode="(" horiz-adv-x="720" 
d="M537 1462h114q-46 -65 -71 -102.5t-71.5 -114t-74 -144.5t-57.5 -158t-44 -192.5t-14 -213.5q0 -96 12.5 -188t29.5 -164t48 -149t55 -127t64.5 -115.5t62 -96.5t60.5 -86h-114q-18 20 -26.5 30t-52.5 68t-74 108t-74.5 137.5t-72.5 171t-48.5 193.5t-20.5 218t21 218
t48.5 193t72 170.5t74.5 137.5t74 108.5t52.5 67.5t26.5 30z" />
    <glyph glyph-name="parenright" unicode=")" horiz-adv-x="720" 
d="M184 -389h-114q39 55 60.5 86.5t61.5 96t64 115t55 127.5t48 149t29.5 164t12.5 188t-12.5 188t-29.5 164t-48 149t-55 127t-64 115t-61.5 96t-60.5 86h114q18 -21 26.5 -30t52.5 -67.5t74 -108.5t74.5 -137.5t72 -170.5t48.5 -193t21 -218t-20.5 -218t-48.5 -193.5
t-72.5 -171t-74.5 -137.5t-74 -108t-52.5 -68t-26.5 -30z" />
    <glyph glyph-name="asterisk" unicode="*" horiz-adv-x="872" 
d="M379 1188v274h115v-274l260 98l41 -100l-271 -103l189 -211l-78 -73l-199 223l-198 -223l-78 73l188 211l-270 103l41 100z" />
    <glyph glyph-name="plus" unicode="+" horiz-adv-x="1228" 
d="M563 0v467h-467v102h467v467h103v-467h467v-102h-467v-467h-103z" />
    <glyph glyph-name="comma" unicode="," horiz-adv-x="569" 
d="M197 0v225h176v-229q0 -230 -195 -283v78q57 26 74.5 74t17.5 135h-73z" />
    <glyph glyph-name="hyphen" unicode="-" horiz-adv-x="909" 
d="M143 485v152h623v-152h-623z" />
    <glyph glyph-name="period" unicode="." horiz-adv-x="569" 
d="M197 0v225h176v-225h-176z" />
    <glyph glyph-name="slash" unicode="/" horiz-adv-x="833" 
d="M8 -37l703 1536h114l-702 -1536h-115z" />
    <glyph glyph-name="zero" unicode="0" 
d="M684 1323q-123 0 -211 -44.5t-138.5 -128.5t-73.5 -193t-23 -250q0 -111 14 -201.5t46.5 -168.5t83 -130.5t127 -82.5t175.5 -30t175.5 30t127 82.5t83 130.5t46.5 168.5t14 201.5q0 141 -23 250t-73.5 193t-138.5 128.5t-211 44.5zM684 1450q134 0 242 -44t188.5 -132.5
t124 -232.5t43.5 -334q0 -189 -43.5 -332t-124 -231.5t-188.5 -132.5t-242 -44t-242 44t-188.5 132.5t-124 231.5t-43.5 332q0 190 43.5 334t124 232.5t188.5 132.5t242 44z" />
    <glyph glyph-name="one" unicode="1" horiz-adv-x="909" 
d="M483 0v1065h-442v115h100q65 0 107.5 3.5t83.5 13.5t66.5 28t48 48.5t36.5 73t25 103.5h127v-1450h-152z" />
    <glyph glyph-name="two" unicode="2" 
d="M1217 139v-139h-1111q6 59 17 102t43 104t83.5 114t143 119t217.5 132q108 56 171.5 93.5t121.5 79.5t86 80.5t44 85t16 104.5q0 154 -95 231.5t-268 77.5q-94 0 -165 -22.5t-114 -58t-69.5 -87.5t-37 -104t-11.5 -115h-152q0 263 144.5 388.5t406.5 125.5
q112 0 201.5 -26t146.5 -68.5t95 -100.5t53.5 -118t15.5 -125q0 -72 -19 -133t-47.5 -104.5t-78.5 -86t-95 -71t-114 -66.5q-131 -71 -209.5 -116.5t-145.5 -88t-102.5 -75t-59 -64t-34.5 -68.5h922z" />
    <glyph glyph-name="three" unicode="3" 
d="M578 688v127h98q179 0 269.5 54t90.5 188q0 132 -93 199t-251 67q-401 0 -401 -350h-152q2 99 36 183.5t99 151t172.5 104.5t245.5 38q76 0 146 -13t134.5 -43t112 -74.5t75.5 -112t28 -150.5q0 -106 -70.5 -191.5t-195.5 -99.5v-4q139 -11 230 -108t91 -253
q0 -117 -44.5 -203t-124.5 -135.5t-179 -72.5t-221 -23q-278 0 -424 127t-148 367h152q7 -194 117.5 -280.5t324.5 -86.5q88 0 158 18t113.5 47t72.5 69t40.5 81.5t11.5 87.5q0 70 -21 122.5t-55.5 84t-86 51t-106 26.5t-123.5 7h-122z" />
    <glyph glyph-name="four" unicode="4" 
d="M856 483v754h-4l-614 -754h618zM856 0v356h-770v140l776 954h133v-967h271v-127h-271v-356h-139z" />
    <glyph glyph-name="five" unicode="5" 
d="M147 668l144 749h854v-127h-739l-101 -469l4 -4q59 58 155 98.5t216 40.5q263 0 409 -134t146 -359q0 -47 -7.5 -93t-26.5 -96t-47.5 -93.5t-74 -83.5t-102.5 -68t-136.5 -45t-172.5 -17q-260 0 -401 116t-167 325h152q27 -157 128 -235.5t288 -78.5q185 0 300 93.5
t115 275.5q0 174 -111.5 270t-314.5 96q-235 0 -368 -167z" />
    <glyph glyph-name="six" unicode="6" 
d="M1219 1081h-152q-9 112 -103 177t-264 65q-219 0 -329 -147.5t-119 -485.5l4 -4q24 45 56.5 85t85 83.5t131 69.5t171.5 26q254 0 404.5 -129.5t150.5 -363.5q0 -119 -43.5 -213.5t-120 -154t-176 -91t-215.5 -31.5q-587 0 -587 692q0 181 34.5 324t104 248.5t183.5 162
t265 56.5q128 0 227.5 -31t159.5 -84.5t92.5 -117t39.5 -136.5zM289 463q0 -54 14 -105.5t46 -99.5t78.5 -84t117 -58t155.5 -22q174 0 289 99.5t115 265.5q0 158 -109 261t-295 103q-96 0 -170.5 -24.5t-119 -62t-73 -87.5t-38.5 -95t-10 -91z" />
    <glyph glyph-name="seven" unicode="7" horiz-adv-x="1214" 
d="M1130 1417v-139q-56 -50 -123.5 -128.5t-151 -203t-155 -263.5t-132.5 -320t-87 -363h-164q20 170 91 364t166.5 364t203 314t207.5 236h-930v139h1075z" />
    <glyph glyph-name="eight" unicode="8" 
d="M250 395q0 -151 118.5 -226t315.5 -75t315.5 75t118.5 226q0 155 -121.5 234.5t-312.5 79.5t-312.5 -79.5t-121.5 -234.5zM98 395q0 297 342 379v4q-272 72 -272 301q0 42 9.5 82t31 83t61 79t94.5 65t137 45.5t183 16.5t183 -16.5t137 -45.5t94.5 -65t61 -79t31 -83
t9.5 -82q0 -229 -272 -301v-4q342 -82 342 -379q0 -44 -8 -86t-28 -85t-50 -80t-77 -70t-106 -56.5t-140 -37t-177 -13.5t-177 13.5t-140 37t-106 56.5t-77 70t-50 80t-28 85t-8 86zM684 836q179 0 272 64.5t93 170.5q0 72 -31.5 123.5t-86 78.5t-115 38.5t-132.5 11.5
t-132.5 -11.5t-115 -38.5t-86 -78.5t-31.5 -123.5q0 -106 93 -170.5t272 -64.5z" />
    <glyph glyph-name="nine" unicode="9" 
d="M150 336h151q9 -112 103 -177t264 -65q219 0 329 147.5t119 485.5l-4 4q-24 -45 -56.5 -85t-85 -83.5t-131 -69.5t-171.5 -26q-253 0 -404 130t-151 364q0 119 43.5 213.5t120 154t176 90.5t215.5 31q587 0 587 -692q0 -181 -34.5 -324t-104 -248.5t-183.5 -162
t-265 -56.5q-103 0 -188.5 20.5t-143 55.5t-98.5 83t-61.5 100t-26.5 110zM1079 954q0 54 -14 105.5t-46 99.5t-78.5 84t-117 58t-155.5 22q-174 0 -289 -99.5t-115 -265.5q0 -158 109 -261t295 -103q96 0 170.5 24.5t119 62t73 87.5t38.5 95t10 91z" />
    <glyph glyph-name="colon" unicode=":" horiz-adv-x="569" 
d="M197 0v225h176v-225h-176zM197 811v225h176v-225h-176z" />
    <glyph glyph-name="semicolon" unicode=";" horiz-adv-x="569" 
d="M197 0v225h176v-229q0 -230 -195 -283v78q57 26 74.5 74t17.5 135h-73zM197 811v225h176v-225h-176z" />
    <glyph glyph-name="less" unicode="&#x3c;" horiz-adv-x="1228" 
d="M96 461v114l1037 478v-115l-910 -420l910 -420v-114z" />
    <glyph glyph-name="equal" unicode="=" horiz-adv-x="1228" 
d="M96 666v102h1037v-102h-1037zM96 268v103h1037v-103h-1037z" />
    <glyph glyph-name="greater" unicode="&#x3e;" horiz-adv-x="1228" 
d="M1006 518l-910 420v115l1037 -478v-114l-1037 -477v114z" />
    <glyph glyph-name="question" unicode="?" horiz-adv-x="1327" 
d="M262 1006h-151q0 102 33.5 190.5t97.5 156.5t166.5 107t232.5 39q83 0 159.5 -15.5t144.5 -49t118 -82t79 -119.5t29 -156q0 -56 -12 -101.5t-31.5 -81.5t-59.5 -75t-80 -70t-109 -79q-56 -40 -88 -67t-53.5 -49.5t-30 -50.5t-11 -52.5t-2.5 -71.5h-139v71t7 58t10 46
t23 41.5t30.5 39.5t49 44t63 50t85.5 64q95 71 126 104q71 77 71 180q0 129 -107 206t-272 77q-191 0 -283.5 -95.5t-95.5 -258.5zM537 0v225h176v-225h-176z" />
    <glyph glyph-name="at" unicode="@" horiz-adv-x="1638" 
d="M508 588q0 -100 42 -156.5t128 -56.5q75 0 145 52.5t116.5 130.5t74.5 164.5t28 158.5q0 103 -40 152.5t-128 49.5q-62 0 -120.5 -32t-102 -85t-76.5 -117.5t-50 -132.5t-17 -128zM1108 1012l49 137h115l-203 -610q-25 -80 -25 -123q0 -25 14 -39.5t40 -14.5q83 0 165 81
t132.5 198.5t50.5 224.5q0 120 -49 223.5t-130.5 172.5t-188 108t-220.5 39q-140 0 -265 -55.5t-212 -148t-137.5 -216.5t-50.5 -258q0 -138 52.5 -263t141.5 -216t212 -145t259 -54q162 0 313 79t232 210h115q-98 -174 -278 -276.5t-382 -102.5q-161 0 -304.5 61.5
t-244.5 165t-160 245t-59 296.5q0 209 103 386t279.5 279.5t385.5 102.5q190 0 347.5 -81.5t250 -228.5t92.5 -329q0 -115 -43.5 -225.5t-111.5 -189t-152 -126t-164 -47.5q-59 0 -97 36t-38 106h-4q-128 -142 -276 -142q-127 0 -204 88t-77 218q0 108 37 216t100.5 195.5
t159.5 142t205 54.5q161 0 225 -174z" />
    <glyph glyph-name="A" unicode="A" horiz-adv-x="1478" 
d="M1059 584l-322 727l-325 -727h647zM1315 0l-195 444h-770l-198 -444h-164l663 1462h176l664 -1462h-176z" />
    <glyph glyph-name="B" unicode="B" horiz-adv-x="1517" 
d="M135 0v1462h832q205 0 306 -101.5t101 -266.5q0 -112 -63.5 -198.5t-188.5 -115.5v-4q144 -22 227 -119t83 -239q0 -88 -29 -160t-76.5 -119t-111 -79t-130.5 -46t-137 -14h-813zM287 1323v-496h600q163 0 249.5 60t86.5 200q0 236 -285 236h-651zM287 688v-549h637
q76 0 137 15.5t108.5 48t73 87.5t25.5 128q0 148 -81 209t-226 61h-674z" />
    <glyph glyph-name="C" unicode="C" horiz-adv-x="1669" 
d="M1434 557h151q-12 -123 -68.5 -231t-147.5 -189t-222 -127.5t-285 -46.5q-356 0 -567 208t-211 560q0 105 25.5 208.5t85 206t146.5 180t221.5 125.5t299.5 48q99 0 192.5 -17.5t182.5 -58.5t158 -101t117 -150.5t61 -202.5h-152q-16 101 -68.5 178t-129.5 122.5t-168 68
t-193 22.5q-137 0 -249 -39t-193.5 -115.5t-126.5 -197t-45 -277.5q0 -101 21 -191t68 -171t116.5 -139.5t174.5 -93t234 -34.5q489 0 572 455z" />
    <glyph glyph-name="D" unicode="D" horiz-adv-x="1593" 
d="M135 0v1462h711q316 0 481.5 -191.5t165.5 -539.5q0 -156 -40.5 -288.5t-117.5 -231.5t-197 -155t-270 -56h-733zM287 1323v-1184h553q82 0 152 18t133 61.5t107.5 110t70.5 169t26 233.5q0 294 -119.5 443t-369.5 149h-553z" />
    <glyph glyph-name="E" unicode="E" horiz-adv-x="1402" 
d="M160 0v1462h1163v-139h-1012v-496h975v-139h-975v-549h1028v-139h-1179z" />
    <glyph glyph-name="F" unicode="F" horiz-adv-x="1251" 
d="M135 0v1462h1096v-139h-944v-496h897v-139h-897v-688h-152z" />
    <glyph glyph-name="G" unicode="G" horiz-adv-x="1744" 
d="M1493 0l-20 276h-5q-115 -164 -255.5 -238.5t-352.5 -74.5q-183 0 -328.5 55.5t-241 157t-146 242.5t-50.5 313q0 221 93.5 394.5t272.5 273.5t417 100q149 0 276.5 -40t216 -109t143.5 -159t70 -192h-164q-43 179 -189.5 270t-352.5 91q-296 0 -457.5 -168t-161.5 -461
q0 -299 151 -464t439 -165q127 0 228 28.5t167.5 75.5t114 115.5t72.5 138t40 154.5h-536v140h676v-754h-117z" />
    <glyph glyph-name="H" unicode="H" horiz-adv-x="1630" 
d="M135 0v1462h152v-618h1056v618h152v-1462h-152v705h-1056v-705h-152z" />
    <glyph glyph-name="I" unicode="I" horiz-adv-x="454" 
d="M152 0v1462h151v-1462h-151z" />
    <glyph glyph-name="J" unicode="J" horiz-adv-x="1138" 
d="M203 479v-53q-3 -336 323 -336q80 0 137 16.5t101.5 56t66 111.5t21.5 177v1011h152v-1052q0 -205 -122 -326t-364 -121q-74 0 -136 12.5t-107 31t-80.5 50.5t-58 60.5t-39.5 72.5t-25 73.5t-13 77.5t-6 71.5t-2 66.5h152z" />
    <glyph glyph-name="K" unicode="K" horiz-adv-x="1517" 
d="M160 0v1462h151v-790l944 790h220l-725 -604l774 -858h-215l-678 756l-320 -262v-494h-151z" />
    <glyph glyph-name="L" unicode="L" horiz-adv-x="1214" 
d="M135 0v1462h152v-1323h927v-139h-1079z" />
    <glyph glyph-name="M" unicode="M" horiz-adv-x="2009" 
d="M1008 190l651 1272h215v-1462h-152v1264h-4l-645 -1264h-139l-643 1266h-4v-1266h-152v1462h221z" />
    <glyph glyph-name="N" unicode="N" horiz-adv-x="1630" 
d="M135 0v1462h182l1022 -1249h4v1249h152v-1462h-176l-1028 1249h-4v-1249h-152z" />
    <glyph glyph-name="O" unicode="O" horiz-adv-x="1744" 
d="M78 731q0 151 42.5 277.5t117 216t175.5 152t217 92.5t242 30t242.5 -30t217.5 -92.5t175 -152t117 -216t43 -277.5t-43 -277.5t-117 -216t-175 -152t-217.5 -92.5t-242.5 -30t-242 30t-217 92.5t-175.5 152t-117 216t-42.5 277.5zM242 731q0 -128 34.5 -234t94 -178
t140.5 -122t171.5 -72.5t189.5 -22.5t189.5 22.5t171.5 72.5t140.5 122t94.5 178t35 234t-35 234t-94.5 178t-140.5 122t-171.5 72.5t-189.5 22.5t-189.5 -22.5t-171.5 -72.5t-140.5 -122t-94 -178t-34.5 -234z" />
    <glyph glyph-name="P" unicode="P" horiz-adv-x="1441" 
d="M311 1323v-569h586q180 0 254 74t74 212q0 155 -77.5 219t-219.5 64h-617zM160 0v1462h788q70 0 132.5 -14t119.5 -46t98.5 -79.5t66 -120t24.5 -162.5q0 -207 -131.5 -316.5t-376.5 -109.5h-570v-614h-151z" />
    <glyph glyph-name="Q" unicode="Q" horiz-adv-x="1744" 
d="M975 311l80 101l229 -176q219 164 219 495q0 128 -35 234t-94.5 178t-140.5 122t-171.5 72.5t-189.5 22.5t-189.5 -22.5t-171.5 -72.5t-140.5 -122t-94 -178t-34.5 -234t34.5 -234t94 -178t140.5 -122t171.5 -72.5t189.5 -22.5q163 0 293 62zM1626 -29l-80 -100l-252 195
q-184 -103 -422 -103q-126 0 -242 30t-217 92.5t-175.5 152t-117 216t-42.5 277.5t42.5 277.5t117 216t175.5 152t217 92.5t242 30t242.5 -30t217.5 -92.5t175 -152t117 -216t43 -277.5q0 -195 -68.5 -345t-191.5 -245z" />
    <glyph glyph-name="R" unicode="R" horiz-adv-x="1517" 
d="M160 0v1462h796q78 0 145 -11.5t129.5 -39.5t106 -72t69.5 -113.5t26 -158.5q0 -124 -75.5 -223.5t-211.5 -130.5v-4q76 -12 126 -42.5t78 -84.5t40 -118t16 -161q12 -266 51 -303h-164q-36 41 -39 299q-3 192 -83 268t-271 76h-588v-643h-151zM311 1323v-541h641
q66 0 120 13.5t99.5 44.5t71 88.5t25.5 138.5q0 256 -301 256h-656z" />
    <glyph glyph-name="S" unicode="S" 
d="M1278 1044h-152q-6 73 -33 128.5t-68.5 90.5t-99.5 57.5t-120 31t-137 8.5q-183 0 -298.5 -68.5t-115.5 -189.5q0 -40 11.5 -73t31 -58t56 -46t75 -36.5t99.5 -30.5t118.5 -26t142.5 -25q67 -11 114 -20.5t107 -26.5t101 -36t84 -48t68.5 -64t42 -84t16.5 -108
q0 -103 -36.5 -184.5t-95.5 -131.5t-140.5 -83t-164 -45.5t-173.5 -12.5q-115 0 -209.5 16t-177.5 54t-140.5 97t-93.5 148t-43 205h152q8 -90 37 -157.5t73 -109.5t108.5 -68t134.5 -36t159 -10q70 0 131 8t120.5 28.5t101 52t67.5 83.5t26 119q0 51 -16 90.5t-55.5 68
t-74 47t-103.5 35t-109 24t-124 20.5q-33 5 -50 8q-275 43 -405 131t-130 258q0 93 33.5 166.5t88.5 121t131 79t156 44.5t169 13q94 0 177.5 -13.5t163 -46.5t137 -84t93.5 -130.5t39 -180.5z" />
    <glyph glyph-name="T" unicode="T" horiz-adv-x="1290" 
d="M569 0v1323h-573v139h1298v-139h-573v-1323h-152z" />
    <glyph glyph-name="U" unicode="U" horiz-adv-x="1593" 
d="M1450 1462v-897q0 -64 -5.5 -118t-23 -117.5t-46 -114t-78.5 -99t-117 -81t-164.5 -52.5t-218.5 -20t-219 20t-165 52.5t-117 81t-78.5 99t-46 114t-23 118t-5.5 117.5v897h152v-897q0 -111 28.5 -195t74.5 -134t113.5 -81t135.5 -42t150 -11t150 11t135.5 42t113 81
t74 134t28.5 195v897h152z" />
    <glyph glyph-name="V" unicode="V" horiz-adv-x="1402" 
d="M711 172l559 1290h164l-648 -1462h-163l-654 1462h176z" />
    <glyph glyph-name="W" unicode="W" horiz-adv-x="2162" 
d="M1612 201l409 1261h164l-491 -1462h-176l-441 1249h-4l-434 -1249h-176l-486 1462h170l406 -1261h4l432 1261h187l432 -1261h4z" />
    <glyph glyph-name="X" unicode="X" horiz-adv-x="1366" 
d="M-16 0l594 741l-570 721h203l475 -602l490 602h188l-573 -712l591 -750h-200l-500 629l-504 -629h-194z" />
    <glyph glyph-name="Y" unicode="Y" horiz-adv-x="1404" 
d="M627 0v614l-658 848h197l536 -696l537 696h197l-658 -848v-614h-151z" />
    <glyph glyph-name="Z" unicode="Z" horiz-adv-x="1327" 
d="M10 0v139l1086 1184h-1016v139h1220v-139l-1091 -1184h1108v-139h-1307z" />
    <glyph glyph-name="bracketleft" unicode="[" horiz-adv-x="720" 
d="M221 -389v1851h402v-114h-263v-1622h263v-115h-402z" />
    <glyph glyph-name="backslash" unicode="\" horiz-adv-x="833" 
d="M713 -37l-707 1536h115l706 -1536h-114z" />
    <glyph glyph-name="bracketright" unicode="]" horiz-adv-x="720" 
d="M500 1462v-1851h-402v115h262v1622h-262v114h402z" />
    <glyph glyph-name="asciicircum" unicode="^" horiz-adv-x="1228" 
d="M1024 489l-410 801l-409 -801h-115l473 928h103l473 -928h-115z" />
    <glyph glyph-name="underscore" unicode="_" horiz-adv-x="1024" 
d="M0 -256v102h1024v-102h-1024z" />
    <glyph glyph-name="grave" unicode="`" horiz-adv-x="376" 
d="M84 1516l235 -291h-124l-297 291h186z" />
    <glyph glyph-name="a" unicode="a" horiz-adv-x="1251" 
d="M965 412v161q-44 -28 -118.5 -40t-294.5 -33q-39 -4 -60 -6q-138 -13 -208.5 -59t-70.5 -138q0 -215 307 -215q79 0 156.5 21.5t142.5 61t105.5 104t40.5 143.5zM248 737h-139q9 88 38 151.5t86.5 112t153 73t229.5 24.5q260 0 374 -78.5t114 -237.5v-557q0 -65 19.5 -92
t64.5 -27q12 0 80 5v-103q-83 -16 -127 -16t-75.5 12.5t-48 29t-26 45t-11.5 49t-3 52.5h-4q-20 -29 -36.5 -50t-58.5 -54.5t-91 -54.5t-131 -37.5t-181 -16.5q-73 0 -142 17t-132 52.5t-101.5 100t-38.5 150.5q0 60 18 108.5t46 82t72.5 58.5t87 39.5t101 24.5t103 14
t103.5 7q88 5 143.5 9.5t100 12t67.5 16.5t38.5 24.5t19.5 33t4 45.5q0 114 -81.5 161.5t-271.5 47.5q-183 0 -270 -54t-94 -180z" />
    <glyph glyph-name="b" unicode="b" horiz-adv-x="1366" 
d="M117 0v1475h151v-623h4q55 106 172 176t263 70q144 0 257 -46t182 -126t104.5 -180t35.5 -214q0 -82 -18 -159t-61 -152t-107.5 -130.5t-165.5 -89.5t-227 -34q-91 0 -169.5 25t-130.5 65t-85 79t-50 77h-4v-213h-151zM260 532q0 -204 126 -321t321 -117q90 0 163 25.5
t121.5 67.5t81.5 99t47.5 118.5t14.5 127.5q0 198 -122 318.5t-306 120.5q-112 0 -199.5 -37.5t-140.5 -100.5t-80 -139.5t-27 -161.5z" />
    <glyph glyph-name="c" unicode="c" horiz-adv-x="1251" 
d="M1049 381h151q-10 -48 -29.5 -97t-61.5 -108.5t-98.5 -103.5t-147.5 -74.5t-201 -30.5q-283 0 -442 154.5t-159 410.5q0 121 38 223t111 179t189 120.5t263 43.5q105 0 192.5 -25t145 -64.5t100 -91.5t63.5 -101t29 -99h-152q-66 254 -378 254q-219 0 -334 -122.5
t-115 -316.5q0 -201 118 -319.5t331 -118.5q161 0 258.5 78t128.5 209z" />
    <glyph glyph-name="d" unicode="d" horiz-adv-x="1366" 
d="M1106 532q0 85 -27 161.5t-80 139.5t-140.5 100.5t-199.5 37.5q-184 0 -306 -120.5t-122 -318.5q0 -66 14.5 -127.5t47.5 -118.5t81.5 -99t121.5 -67.5t163 -25.5q195 0 321 117t126 321zM1098 0v213h-4q-17 -38 -50 -77t-85 -79t-130.5 -65t-169.5 -25q-126 0 -227 34
t-165.5 89.5t-107.5 130.5t-61 152t-18 159q0 114 35.5 214t104.5 180t182 126t257 46q146 0 263 -70t172 -176h4v623h151v-1475h-151z" />
    <glyph glyph-name="e" unicode="e" horiz-adv-x="1327" 
d="M231 610h877q-16 95 -57.5 166.5t-102 113t-130 61.5t-148.5 20q-76 0 -146.5 -20.5t-132.5 -62t-104.5 -113t-55.5 -165.5zM1081 340h152q-19 -59 -49 -111t-78.5 -101t-110 -84t-148 -56t-188.5 -21q-126 0 -227 34t-165.5 89.5t-107.5 130.5t-61 152t-18 159
q0 114 35.5 214t104.5 180t182 126t257 46q62 0 120 -8t119 -27.5t113 -49.5t98.5 -77.5t79.5 -108.5t52 -145.5t19 -185.5h-1029q0 -83 29.5 -156t83 -128t135 -86.5t180.5 -31.5q185 0 283 60t139 186z" />
    <glyph glyph-name="f" unicode="f" horiz-adv-x="645" 
d="M219 0v950h-231v115h231v141q0 147 72.5 208t226.5 61q64 0 170 -9v-127q-106 9 -141 9q-102 0 -139 -33t-37 -125v-125h301v-115h-301v-950h-152z" />
    <glyph glyph-name="g" unicode="g" horiz-adv-x="1366" 
d="M1106 555q0 85 -29.5 159.5t-85 132t-143 91t-197.5 33.5q-201 0 -319.5 -110.5t-118.5 -305.5q0 -113 34 -197.5t96 -134t142 -73t179 -23.5q193 0 317.5 115t124.5 313zM1102 858v207h151v-1024q0 -114 -36 -202t-93 -141.5t-137.5 -88t-161 -47.5t-170.5 -13
q-100 0 -182 13.5t-136 34.5t-95.5 53t-64 61t-38 66.5t-20.5 62.5t-8 56h139q6 -31 11 -49.5t18 -46t30 -44.5t47.5 -36.5t71 -30t100 -18t134.5 -7.5q212 0 326 98.5t114 288.5v191h-4q-23 -45 -60 -84.5t-93 -76.5t-138 -59t-180 -22q-70 0 -136 12.5t-130.5 38.5
t-118 70.5t-94.5 104t-64 144t-23 185.5q0 109 35.5 205t104.5 172.5t183 121t259 44.5q161 0 282 -61t173 -179h4z" />
    <glyph glyph-name="h" unicode="h" horiz-adv-x="1290" 
d="M117 0v1475h151v-619h4q38 95 157 168.5t284 73.5q129 0 220.5 -32t143 -93t74.5 -137.5t23 -176.5v-659h-152v686q0 285 -322 285q-217 0 -324.5 -103t-107.5 -290v-578h-151z" />
    <glyph glyph-name="i" unicode="i" horiz-adv-x="376" 
d="M113 0v1065h151v-1065h-151zM113 1249v226h151v-226h-151z" />
    <glyph glyph-name="j" unicode="j" horiz-adv-x="376" 
d="M-156 -444v127q58 -7 103 -7q98 0 132 37.5t34 124.5v1227h151v-1227q0 -289 -276 -289q-26 0 -79.5 3.5t-64.5 3.5zM113 1249v226h151v-226h-151z" />
    <glyph glyph-name="k" unicode="k" horiz-adv-x="1175" 
d="M117 0v1475h151v-928l650 518h225l-522 -403l561 -662h-201l-473 563l-240 -182v-381h-151z" />
    <glyph glyph-name="l" unicode="l" horiz-adv-x="376" 
d="M113 0v1475h151v-1475h-151z" />
    <glyph glyph-name="m" unicode="m" horiz-adv-x="2048" 
d="M1780 0v676q0 148 -77.5 221.5t-240.5 73.5q-172 0 -267 -92t-95 -250v-629h-152v721q0 108 -77.5 179t-225.5 71q-169 0 -273 -96t-104 -275v-600h-151v1065h151v-197h4q128 230 422 230q86 0 155.5 -21t114 -56.5t71.5 -74.5t40 -82q44 90 157 162t261 72
q217 0 327.5 -100t110.5 -271v-727h-151z" />
    <glyph glyph-name="n" unicode="n" horiz-adv-x="1290" 
d="M1022 0v686q0 285 -322 285q-217 0 -324.5 -103t-107.5 -290v-578h-151v1065h151v-209h4q38 95 157 168.5t284 73.5q129 0 220.5 -32t143 -93t74.5 -137.5t23 -176.5v-659h-152z" />
    <glyph glyph-name="o" unicode="o" 
d="M231 532q0 -196 121 -317t332 -121t332 121t121 317t-121 317.5t-332 121.5t-332 -121.5t-121 -317.5zM80 532q0 114 37.5 214.5t110 179.5t190 125.5t266.5 46.5t266.5 -46.5t190 -125.5t110 -179.5t37.5 -214.5t-37.5 -214t-110 -179.5t-190 -125.5t-266.5 -46
t-266.5 46t-190 125.5t-110 179.5t-37.5 214z" />
    <glyph glyph-name="p" unicode="p" horiz-adv-x="1366" 
d="M117 -414v1479h151v-213h4q112 246 435 246q126 0 227 -34t165.5 -90t107.5 -131t61 -152t18 -159q0 -114 -35.5 -214t-104.5 -179.5t-182 -125.5t-257 -46q-145 0 -262.5 70t-172.5 176h-4v-627h-151zM260 532q0 -85 27 -161.5t80 -139.5t140.5 -100t199.5 -37
q184 0 306 120t122 318q0 66 -14.5 127.5t-47.5 119t-81.5 99.5t-121.5 67.5t-163 25.5q-195 0 -321 -117.5t-126 -321.5z" />
    <glyph glyph-name="q" unicode="q" horiz-adv-x="1366" 
d="M1098 852v213h151v-1479h-151v627h-4q-55 -106 -172.5 -176t-262.5 -70q-144 0 -257 46t-182 125.5t-104.5 179.5t-35.5 214q0 80 20.5 158.5t66 152.5t110 130.5t160.5 90.5t210 34q93 0 174 -24t135 -62.5t88.5 -79t49.5 -80.5h4zM1106 532q0 204 -126 321.5
t-321 117.5q-90 0 -163 -25.5t-121.5 -67.5t-81.5 -99.5t-47.5 -119t-14.5 -127.5q0 -198 122 -318t306 -120q112 0 199.5 37t140.5 100t80 139.5t27 161.5z" />
    <glyph glyph-name="r" unicode="r" horiz-adv-x="757" 
d="M117 0v1065h151v-244h4q19 43 39.5 78t55.5 74t76.5 65t102.5 43t134 17q44 0 90 -8v-156q-71 12 -139 12q-66 0 -127 -21t-115.5 -66t-87.5 -126.5t-33 -189.5v-543h-151z" />
    <glyph glyph-name="s" unicode="s" horiz-adv-x="1138" 
d="M1049 750h-140q-28 126 -111.5 173.5t-254.5 47.5q-307 0 -307 -183q0 -34 11 -57t33.5 -40.5t72.5 -30.5t111 -23.5t167 -24.5q130 -17 210.5 -37t140.5 -54.5t85 -86.5t25 -129q0 -161 -129.5 -249.5t-376.5 -88.5q-539 0 -539 367h139q20 -134 108 -187t292 -53
q172 0 263 45t91 158q0 56 -33 89t-121 57t-254 40q-249 25 -348.5 91.5t-99.5 207.5q0 143 117.5 229.5t341.5 86.5q252 0 372 -87.5t134 -260.5z" />
    <glyph glyph-name="t" unicode="t" horiz-adv-x="720" 
d="M219 1065v336h152v-336h301v-115h-301v-704q0 -73 31.5 -104t119.5 -31q92 0 150 12v-127q-86 -12 -166 -12q-87 0 -144 16.5t-88 52t-43 81t-12 114.5v702h-231v115h231z" />
    <glyph glyph-name="u" unicode="u" horiz-adv-x="1290" 
d="M1022 0v209h-4q-38 -95 -156.5 -168.5t-283.5 -73.5q-129 0 -220.5 32t-143 93t-74.5 137.5t-23 176.5v659h151v-686q0 -285 322 -285q217 0 324.5 103t107.5 290v578h152v-1065h-152z" />
    <glyph glyph-name="v" unicode="v" horiz-adv-x="1138" 
d="M569 174l418 891h164l-500 -1065h-164l-499 1065h164z" />
    <glyph glyph-name="w" unicode="w" horiz-adv-x="1820" 
d="M1315 199l342 866h164l-432 -1065h-164l-322 852l-317 -852h-164l-422 1065h164l338 -872l321 872h164z" />
    <glyph glyph-name="x" unicode="x" horiz-adv-x="1175" 
d="M-6 0l489 553l-454 512h196l361 -406l358 406h199l-461 -512l500 -553h-201l-395 442l-393 -442h-199z" />
    <glyph glyph-name="y" unicode="y" horiz-adv-x="1138" 
d="M586 178l401 887h164l-578 -1264q-59 -127 -122.5 -171t-188.5 -44q-100 0 -145 4v127q66 -4 108 -4q84 0 129.5 27t81.5 104l70 148l-518 1073h164z" />
    <glyph glyph-name="z" unicode="z" horiz-adv-x="1138" 
d="M41 0v127l809 811h-762v127h979v-127l-825 -811h856v-127h-1057z" />
    <glyph glyph-name="braceleft" unicode="{" horiz-adv-x="720" 
d="M98 498v77q71 0 97 57.5t26 223.5v358q0 248 219 248h119v-78h-100q-50 0 -74.5 -36.5t-24.5 -133.5v-358q1 -146 -46.5 -223.5t-112.5 -93.5v-4q65 -16 112.5 -93.5t46.5 -224.5v-358q0 -97 24.5 -133.5t74.5 -36.5h100v-78h-119q-219 0 -219 248v358q0 166 -26 223.5
t-97 57.5z" />
    <glyph glyph-name="bar" unicode="|" horiz-adv-x="454" 
d="M176 -37v1536h103v-1536h-103z" />
    <glyph glyph-name="braceright" unicode="}" horiz-adv-x="720" 
d="M162 -389v78h100q50 0 74 36.5t24 133.5v358q-1 146 47 224t113 94v4q-65 16 -113 93.5t-47 223.5v358q0 97 -24 133.5t-74 36.5h-100v78h119q219 0 219 -248v-358q0 -166 26 -223.5t97 -57.5v-77q-71 0 -97 -57.5t-26 -223.5v-358q0 -248 -219 -248h-119z" />
    <glyph glyph-name="asciitilde" unicode="~" horiz-adv-x="1228" 
d="M1014 647l73 -74q-23 -32 -38.5 -52t-41 -46.5t-49.5 -41t-57 -25.5t-70 -11q-52 0 -99 17t-109 51q-128 72 -236 72q-61 0 -101.5 -41t-70.5 -107l-74 74q92 176 256 176q81 0 228 -66q12 -5 44 -19.5t48 -21t40.5 -15.5t42.5 -13t34 -4q29 0 55 11.5t49.5 36t38 44.5
t37.5 55z" />
    <glyph glyph-name="nbspace" unicode="&#xa0;" horiz-adv-x="569" 
 />
    <glyph glyph-name="exclamdown" unicode="&#xa1;" horiz-adv-x="606" 
d="M215 872v226h176v-226h-176zM221 -365v388l37 696h90l37 -696v-388h-164z" />
    <glyph glyph-name="cent" unicode="&#xa2;" 
d="M657 96v873q-100 -10 -176.5 -49t-122.5 -99.5t-69 -133t-23 -155.5q0 -187 101.5 -303t289.5 -133zM657 -254v223q-258 17 -400 169.5t-142 393.5q0 70 16.5 141t56.5 145.5t99.5 132.5t155.5 98.5t214 48.5v172h91v-172q98 -4 179.5 -31t135.5 -66t94 -89.5t60 -98.5
t28 -96h-151q-63 241 -346 254v-877q146 9 235.5 86t118.5 201h151q-10 -47 -28.5 -94t-58.5 -105t-93 -102t-137.5 -76t-187.5 -37v-221h-91z" />
    <glyph glyph-name="sterling" unicode="&#xa3;" 
d="M109 655v90h147q-33 58 -50.5 91.5t-32.5 82.5t-15 93q0 192 148 315t403 123q268 0 408 -125.5t140 -345.5h-151q0 93 -37 162.5t-98.5 107.5t-130.5 56t-144 18q-99 0 -185.5 -33.5t-144 -104.5t-57.5 -165q0 -51 19.5 -106.5t48 -107.5t31.5 -61h452v-90h-416
q41 -87 41 -190q0 -78 -64 -178t-147 -156l5 -4q141 57 231 57q50 0 215 -39q14 -3 53.5 -13t57 -14t43.5 -8t43 -4q126 0 301 134l51 -127q-41 -48 -145 -97t-207 -49q-80 0 -244 45t-227 45q-137 0 -285 -86l-72 117q101 69 176.5 173.5t75.5 211.5q0 52 -53 182h-184z
" />
    <glyph glyph-name="currency" unicode="&#xa4;" 
d="M1348 1255l-78 -122q-50 88 -148 137q-106 53 -266 53q-248 0 -369 -139q-39 -45 -67 -112.5t-39 -137.5h780l-57 -103h-737q-9 -111 0 -219h624l-57 -102h-557q20 -158 106 -266q38 -48 83 -79.5t93.5 -46t89 -19.5t89.5 -5q171 0 305 72q103 57 176 149v-176
q-70 -67 -156 -106q-68 -31 -159.5 -48.5t-174.5 -17.5q-302 0 -462 197q-54 65 -92 157t-50 189h-205l58 102h137q-9 108 0 219h-195l58 103h151q14 90 54.5 181t101.5 157q52 57 115.5 95.5t130.5 55t118 22t111 5.5q195 0 326 -64q93 -45 162 -131z" />
    <glyph glyph-name="yen" unicode="&#xa5;" 
d="M608 397v197l-16 22h-406v103h328l-528 698h176l522 -696l522 696h176l-528 -698h328v-103h-406l-16 -22v-197h422v-102h-422v-295h-152v295h-422v102h422z" />
    <glyph glyph-name="brokenbar" unicode="&#xa6;" horiz-adv-x="454" 
d="M176 -37v563h103v-563h-103zM176 936v563h103v-563h-103z" />
    <glyph glyph-name="section" unicode="&#xa7;" horiz-adv-x="1366" 
d="M199 35h151q4 -72 34 -125t80.5 -82.5t110 -43t130.5 -13.5q122 0 205 48.5t83 139.5q0 45 -20.5 81.5t-66 69.5t-95 58t-129.5 59l-262 113q-80 34 -132.5 63t-98.5 67t-67.5 85.5t-21.5 106.5q0 50 12.5 93t30 71.5t45 53.5t47.5 38.5t48.5 25.5t37 14.5t23.5 6.5
q-121 78 -121 206q0 66 22.5 122.5t71 104t135 74.5t203.5 27q101 0 184.5 -21t148.5 -64t101.5 -116t36.5 -170h-151q-1 30 -7.5 58.5t-27.5 63.5t-54 61t-93 43.5t-138 17.5q-133 0 -206.5 -45.5t-73.5 -130.5q0 -26 9.5 -49.5t22.5 -42t39.5 -38.5t47.5 -33.5t61 -32.5
t64.5 -29.5t72.5 -30.5l269 -113q76 -32 125 -59.5t93.5 -66.5t65.5 -90.5t21 -118.5q0 -41 -9.5 -77t-22.5 -61.5t-37 -48.5t-41.5 -36.5t-47.5 -28.5t-44.5 -21t-41.5 -16q18 -13 29 -21.5t31 -30t32 -43.5t21.5 -57.5t9.5 -75.5q0 -64 -26.5 -122t-78 -105.5t-138 -75.5
t-197.5 -28q-480 0 -506 391zM240 698q0 -46 18.5 -81t49.5 -60t94 -55t128.5 -57t179 -77.5t220.5 -103.5q18 0 48.5 11.5t64.5 34t58.5 65t24.5 94.5q0 39 -13 70.5t-46 61t-68 52t-102 53.5t-124 54.5t-157 65.5t-180 77q-20 -3 -50 -17t-64 -38t-58 -64t-24 -86z" />
    <glyph glyph-name="dieresis" unicode="&#xa8;" horiz-adv-x="376" 
d="M-119 1237v225h152v-225h-152zM344 1237v225h152v-225h-152z" />
    <glyph glyph-name="copyright" unicode="&#xa9;" horiz-adv-x="1638" 
d="M154 731q0 -186 87.5 -341.5t240.5 -246t337 -90.5q185 0 338.5 90.5t240.5 246.5t87 343q0 138 -51.5 262.5t-139.5 215.5t-212 144.5t-263 53.5q-184 0 -337 -91t-240.5 -246.5t-87.5 -340.5zM1118 573h115q-36 -148 -140.5 -238.5t-248.5 -90.5q-138 0 -245 64.5
t-163.5 175t-56.5 247.5q0 215 123 350.5t336 135.5q155 0 264.5 -85t130.5 -235h-115q-19 96 -93.5 156.5t-186.5 60.5q-162 0 -253 -107t-91 -276q0 -158 96 -271.5t254 -113.5q109 0 182.5 63.5t91.5 163.5zM51 731q0 209 103 385.5t279.5 279.5t385.5 103t385.5 -103
t279.5 -279.5t103 -385.5t-103 -385.5t-279.5 -279.5t-385.5 -103t-385.5 103t-279.5 279.5t-103 385.5z" />
    <glyph glyph-name="ordfeminine" unicode="&#xaa;" horiz-adv-x="813" 
d="M614 1051v79q-25 -17 -115.5 -29t-148.5 -16q-80 -5 -124 -20.5t-57 -36t-13 -55.5q0 -64 51.5 -92.5t130.5 -28.5q69 0 130.5 21t103.5 68t42 110zM823 885v-78q-72 -8 -94 -8q-29 0 -49 6.5t-31 15t-17 24.5t-7 27t-2 31h-5q-7 -20 -24.5 -39t-50.5 -41t-94 -35.5
t-140 -13.5q-48 0 -93 10.5t-85.5 32t-65 60.5t-24.5 90q0 104 89.5 152.5t270.5 56.5q95 4 139 11t59 20t15 40q0 61 -48 87t-169 26q-110 0 -165.5 -30t-59.5 -97h-102q8 70 39.5 116t104 73.5t187.5 27.5q168 0 242 -47.5t74 -142.5v-312q0 -39 12.5 -55t42.5 -16
q19 0 51 8z" />
    <glyph glyph-name="guillemotleft" unicode="&#xab;" horiz-adv-x="1024" 
d="M528 487v148l322 276v-157l-232 -193l232 -192v-158zM150 487v148l321 276v-157l-231 -193l231 -192v-158z" />
    <glyph glyph-name="logicalnot" unicode="&#xac;" horiz-adv-x="1228" 
d="M1030 221v445h-934v102h1037v-547h-103z" />
    <glyph glyph-name="registered" unicode="&#xae;" horiz-adv-x="1638" 
d="M51 731q0 209 103 385.5t279.5 279.5t385.5 103t385.5 -103t279.5 -279.5t103 -385.5t-103 -385.5t-279.5 -279.5t-385.5 -103t-385.5 103t-279.5 279.5t-103 385.5zM154 731q0 -186 87.5 -341.5t240.5 -246t337 -90.5q185 0 338.5 90.5t240.5 246.5t87 343
q0 138 -51.5 262.5t-139.5 215.5t-212 144.5t-263 53.5q-184 0 -337 -91t-240.5 -246.5t-87.5 -340.5zM1098 274l-269 406h-194v-406h-103v914h351q297 0 297 -254q0 -112 -64 -174.5t-166 -79.5l275 -406h-127zM635 1098v-328h227q101 0 158 36.5t57 129.5q0 162 -215 162
h-227z" />
    <glyph glyph-name="macron" unicode="&#xaf;" horiz-adv-x="376" 
d="M-207 1313v114h791v-114h-791z" />
    <glyph glyph-name="degree" unicode="&#xb0;" horiz-adv-x="819" 
d="M117 1157q0 121 85.5 207t207.5 86q121 0 206.5 -85.5t85.5 -207.5t-85.5 -207.5t-206.5 -85.5q-122 0 -207.5 86t-85.5 207zM207 1157q0 -85 59 -144t144 -59t143.5 59t58.5 144t-58.5 144t-143.5 59t-144 -59t-59 -144z" />
    <glyph glyph-name="plusminus" unicode="&#xb1;" horiz-adv-x="1228" 
d="M563 664v372h103v-372h467v-103h-467v-373h-103v373h-467v103h467zM96 0v102h1037v-102h-1037z" />
    <glyph glyph-name="twosuperior" unicode="&#xb2;" horiz-adv-x="888" 
d="M791 688v-102h-721q5 45 16.5 78t41.5 77t93 89.5t160 93.5q168 82 226.5 132.5t58.5 131.5q0 84 -56 128t-164 44q-70 0 -119 -19t-74.5 -53t-36 -69.5t-11.5 -77.5h-115q0 159 93 234t263 75q90 0 157.5 -23t104.5 -62t54.5 -83.5t17.5 -93.5q0 -101 -56 -164.5
t-159 -112.5q-205 -99 -272 -141t-84 -82h582z" />
    <glyph glyph-name="threesuperior" unicode="&#xb3;" horiz-adv-x="888" 
d="M381 991v90q16 -4 65 -4q107 0 162.5 31t55.5 106q0 68 -58.5 107t-148.5 39q-124 0 -185 -54t-61 -143h-115q3 126 94 206.5t267 80.5q63 0 118 -13t102 -40t74 -74t27 -109q0 -63 -46 -114t-126 -60v-4q90 -5 149.5 -62t59.5 -151q0 -70 -29.5 -122.5t-80.5 -82
t-110 -43.5t-126 -14q-196 0 -295.5 71t-99.5 226h114q0 -52 18 -90.5t45 -60.5t67 -35t76.5 -17t80.5 -4q113 0 169 51.5t56 116.5q0 38 -11.5 66.5t-36 46.5t-51 30t-67.5 17.5t-73 8t-80 3.5z" />
    <glyph glyph-name="acute" unicode="&#xb4;" horiz-adv-x="376" 
d="M57 1225l236 291h186l-297 -291h-125z" />
    <glyph glyph-name="mu" unicode="&#xb5;" horiz-adv-x="1290" 
d="M1022 0v209h-4q-38 -95 -156.5 -168.5t-283.5 -73.5q-210 0 -310 103v-484h-151v1479h151v-686q0 -76 26 -133t72.5 -89t102 -47.5t121.5 -15.5q217 0 324.5 103t107.5 290v578h152v-1065h-152z" />
    <glyph glyph-name="paragraph" unicode="&#xb6;" horiz-adv-x="1228" 
d="M510 -319v991q-178 0 -301 114.5t-123 274.5q0 192 120 296.5t337 104.5h444v-1781h-115v1691h-247v-1691h-115z" />
    <glyph glyph-name="periodcentered" unicode="&#xb7;" horiz-adv-x="569" 
d="M150 639q0 55 40 95t95 40t95 -40t40 -95t-40 -95t-95 -40t-95 40t-40 95z" />
    <glyph glyph-name="cedilla" unicode="&#xb8;" horiz-adv-x="376" 
d="M49 -160l117 164h84l-86 -117l4 -4q33 11 82 11q79 0 127.5 -38t48.5 -102q0 -65 -72 -110t-186 -45q-98 0 -203 34l25 72q105 -29 170 -29q139 0 139 78q0 38 -32 56t-74 18q-61 0 -109 -23z" />
    <glyph glyph-name="onesuperior" unicode="&#xb9;" horiz-adv-x="591" 
d="M299 586v626h-272v78h65q112 0 161 30t71 130h90v-864h-115z" />
    <glyph glyph-name="ordmasculine" unicode="&#xba;" horiz-adv-x="888" 
d="M166 1114q0 -115 75 -182.5t203 -67.5t203.5 67.5t75.5 182.5q0 112 -75.5 179t-203.5 67q-127 0 -202.5 -66.5t-75.5 -179.5zM51 1114q0 67 24.5 126.5t71.5 106.5t124 75t173 28q189 0 291.5 -98t102.5 -238q0 -143 -102.5 -241.5t-291.5 -98.5t-291 98.5t-102 241.5z
" />
    <glyph glyph-name="guillemotright" unicode="&#xbb;" horiz-adv-x="1024" 
d="M406 561l-232 193v157l322 -276v-148l-322 -276v158zM784 561l-231 193v157l321 -276v-148l-321 -276v158z" />
    <glyph glyph-name="onequarter" unicode="&#xbc;" horiz-adv-x="2048" 
d="M1671 293v420h-4l-369 -420h373zM1671 0v203h-487v90l499 571h103v-571h164v-90h-164v-203h-115zM360 -33l871 1483h127l-871 -1483h-127zM299 586v626h-272v78h65q112 0 161 30t71 130h90v-864h-115z" />
    <glyph glyph-name="onehalf" unicode="&#xbd;" horiz-adv-x="2048" 
d="M360 -33l871 1483h127l-871 -1483h-127zM299 586v626h-272v78h65q112 0 161 30t71 130h90v-864h-115zM1950 102v-102h-721q5 45 16.5 78t41.5 77t93 89.5t160 93.5q168 82 226.5 132.5t58.5 131.5q0 84 -55.5 128t-163.5 44q-70 0 -119.5 -19t-74.5 -52t-36 -67.5
t-12 -74.5h-115q0 155 94 229t263 74q73 0 131 -15.5t95 -41t62 -60t35 -70.5t10 -75q0 -101 -56 -164t-159 -112q-141 -68 -211.5 -106.5t-101.5 -64t-43 -53.5h582z" />
    <glyph glyph-name="threequarters" unicode="&#xbe;" horiz-adv-x="2048" 
d="M1671 293v420h-4l-369 -420h373zM1671 0v203h-487v90l499 571h103v-571h164v-90h-164v-203h-115zM569 -33l871 1483h127l-871 -1483h-127zM381 991v90q16 -4 65 -4q107 0 162.5 31t55.5 106q0 68 -58.5 107t-148.5 39q-124 0 -185 -54t-61 -143h-115q3 126 94 206.5
t267 80.5q63 0 118 -13t102 -40t74 -74t27 -109q0 -63 -46 -114t-126 -60v-4q90 -5 149.5 -62t59.5 -151q0 -70 -29.5 -122.5t-80.5 -82t-110 -43.5t-126 -14q-196 0 -295.5 71t-99.5 226h114q0 -52 18 -90.5t45 -60.5t67 -35t76.5 -17t80.5 -4q113 0 169 51.5t56 116.5
q0 38 -11.5 66.5t-36 46.5t-51 30t-67.5 17.5t-73 8t-80 3.5z" />
    <glyph glyph-name="questiondown" unicode="&#xbf;" horiz-adv-x="1327" 
d="M1065 92h152q0 -102 -33.5 -190.5t-98 -156.5t-167 -107t-232.5 -39q-105 0 -198 25t-168.5 75t-119.5 132.5t-44 188.5q0 70 16 122t57 101t87.5 87t132.5 98q47 33 76 55.5t51 46.5t32 39.5t16.5 42t7.5 47t1 60.5h139v-71t-7 -58t-10 -46t-23 -41.5t-30.5 -39.5
t-49 -44t-63 -50t-85.5 -64q-95 -72 -127 -106q-70 -77 -70 -179q0 -129 107 -205.5t272 -76.5q191 0 283.5 95.5t95.5 258.5zM791 1098v-226h-177v226h177z" />
    <glyph glyph-name="Agrave" unicode="&#xc0;" horiz-adv-x="1478" 
d="M1059 584l-322 727l-325 -727h647zM1315 0l-195 444h-770l-198 -444h-164l663 1462h176l664 -1462h-176zM635 1831l235 -291h-125l-296 291h186z" />
    <glyph glyph-name="Aacute" unicode="&#xc1;" horiz-adv-x="1478" 
d="M1059 584l-322 727l-325 -727h647zM1315 0l-195 444h-770l-198 -444h-164l663 1462h176l664 -1462h-176zM608 1540l236 291h186l-297 -291h-125z" />
    <glyph glyph-name="Acircumflex" unicode="&#xc2;" horiz-adv-x="1478" 
d="M1059 584l-322 727l-325 -727h647zM1315 0l-195 444h-770l-198 -444h-164l663 1462h176l664 -1462h-176zM365 1540l292 291h164l293 -291h-153l-222 207l-221 -207h-153z" />
    <glyph glyph-name="Atilde" unicode="&#xc3;" horiz-adv-x="1478" 
d="M1059 584l-322 727l-325 -727h647zM1315 0l-195 444h-770l-198 -444h-164l663 1462h176l664 -1462h-176zM1028 1796h90q-17 -91 -55 -143q-56 -78 -156 -78q-80 0 -184 53q-37 18 -56 26.5t-49.5 17.5t-56.5 9q-32 0 -54 -10t-33 -28t-15.5 -32.5t-7.5 -35.5h-91
q7 32 14 56.5t23.5 57.5t37.5 54.5t56.5 37t79.5 15.5q81 0 185 -53q37 -18 56 -26.5t49.5 -17.5t56.5 -9q32 0 54 10t33 28t15.5 32.5t7.5 35.5z" />
    <glyph glyph-name="Adieresis" unicode="&#xc4;" horiz-adv-x="1478" 
d="M1059 584l-322 727l-325 -727h647zM1315 0l-195 444h-770l-198 -444h-164l663 1462h176l664 -1462h-176zM432 1552v226h152v-226h-152zM895 1552v226h152v-226h-152z" />
    <glyph glyph-name="Aring" unicode="&#xc5;" horiz-adv-x="1478" 
d="M1059 584l-322 727l-325 -727h647zM1315 0l-195 444h-770l-198 -444h-164l663 1462h176l664 -1462h-176zM514 1726q0 93 66 159.5t159 66.5q91 0 158.5 -66.5t67.5 -159.5t-67 -159t-159 -66q-93 0 -159 66t-66 159zM592 1726q0 -62 43 -104.5t104 -42.5q62 0 105 43
t43 104q0 62 -43.5 105t-104.5 43t-104 -43t-43 -105z" />
    <glyph glyph-name="AE" unicode="&#xc6;" horiz-adv-x="2238" 
d="M1081 614v709h-108l-455 -709h563zM-47 0l938 1462h1274v-139h-932v-496h887v-139h-887v-549h942v-139h-1094v475h-649l-303 -475h-176z" />
    <glyph glyph-name="Ccedilla" unicode="&#xc7;" horiz-adv-x="1669" 
d="M1434 557h151q-12 -123 -68 -230.5t-146.5 -188t-221 -127.5t-283.5 -48l-55 -76l4 -4q33 11 82 11q79 0 127.5 -38t48.5 -102q0 -65 -72 -110t-186 -45q-98 0 -203 34l25 72q105 -29 170 -29q139 0 139 78q0 38 -32 56t-74 18q-61 0 -109 -23l-35 35l88 127
q-323 23 -511.5 228t-188.5 536q0 105 25.5 208.5t85 206t146.5 180t221.5 125.5t299.5 48q99 0 192.5 -17.5t182.5 -58.5t158 -101t117 -150.5t61 -202.5h-152q-16 101 -68.5 178t-129.5 122.5t-168 68t-193 22.5q-137 0 -249 -39t-193.5 -115.5t-126.5 -197t-45 -277.5
q0 -101 21 -191t68 -171t116.5 -139.5t174.5 -93t234 -34.5q489 0 572 455z" />
    <glyph glyph-name="Egrave" unicode="&#xc8;" horiz-adv-x="1402" 
d="M160 0v1462h1163v-139h-1012v-496h975v-139h-975v-549h1028v-139h-1179zM598 1831l236 -291h-125l-297 291h186z" />
    <glyph glyph-name="Eacute" unicode="&#xc9;" horiz-adv-x="1402" 
d="M160 0v1462h1163v-139h-1012v-496h975v-139h-975v-549h1028v-139h-1179zM571 1540l236 291h186l-297 -291h-125z" />
    <glyph glyph-name="Ecircumflex" unicode="&#xca;" horiz-adv-x="1402" 
d="M160 0v1462h1163v-139h-1012v-496h975v-139h-975v-549h1028v-139h-1179zM328 1540l293 291h163l293 -291h-153l-222 207l-221 -207h-153z" />
    <glyph glyph-name="Edieresis" unicode="&#xcb;" horiz-adv-x="1402" 
d="M160 0v1462h1163v-139h-1012v-496h975v-139h-975v-549h1028v-139h-1179zM395 1552v226h152v-226h-152zM858 1552v226h152v-226h-152z" />
    <glyph glyph-name="Igrave" unicode="&#xcc;" horiz-adv-x="454" 
d="M152 0v1462h151v-1462h-151zM123 1831l235 -291h-125l-296 291h186z" />
    <glyph glyph-name="Iacute" unicode="&#xcd;" horiz-adv-x="454" 
d="M152 0v1462h151v-1462h-151zM96 1540l236 291h186l-297 -291h-125z" />
    <glyph glyph-name="Icircumflex" unicode="&#xce;" horiz-adv-x="454" 
d="M152 0v1462h151v-1462h-151zM-147 1540l292 291h164l293 -291h-153l-222 207l-221 -207h-153z" />
    <glyph glyph-name="Idieresis" unicode="&#xcf;" horiz-adv-x="454" 
d="M152 0v1462h151v-1462h-151zM-80 1552v226h152v-226h-152zM383 1552v226h152v-226h-152z" />
    <glyph glyph-name="Eth" unicode="&#xd0;" horiz-adv-x="1593" 
d="M135 0v711h-135v114h135v637h711q316 0 481.5 -191.5t165.5 -539.5q0 -156 -40.5 -288.5t-117.5 -231.5t-197 -155t-270 -56h-733zM287 1323v-498h528v-114h-528v-572h553q82 0 152 18t133 61.5t107.5 110t70.5 169t26 233.5q0 294 -119.5 443t-369.5 149h-553z" />
    <glyph glyph-name="Ntilde" unicode="&#xd1;" horiz-adv-x="1630" 
d="M135 0v1462h182l1022 -1249h4v1249h152v-1462h-176l-1028 1249h-4v-1249h-152zM1104 1796h90q-17 -91 -55 -143q-56 -78 -156 -78q-80 0 -184 53q-37 18 -56 26.5t-49.5 17.5t-56.5 9q-32 0 -54 -10t-33.5 -28t-16 -33t-7.5 -35h-90q7 32 14 56.5t23.5 57.5t37.5 54.5
t56.5 37t79.5 15.5q80 0 184 -53q37 -18 56 -26.5t49.5 -17.5t56.5 -9q32 0 54 10t33.5 28t16 33t7.5 35z" />
    <glyph glyph-name="Ograve" unicode="&#xd2;" horiz-adv-x="1744" 
d="M78 731q0 151 42.5 277.5t117 216t175.5 152t217 92.5t242 30t242.5 -30t217.5 -92.5t175 -152t117 -216t43 -277.5t-43 -277.5t-117 -216t-175 -152t-217.5 -92.5t-242.5 -30t-242 30t-217 92.5t-175.5 152t-117 216t-42.5 277.5zM242 731q0 -128 34.5 -234t94 -178
t140.5 -122t171.5 -72.5t189.5 -22.5t189.5 22.5t171.5 72.5t140.5 122t94.5 178t35 234t-35 234t-94.5 178t-140.5 122t-171.5 72.5t-189.5 22.5t-189.5 -22.5t-171.5 -72.5t-140.5 -122t-94 -178t-34.5 -234zM768 1831l236 -291h-125l-297 291h186z" />
    <glyph glyph-name="Oacute" unicode="&#xd3;" horiz-adv-x="1744" 
d="M78 731q0 151 42.5 277.5t117 216t175.5 152t217 92.5t242 30t242.5 -30t217.5 -92.5t175 -152t117 -216t43 -277.5t-43 -277.5t-117 -216t-175 -152t-217.5 -92.5t-242.5 -30t-242 30t-217 92.5t-175.5 152t-117 216t-42.5 277.5zM242 731q0 -128 34.5 -234t94 -178
t140.5 -122t171.5 -72.5t189.5 -22.5t189.5 22.5t171.5 72.5t140.5 122t94.5 178t35 234t-35 234t-94.5 178t-140.5 122t-171.5 72.5t-189.5 22.5t-189.5 -22.5t-171.5 -72.5t-140.5 -122t-94 -178t-34.5 -234zM741 1540l236 291h186l-297 -291h-125z" />
    <glyph glyph-name="Ocircumflex" unicode="&#xd4;" horiz-adv-x="1744" 
d="M78 731q0 151 42.5 277.5t117 216t175.5 152t217 92.5t242 30t242.5 -30t217.5 -92.5t175 -152t117 -216t43 -277.5t-43 -277.5t-117 -216t-175 -152t-217.5 -92.5t-242.5 -30t-242 30t-217 92.5t-175.5 152t-117 216t-42.5 277.5zM242 731q0 -128 34.5 -234t94 -178
t140.5 -122t171.5 -72.5t189.5 -22.5t189.5 22.5t171.5 72.5t140.5 122t94.5 178t35 234t-35 234t-94.5 178t-140.5 122t-171.5 72.5t-189.5 22.5t-189.5 -22.5t-171.5 -72.5t-140.5 -122t-94 -178t-34.5 -234zM498 1540l293 291h163l293 -291h-153l-222 207l-221 -207h-153
z" />
    <glyph glyph-name="Otilde" unicode="&#xd5;" horiz-adv-x="1744" 
d="M78 731q0 151 42.5 277.5t117 216t175.5 152t217 92.5t242 30t242.5 -30t217.5 -92.5t175 -152t117 -216t43 -277.5t-43 -277.5t-117 -216t-175 -152t-217.5 -92.5t-242.5 -30t-242 30t-217 92.5t-175.5 152t-117 216t-42.5 277.5zM242 731q0 -128 34.5 -234t94 -178
t140.5 -122t171.5 -72.5t189.5 -22.5t189.5 22.5t171.5 72.5t140.5 122t94.5 178t35 234t-35 234t-94.5 178t-140.5 122t-171.5 72.5t-189.5 22.5t-189.5 -22.5t-171.5 -72.5t-140.5 -122t-94 -178t-34.5 -234zM1161 1796h90q-17 -91 -55 -143q-56 -78 -156 -78
q-80 0 -184 53q-37 18 -56 26.5t-49.5 17.5t-56.5 9q-32 0 -54 -10t-33 -28t-15.5 -32.5t-7.5 -35.5h-90q7 32 14 56.5t23.5 57.5t37.5 54.5t56.5 37t79.5 15.5q80 0 184 -53q37 -18 56 -26.5t49.5 -17.5t56.5 -9q32 0 54 10t33 28t15.5 32.5t7.5 35.5z" />
    <glyph glyph-name="Odieresis" unicode="&#xd6;" horiz-adv-x="1744" 
d="M78 731q0 151 42.5 277.5t117 216t175.5 152t217 92.5t242 30t242.5 -30t217.5 -92.5t175 -152t117 -216t43 -277.5t-43 -277.5t-117 -216t-175 -152t-217.5 -92.5t-242.5 -30t-242 30t-217 92.5t-175.5 152t-117 216t-42.5 277.5zM242 731q0 -128 34.5 -234t94 -178
t140.5 -122t171.5 -72.5t189.5 -22.5t189.5 22.5t171.5 72.5t140.5 122t94.5 178t35 234t-35 234t-94.5 178t-140.5 122t-171.5 72.5t-189.5 22.5t-189.5 -22.5t-171.5 -72.5t-140.5 -122t-94 -178t-34.5 -234zM565 1552v226h152v-226h-152zM1028 1552v226h152v-226h-152z
" />
    <glyph glyph-name="multiply" unicode="&#xd7;" horiz-adv-x="1228" 
d="M612 590l392 391l73 -74l-391 -389l391 -389l-73 -74l-392 391l-387 -391l-73 74l389 389l-389 389l73 74z" />
    <glyph glyph-name="Oslash" unicode="&#xd8;" horiz-adv-x="1744" 
d="M377 313l930 897q-86 75 -198.5 112.5t-236.5 37.5q-99 0 -189.5 -22.5t-171.5 -72.5t-140.5 -122t-94 -178t-34.5 -234q0 -257 135 -418zM1366 1149l-930 -897q169 -150 436 -150q99 0 189.5 22.5t171.5 72.5t140.5 122t94.5 178t35 234q0 258 -137 418zM78 25l188 182
q-188 207 -188 524q0 151 42.5 277.5t117 216t175.5 152t217 92.5t242 30q156 0 297.5 -46.5t247.5 -135.5l191 182l59 -61l-188 -181q188 -201 188 -526q0 -151 -43 -277.5t-117 -216t-175 -152t-217.5 -92.5t-242.5 -30q-156 0 -296.5 46.5t-247.5 137.5l-191 -184z" />
    <glyph glyph-name="Ugrave" unicode="&#xd9;" horiz-adv-x="1593" 
d="M1450 1462v-897q0 -64 -5.5 -118t-23 -117.5t-46 -114t-78.5 -99t-117 -81t-164.5 -52.5t-218.5 -20t-219 20t-165 52.5t-117 81t-78.5 99t-46 114t-23 118t-5.5 117.5v897h152v-897q0 -111 28.5 -195t74.5 -134t113.5 -81t135.5 -42t150 -11t150 11t135.5 42t113 81
t74 134t28.5 195v897h152zM692 1831l236 -291h-125l-297 291h186z" />
    <glyph glyph-name="Uacute" unicode="&#xda;" horiz-adv-x="1593" 
d="M1450 1462v-897q0 -64 -5.5 -118t-23 -117.5t-46 -114t-78.5 -99t-117 -81t-164.5 -52.5t-218.5 -20t-219 20t-165 52.5t-117 81t-78.5 99t-46 114t-23 118t-5.5 117.5v897h152v-897q0 -111 28.5 -195t74.5 -134t113.5 -81t135.5 -42t150 -11t150 11t135.5 42t113 81
t74 134t28.5 195v897h152zM666 1540l235 291h186l-296 -291h-125z" />
    <glyph glyph-name="Ucircumflex" unicode="&#xdb;" horiz-adv-x="1593" 
d="M1450 1462v-897q0 -64 -5.5 -118t-23 -117.5t-46 -114t-78.5 -99t-117 -81t-164.5 -52.5t-218.5 -20t-219 20t-165 52.5t-117 81t-78.5 99t-46 114t-23 118t-5.5 117.5v897h152v-897q0 -111 28.5 -195t74.5 -134t113.5 -81t135.5 -42t150 -11t150 11t135.5 42t113 81
t74 134t28.5 195v897h152zM422 1540l293 291h164l292 -291h-153l-221 207l-222 -207h-153z" />
    <glyph glyph-name="Udieresis" unicode="&#xdc;" horiz-adv-x="1593" 
d="M1450 1462v-897q0 -64 -5.5 -118t-23 -117.5t-46 -114t-78.5 -99t-117 -81t-164.5 -52.5t-218.5 -20t-219 20t-165 52.5t-117 81t-78.5 99t-46 114t-23 118t-5.5 117.5v897h152v-897q0 -111 28.5 -195t74.5 -134t113.5 -81t135.5 -42t150 -11t150 11t135.5 42t113 81
t74 134t28.5 195v897h152zM489 1552v226h152v-226h-152zM952 1552v226h152v-226h-152z" />
    <glyph glyph-name="Yacute" unicode="&#xdd;" horiz-adv-x="1404" 
d="M627 0v614l-658 848h197l536 -696l537 696h197l-658 -848v-614h-151zM571 1540l236 291h186l-297 -291h-125z" />
    <glyph glyph-name="Thorn" unicode="&#xde;" horiz-adv-x="1441" 
d="M311 1057v-570h586q180 0 254 74.5t74 212.5q0 155 -77.5 219t-219.5 64h-617zM160 0v1462h151v-266h637q70 0 132.5 -14t119.5 -46t98.5 -79.5t66 -120t24.5 -162.5q0 -207 -131.5 -316.5t-376.5 -109.5h-570v-348h-151z" />
    <glyph glyph-name="germandbls" unicode="&#xdf;" horiz-adv-x="1290" 
d="M545 735v133q60 -6 84 -6q342 0 342 242q0 85 -50 141.5t-124 79.5t-168 23q-105 0 -177 -22.5t-111.5 -66.5t-56 -99t-16.5 -130v-1030h-151v1036q0 216 123 327.5t389 111.5q114 0 203 -24t142.5 -61t88 -87.5t47 -98.5t12.5 -98q0 -117 -68 -190.5t-177 -98.5v-4
q21 -4 40 -8.5t53 -18t62 -31.5t60 -50t53.5 -71.5t36 -98.5t14.5 -129q0 -199 -136 -319t-376 -120q-40 0 -156 17v125q84 -15 131 -15q187 0 286 92.5t99 239.5q0 166 -107.5 237.5t-315.5 71.5h-76z" />
    <glyph glyph-name="agrave" unicode="&#xe0;" horiz-adv-x="1251" 
d="M965 412v161q-44 -28 -118.5 -40t-294.5 -33q-39 -4 -60 -6q-138 -13 -208.5 -59t-70.5 -138q0 -215 307 -215q79 0 156.5 21.5t142.5 61t105.5 104t40.5 143.5zM248 737h-139q9 88 38 151.5t86.5 112t153 73t229.5 24.5q260 0 374 -78.5t114 -237.5v-557q0 -65 19.5 -92
t64.5 -27q12 0 80 5v-103q-83 -16 -127 -16t-75.5 12.5t-48 29t-26 45t-11.5 49t-3 52.5h-4q-20 -29 -36.5 -50t-58.5 -54.5t-91 -54.5t-131 -37.5t-181 -16.5q-73 0 -142 17t-132 52.5t-101.5 100t-38.5 150.5q0 60 18 108.5t46 82t72.5 58.5t87 39.5t101 24.5t103 14
t103.5 7q88 5 143.5 9.5t100 12t67.5 16.5t38.5 24.5t19.5 33t4 45.5q0 114 -81.5 161.5t-271.5 47.5q-183 0 -270 -54t-94 -180zM522 1516l236 -291h-125l-297 291h186z" />
    <glyph glyph-name="aacute" unicode="&#xe1;" horiz-adv-x="1251" 
d="M965 412v161q-44 -28 -118.5 -40t-294.5 -33q-39 -4 -60 -6q-138 -13 -208.5 -59t-70.5 -138q0 -215 307 -215q79 0 156.5 21.5t142.5 61t105.5 104t40.5 143.5zM248 737h-139q9 88 38 151.5t86.5 112t153 73t229.5 24.5q260 0 374 -78.5t114 -237.5v-557q0 -65 19.5 -92
t64.5 -27q12 0 80 5v-103q-83 -16 -127 -16t-75.5 12.5t-48 29t-26 45t-11.5 49t-3 52.5h-4q-20 -29 -36.5 -50t-58.5 -54.5t-91 -54.5t-131 -37.5t-181 -16.5q-73 0 -142 17t-132 52.5t-101.5 100t-38.5 150.5q0 60 18 108.5t46 82t72.5 58.5t87 39.5t101 24.5t103 14
t103.5 7q88 5 143.5 9.5t100 12t67.5 16.5t38.5 24.5t19.5 33t4 45.5q0 114 -81.5 161.5t-271.5 47.5q-183 0 -270 -54t-94 -180zM496 1225l235 291h187l-297 -291h-125z" />
    <glyph glyph-name="acircumflex" unicode="&#xe2;" horiz-adv-x="1251" 
d="M965 412v161q-44 -28 -118.5 -40t-294.5 -33q-39 -4 -60 -6q-138 -13 -208.5 -59t-70.5 -138q0 -215 307 -215q79 0 156.5 21.5t142.5 61t105.5 104t40.5 143.5zM248 737h-139q9 88 38 151.5t86.5 112t153 73t229.5 24.5q260 0 374 -78.5t114 -237.5v-557q0 -65 19.5 -92
t64.5 -27q12 0 80 5v-103q-83 -16 -127 -16t-75.5 12.5t-48 29t-26 45t-11.5 49t-3 52.5h-4q-20 -29 -36.5 -50t-58.5 -54.5t-91 -54.5t-131 -37.5t-181 -16.5q-73 0 -142 17t-132 52.5t-101.5 100t-38.5 150.5q0 60 18 108.5t46 82t72.5 58.5t87 39.5t101 24.5t103 14
t103.5 7q88 5 143.5 9.5t100 12t67.5 16.5t38.5 24.5t19.5 33t4 45.5q0 114 -81.5 161.5t-271.5 47.5q-183 0 -270 -54t-94 -180zM252 1225l293 291h164l292 -291h-153l-221 207l-221 -207h-154z" />
    <glyph glyph-name="atilde" unicode="&#xe3;" horiz-adv-x="1251" 
d="M965 412v161q-44 -28 -118.5 -40t-294.5 -33q-39 -4 -60 -6q-138 -13 -208.5 -59t-70.5 -138q0 -215 307 -215q79 0 156.5 21.5t142.5 61t105.5 104t40.5 143.5zM248 737h-139q9 88 38 151.5t86.5 112t153 73t229.5 24.5q260 0 374 -78.5t114 -237.5v-557q0 -65 19.5 -92
t64.5 -27q12 0 80 5v-103q-83 -16 -127 -16t-75.5 12.5t-48 29t-26 45t-11.5 49t-3 52.5h-4q-20 -29 -36.5 -50t-58.5 -54.5t-91 -54.5t-131 -37.5t-181 -16.5q-73 0 -142 17t-132 52.5t-101.5 100t-38.5 150.5q0 60 18 108.5t46 82t72.5 58.5t87 39.5t101 24.5t103 14
t103.5 7q88 5 143.5 9.5t100 12t67.5 16.5t38.5 24.5t19.5 33t4 45.5q0 114 -81.5 161.5t-271.5 47.5q-183 0 -270 -54t-94 -180zM915 1481h91q-17 -91 -56 -144q-56 -77 -155 -77q-81 0 -185 53q-38 19 -56 27t-48.5 17t-56.5 9q-32 0 -54 -10t-33.5 -28t-16 -33t-7.5 -35
h-90q7 32 14 56.5t23.5 57.5t37.5 54.5t56.5 37t79.5 15.5q78 0 184 -54q37 -18 56 -26.5t49.5 -17.5t56.5 -9q32 0 54 10t33 28.5t15.5 33t7.5 35.5z" />
    <glyph glyph-name="adieresis" unicode="&#xe4;" horiz-adv-x="1251" 
d="M965 412v161q-44 -28 -118.5 -40t-294.5 -33q-39 -4 -60 -6q-138 -13 -208.5 -59t-70.5 -138q0 -215 307 -215q79 0 156.5 21.5t142.5 61t105.5 104t40.5 143.5zM248 737h-139q9 88 38 151.5t86.5 112t153 73t229.5 24.5q260 0 374 -78.5t114 -237.5v-557q0 -65 19.5 -92
t64.5 -27q12 0 80 5v-103q-83 -16 -127 -16t-75.5 12.5t-48 29t-26 45t-11.5 49t-3 52.5h-4q-20 -29 -36.5 -50t-58.5 -54.5t-91 -54.5t-131 -37.5t-181 -16.5q-73 0 -142 17t-132 52.5t-101.5 100t-38.5 150.5q0 60 18 108.5t46 82t72.5 58.5t87 39.5t101 24.5t103 14
t103.5 7q88 5 143.5 9.5t100 12t67.5 16.5t38.5 24.5t19.5 33t4 45.5q0 114 -81.5 161.5t-271.5 47.5q-183 0 -270 -54t-94 -180zM319 1237v225h152v-225h-152zM782 1237v225h152v-225h-152z" />
    <glyph glyph-name="aring" unicode="&#xe5;" horiz-adv-x="1251" 
d="M965 412v161q-44 -28 -118.5 -40t-294.5 -33q-39 -4 -60 -6q-138 -13 -208.5 -59t-70.5 -138q0 -215 307 -215q79 0 156.5 21.5t142.5 61t105.5 104t40.5 143.5zM248 737h-139q9 88 38 151.5t86.5 112t153 73t229.5 24.5q260 0 374 -78.5t114 -237.5v-557q0 -65 19.5 -92
t64.5 -27q12 0 80 5v-103q-83 -16 -127 -16t-75.5 12.5t-48 29t-26 45t-11.5 49t-3 52.5h-4q-20 -29 -36.5 -50t-58.5 -54.5t-91 -54.5t-131 -37.5t-181 -16.5q-73 0 -142 17t-132 52.5t-101.5 100t-38.5 150.5q0 60 18 108.5t46 82t72.5 58.5t87 39.5t101 24.5t103 14
t103.5 7q88 5 143.5 9.5t100 12t67.5 16.5t38.5 24.5t19.5 33t4 45.5q0 114 -81.5 161.5t-271.5 47.5q-183 0 -270 -54t-94 -180zM401 1411q0 93 66.5 159t159.5 66q91 0 158 -66t67 -159t-67 -159t-158 -66q-93 0 -159.5 66t-66.5 159zM479 1411q0 -61 43 -104t105 -43
q61 0 104 43t43 104q0 62 -43 105t-104 43t-104.5 -43.5t-43.5 -104.5z" />
    <glyph glyph-name="ae" unicode="&#xe6;" horiz-adv-x="2199" 
d="M2126 496h-1010q2 -181 114 -291.5t306 -110.5q178 0 274.5 60.5t135.5 185.5h151q-24 -75 -66 -138.5t-107.5 -118t-165 -85.5t-222.5 -31q-200 0 -329 85t-169 202q-16 -39 -40 -74.5t-69.5 -75.5t-103 -69.5t-145.5 -48.5t-193 -19q-73 0 -142 17t-132 52.5t-101 100
t-38 150.5q0 60 18 108.5t45.5 82t72.5 58.5t87 39.5t100.5 24.5t103 14t103.5 7q88 5 143.5 9.5t100 12t67.5 16.5t38.5 24.5t19.5 33t4 45.5q0 114 -81.5 161.5t-270.5 47.5q-183 0 -270.5 -54t-94.5 -180h-139q9 87 38.5 151t87 112.5t153 73t229.5 24.5q151 0 245.5 -27
t142 -73.5t77.5 -125.5q70 113 183 169.5t249 56.5q62 0 120 -8t119 -27.5t112.5 -49.5t98.5 -77.5t79.5 -108.5t51.5 -145.5t19 -185.5zM1116 610h858q-16 95 -57.5 166.5t-102 113t-130 61.5t-148.5 20q-186 0 -294 -97t-126 -264zM977 412v161q-44 -28 -118.5 -40
t-294.5 -33q-39 -4 -60 -6q-138 -13 -208.5 -59t-70.5 -138q0 -215 307 -215q79 0 156.5 21.5t142.5 61t105.5 104t40.5 143.5z" />
    <glyph glyph-name="ccedilla" unicode="&#xe7;" horiz-adv-x="1251" 
d="M1049 381h151q-10 -48 -29.5 -97t-61.5 -108.5t-98.5 -103.5t-147.5 -74.5t-201 -30.5h-3l-57 -80l4 -4q33 11 82 11q79 0 127.5 -38t48.5 -102q0 -65 -72 -110t-186 -45q-98 0 -203 34l25 72q105 -29 170 -29q139 0 139 78q0 38 -32 56t-74 18q-61 0 -109 -23l-35 35
l95 133q-248 21 -384.5 172t-136.5 387q0 121 38 223t111 179t189 120.5t263 43.5q105 0 192.5 -25t145 -64.5t100 -91.5t63.5 -101t29 -99h-152q-66 254 -378 254q-219 0 -334 -122.5t-115 -316.5q0 -201 118 -319.5t331 -118.5q161 0 258.5 78t128.5 209z" />
    <glyph glyph-name="egrave" unicode="&#xe8;" horiz-adv-x="1327" 
d="M231 610h877q-16 95 -57.5 166.5t-102 113t-130 61.5t-148.5 20q-76 0 -146.5 -20.5t-132.5 -62t-104.5 -113t-55.5 -165.5zM1081 340h152q-19 -59 -49 -111t-78.5 -101t-110 -84t-148 -56t-188.5 -21q-126 0 -227 34t-165.5 89.5t-107.5 130.5t-61 152t-18 159
q0 114 35.5 214t104.5 180t182 126t257 46q62 0 120 -8t119 -27.5t113 -49.5t98.5 -77.5t79.5 -108.5t52 -145.5t19 -185.5h-1029q0 -83 29.5 -156t83 -128t135 -86.5t180.5 -31.5q185 0 283 60t139 186zM559 1516l236 -291h-125l-297 291h186z" />
    <glyph glyph-name="eacute" unicode="&#xe9;" horiz-adv-x="1327" 
d="M231 610h877q-16 95 -57.5 166.5t-102 113t-130 61.5t-148.5 20q-76 0 -146.5 -20.5t-132.5 -62t-104.5 -113t-55.5 -165.5zM1081 340h152q-19 -59 -49 -111t-78.5 -101t-110 -84t-148 -56t-188.5 -21q-126 0 -227 34t-165.5 89.5t-107.5 130.5t-61 152t-18 159
q0 114 35.5 214t104.5 180t182 126t257 46q62 0 120 -8t119 -27.5t113 -49.5t98.5 -77.5t79.5 -108.5t52 -145.5t19 -185.5h-1029q0 -83 29.5 -156t83 -128t135 -86.5t180.5 -31.5q185 0 283 60t139 186zM532 1225l236 291h186l-297 -291h-125z" />
    <glyph glyph-name="ecircumflex" unicode="&#xea;" horiz-adv-x="1327" 
d="M231 610h877q-16 95 -57.5 166.5t-102 113t-130 61.5t-148.5 20q-76 0 -146.5 -20.5t-132.5 -62t-104.5 -113t-55.5 -165.5zM1081 340h152q-19 -59 -49 -111t-78.5 -101t-110 -84t-148 -56t-188.5 -21q-126 0 -227 34t-165.5 89.5t-107.5 130.5t-61 152t-18 159
q0 114 35.5 214t104.5 180t182 126t257 46q62 0 120 -8t119 -27.5t113 -49.5t98.5 -77.5t79.5 -108.5t52 -145.5t19 -185.5h-1029q0 -83 29.5 -156t83 -128t135 -86.5t180.5 -31.5q185 0 283 60t139 186zM289 1225l293 291h163l293 -291h-153l-221 207l-222 -207h-153z" />
    <glyph glyph-name="edieresis" unicode="&#xeb;" horiz-adv-x="1327" 
d="M231 610h877q-16 95 -57.5 166.5t-102 113t-130 61.5t-148.5 20q-76 0 -146.5 -20.5t-132.5 -62t-104.5 -113t-55.5 -165.5zM1081 340h152q-19 -59 -49 -111t-78.5 -101t-110 -84t-148 -56t-188.5 -21q-126 0 -227 34t-165.5 89.5t-107.5 130.5t-61 152t-18 159
q0 114 35.5 214t104.5 180t182 126t257 46q62 0 120 -8t119 -27.5t113 -49.5t98.5 -77.5t79.5 -108.5t52 -145.5t19 -185.5h-1029q0 -83 29.5 -156t83 -128t135 -86.5t180.5 -31.5q185 0 283 60t139 186zM356 1237v225h152v-225h-152zM819 1237v225h152v-225h-152z" />
    <glyph glyph-name="igrave" unicode="&#xec;" horiz-adv-x="376" 
d="M113 0v1065h151v-1065h-151zM84 1516l235 -291h-124l-297 291h186z" />
    <glyph glyph-name="iacute" unicode="&#xed;" horiz-adv-x="376" 
d="M113 0v1065h151v-1065h-151zM57 1225l236 291h186l-297 -291h-125z" />
    <glyph glyph-name="icircumflex" unicode="&#xee;" horiz-adv-x="376" 
d="M113 0v1065h151v-1065h-151zM-186 1225l292 291h164l293 -291h-153l-222 207l-221 -207h-153z" />
    <glyph glyph-name="idieresis" unicode="&#xef;" horiz-adv-x="376" 
d="M113 0v1065h151v-1065h-151zM-119 1237v225h152v-225h-152zM344 1237v225h152v-225h-152z" />
    <glyph glyph-name="eth" unicode="&#xf0;" 
d="M1137 532q0 196 -121 317.5t-332 121.5t-332 -121.5t-121 -317.5t121 -317t332 -121t332 121t121 317zM80 532q0 114 37.5 214.5t110 179.5t190 125.5t266.5 46.5q109 0 208.5 -43t168.5 -135h6q-158 283 -397 401l-252 -117l-66 53l232 107q-90 51 -240 98l105 82
q147 -43 276 -117l246 113l61 -55l-231 -107q120 -68 216 -173.5t153.5 -219.5t87.5 -226t30 -208q0 -44 -6.5 -91t-24.5 -105t-46 -111t-75.5 -104.5t-108.5 -89t-149.5 -60.5t-193.5 -23q-149 0 -266.5 46t-190 125.5t-110 179.5t-37.5 214z" />
    <glyph glyph-name="ntilde" unicode="&#xf1;" horiz-adv-x="1290" 
d="M1022 0v686q0 285 -322 285q-217 0 -324.5 -103t-107.5 -290v-578h-151v1065h151v-209h4q38 95 157 168.5t284 73.5q129 0 220.5 -32t143 -93t74.5 -137.5t23 -176.5v-659h-152zM934 1481h90q-17 -92 -55 -144q-56 -77 -156 -77q-80 0 -184 53q-37 18 -56 26.5
t-49.5 17.5t-56.5 9q-32 0 -54 -10t-33.5 -28t-16 -33t-7.5 -35h-90q7 32 14 56.5t23.5 57.5t37.5 54.5t56.5 37t79.5 15.5q79 0 185 -54q38 -19 56 -27t48.5 -17t56.5 -9q32 0 54 10t33.5 28t16 33.5t7.5 35.5z" />
    <glyph glyph-name="ograve" unicode="&#xf2;" 
d="M231 532q0 -196 121 -317t332 -121t332 121t121 317t-121 317.5t-332 121.5t-332 -121.5t-121 -317.5zM80 532q0 114 37.5 214.5t110 179.5t190 125.5t266.5 46.5t266.5 -46.5t190 -125.5t110 -179.5t37.5 -214.5t-37.5 -214t-110 -179.5t-190 -125.5t-266.5 -46
t-266.5 46t-190 125.5t-110 179.5t-37.5 214zM580 1516l235 -291h-125l-297 291h187z" />
    <glyph glyph-name="oacute" unicode="&#xf3;" 
d="M231 532q0 -196 121 -317t332 -121t332 121t121 317t-121 317.5t-332 121.5t-332 -121.5t-121 -317.5zM80 532q0 114 37.5 214.5t110 179.5t190 125.5t266.5 46.5t266.5 -46.5t190 -125.5t110 -179.5t37.5 -214.5t-37.5 -214t-110 -179.5t-190 -125.5t-266.5 -46
t-266.5 46t-190 125.5t-110 179.5t-37.5 214zM553 1225l235 291h187l-297 -291h-125z" />
    <glyph glyph-name="ocircumflex" unicode="&#xf4;" 
d="M231 532q0 -196 121 -317t332 -121t332 121t121 317t-121 317.5t-332 121.5t-332 -121.5t-121 -317.5zM80 532q0 114 37.5 214.5t110 179.5t190 125.5t266.5 46.5t266.5 -46.5t190 -125.5t110 -179.5t37.5 -214.5t-37.5 -214t-110 -179.5t-190 -125.5t-266.5 -46
t-266.5 46t-190 125.5t-110 179.5t-37.5 214zM309 1225l293 291h164l293 -291h-154l-221 207l-221 -207h-154z" />
    <glyph glyph-name="otilde" unicode="&#xf5;" 
d="M231 532q0 -196 121 -317t332 -121t332 121t121 317t-121 317.5t-332 121.5t-332 -121.5t-121 -317.5zM80 532q0 114 37.5 214.5t110 179.5t190 125.5t266.5 46.5t266.5 -46.5t190 -125.5t110 -179.5t37.5 -214.5t-37.5 -214t-110 -179.5t-190 -125.5t-266.5 -46
t-266.5 46t-190 125.5t-110 179.5t-37.5 214zM973 1481h90q-17 -92 -55 -144q-56 -77 -156 -77q-80 0 -184 53q-37 18 -56 26.5t-49.5 17.5t-56.5 9q-32 0 -54 -10t-33.5 -28t-16 -33t-7.5 -35h-90q7 32 14 56.5t23.5 57.5t37.5 54.5t56.5 37t79.5 15.5q78 0 184 -54
q37 -18 56 -26.5t49.5 -17.5t56.5 -9q32 0 54 10t33.5 28t16 33.5t7.5 35.5z" />
    <glyph glyph-name="odieresis" unicode="&#xf6;" 
d="M231 532q0 -196 121 -317t332 -121t332 121t121 317t-121 317.5t-332 121.5t-332 -121.5t-121 -317.5zM80 532q0 114 37.5 214.5t110 179.5t190 125.5t266.5 46.5t266.5 -46.5t190 -125.5t110 -179.5t37.5 -214.5t-37.5 -214t-110 -179.5t-190 -125.5t-266.5 -46
t-266.5 46t-190 125.5t-110 179.5t-37.5 214zM377 1237v225h151v-225h-151zM840 1237v225h151v-225h-151z" />
    <glyph glyph-name="divide" unicode="&#xf7;" horiz-adv-x="1228" 
d="M96 467v102h1037v-102h-1037zM502 940q0 46 33 79.5t79 33.5t79.5 -33.5t33.5 -79.5t-33.5 -79.5t-79.5 -33.5t-79 33.5t-33 79.5zM502 96q0 46 33 79.5t79 33.5t79.5 -33.5t33.5 -79.5t-33.5 -79t-79.5 -33t-79 33t-33 79z" />
    <glyph glyph-name="oslash" unicode="&#xf8;" 
d="M326 248l667 620q-119 103 -309 103q-211 0 -332 -121.5t-121 -317.5q0 -166 95 -284zM80 20l139 130q-139 154 -139 382q0 114 37.5 214.5t110 179.5t190 125.5t266.5 46.5q258 0 414 -133l141 133l49 -54l-139 -129q139 -151 139 -383q0 -114 -37.5 -214t-110 -179.5
t-190 -125.5t-266.5 -46q-255 0 -414 133l-141 -133zM1042 817l-667 -620q115 -103 309 -103q211 0 332 121t121 317q0 170 -95 285z" />
    <glyph glyph-name="ugrave" unicode="&#xf9;" horiz-adv-x="1290" 
d="M1022 0v209h-4q-38 -95 -156.5 -168.5t-283.5 -73.5q-129 0 -220.5 32t-143 93t-74.5 137.5t-23 176.5v659h151v-686q0 -285 322 -285q217 0 324.5 103t107.5 290v578h152v-1065h-152zM541 1516l235 -291h-125l-297 291h187z" />
    <glyph glyph-name="uacute" unicode="&#xfa;" horiz-adv-x="1290" 
d="M1022 0v209h-4q-38 -95 -156.5 -168.5t-283.5 -73.5q-129 0 -220.5 32t-143 93t-74.5 137.5t-23 176.5v659h151v-686q0 -285 322 -285q217 0 324.5 103t107.5 290v578h152v-1065h-152zM514 1225l236 291h186l-297 -291h-125z" />
    <glyph glyph-name="ucircumflex" unicode="&#xfb;" horiz-adv-x="1290" 
d="M1022 0v209h-4q-38 -95 -156.5 -168.5t-283.5 -73.5q-129 0 -220.5 32t-143 93t-74.5 137.5t-23 176.5v659h151v-686q0 -285 322 -285q217 0 324.5 103t107.5 290v578h152v-1065h-152zM270 1225l293 291h164l293 -291h-154l-221 207l-221 -207h-154z" />
    <glyph glyph-name="udieresis" unicode="&#xfc;" horiz-adv-x="1290" 
d="M1022 0v209h-4q-38 -95 -156.5 -168.5t-283.5 -73.5q-129 0 -220.5 32t-143 93t-74.5 137.5t-23 176.5v659h151v-686q0 -285 322 -285q217 0 324.5 103t107.5 290v578h152v-1065h-152zM338 1237v225h151v-225h-151zM801 1237v225h151v-225h-151z" />
    <glyph glyph-name="yacute" unicode="&#xfd;" horiz-adv-x="1138" 
d="M586 178l401 887h164l-578 -1264q-59 -127 -122.5 -171t-188.5 -44q-100 0 -145 4v127q66 -4 108 -4q84 0 129.5 27t81.5 104l70 148l-518 1073h164zM438 1225l236 291h186l-297 -291h-125z" />
    <glyph glyph-name="thorn" unicode="&#xfe;" horiz-adv-x="1366" 
d="M117 -414v1889h151v-623h4q18 35 35.5 61t54 63.5t80 61.5t113 42t152.5 18q126 0 227 -34t165.5 -90t107.5 -131t61 -152t18 -159q0 -114 -35.5 -214t-104.5 -179.5t-182 -125.5t-257 -46q-145 0 -262.5 70t-172.5 176h-4v-627h-151zM260 532q0 -85 27 -161.5t80 -139.5
t140.5 -100t199.5 -37q184 0 306 120t122 318q0 66 -14.5 127.5t-47.5 119t-81.5 99.5t-121.5 67.5t-163 25.5q-195 0 -321 -117.5t-126 -321.5z" />
    <glyph glyph-name="ydieresis" unicode="&#xff;" horiz-adv-x="1138" 
d="M586 178l401 887h164l-578 -1264q-59 -127 -122.5 -171t-188.5 -44q-100 0 -145 4v127q66 -4 108 -4q84 0 129.5 27t81.5 104l70 148l-518 1073h164zM262 1237v225h152v-225h-152zM725 1237v225h152v-225h-152z" />
    <glyph glyph-name="dotlessi" unicode="&#x131;" horiz-adv-x="376" 
d="M113 0v1065h151v-1065h-151z" />
    <glyph glyph-name="Lslash" unicode="&#x141;" horiz-adv-x="1214" 
d="M287 737l430 299v-127l-430 -299v-471h927v-139h-1079v506l-160 -111v127l160 111v829h152v-725z" />
    <glyph glyph-name="lslash" unicode="&#x142;" horiz-adv-x="376" 
d="M264 829l113 84v-114l-113 -84v-715h-151v612l-113 -86v115l113 86v748h151v-646z" />
    <glyph glyph-name="OE" unicode="&#x152;" horiz-adv-x="2390" 
d="M1262 365v763q0 16 -16.5 42.5t-54.5 59.5t-89 62t-130 48.5t-169 19.5q-115 0 -216 -41.5t-178 -118.5t-122 -198.5t-45 -270.5q0 -157 42.5 -278.5t118.5 -197.5t177.5 -114.5t222.5 -38.5q89 0 168 22t130.5 54t89 69.5t54.5 68t17 49.5zM1262 0v160
q-167 -197 -459 -197q-153 0 -283 48.5t-229.5 141.5t-156 241.5t-56.5 336.5q0 119 29 230t89 209t144.5 171t203.5 115.5t259 42.5q313 0 454 -176h5v139h1054v-139h-903v-496h856v-139h-856v-549h914v-139h-1065z" />
    <glyph glyph-name="oe" unicode="&#x153;" horiz-adv-x="2238" 
d="M2001 340h151q-24 -74 -67 -138t-106.5 -118t-154.5 -85.5t-198 -31.5q-176 0 -313 70t-187 211q-152 -281 -512 -281q-166 0 -293.5 75.5t-194.5 203.5t-67 286q0 89 24 172.5t72 155t115 125t158 83.5t195 30q112 0 198.5 -21.5t145.5 -63.5t98 -89.5t72 -112.5
q60 131 181.5 209t307.5 78q72 0 142.5 -15.5t146.5 -58t133 -107.5t94 -173.5t37 -247.5h-973q6 -402 420 -402q295 0 375 246zM211 532q0 -195 118 -316.5t316 -121.5q195 -5 308.5 109t113.5 329q0 91 -24 168.5t-72.5 139t-130.5 96.5t-189 35q-205 0 -322.5 -121.5
t-117.5 -317.5zM1206 610h822q-15 94 -57.5 166t-99.5 113t-119 61.5t-126 20.5q-182 0 -284.5 -86.5t-135.5 -274.5z" />
    <glyph glyph-name="Scaron" unicode="&#x160;" 
d="M1278 1044h-152q-6 73 -33 128.5t-68.5 90.5t-99.5 57.5t-120 31t-137 8.5q-183 0 -298.5 -68.5t-115.5 -189.5q0 -40 11.5 -73t31 -58t56 -46t75 -36.5t99.5 -30.5t118.5 -26t142.5 -25q67 -11 114 -20.5t107 -26.5t101 -36t84 -48t68.5 -64t42 -84t16.5 -108
q0 -103 -36.5 -184.5t-95.5 -131.5t-140.5 -83t-164 -45.5t-173.5 -12.5q-115 0 -209.5 16t-177.5 54t-140.5 97t-93.5 148t-43 205h152q8 -90 37 -157.5t73 -109.5t108.5 -68t134.5 -36t159 -10q70 0 131 8t120.5 28.5t101 52t67.5 83.5t26 119q0 51 -16 90.5t-55.5 68
t-74 47t-103.5 35t-109 24t-124 20.5q-33 5 -50 8q-275 43 -405 131t-130 258q0 93 33.5 166.5t88.5 121t131 79t156 44.5t169 13q94 0 177.5 -13.5t163 -46.5t137 -84t93.5 -130.5t39 -180.5zM1059 1831l-293 -291h-164l-293 291h154l221 -207l221 207h154z" />
    <glyph glyph-name="scaron" unicode="&#x161;" horiz-adv-x="1138" 
d="M1049 750h-140q-28 126 -111.5 173.5t-254.5 47.5q-307 0 -307 -183q0 -34 11 -57t33.5 -40.5t72.5 -30.5t111 -23.5t167 -24.5q130 -17 210.5 -37t140.5 -54.5t85 -86.5t25 -129q0 -161 -129.5 -249.5t-376.5 -88.5q-539 0 -539 367h139q20 -134 108 -187t292 -53
q172 0 263 45t91 158q0 56 -33 89t-121 57t-254 40q-249 25 -348.5 91.5t-99.5 207.5q0 143 117.5 229.5t341.5 86.5q252 0 372 -87.5t134 -260.5zM944 1516l-293 -291h-164l-292 291h153l221 -207l222 207h153z" />
    <glyph glyph-name="Ydieresis" unicode="&#x178;" horiz-adv-x="1404" 
d="M627 0v614l-658 848h197l536 -696l537 696h197l-658 -848v-614h-151zM395 1552v226h152v-226h-152zM858 1552v226h152v-226h-152z" />
    <glyph glyph-name="Zcaron" unicode="&#x17d;" horiz-adv-x="1327" 
d="M10 0v139l1086 1184h-1016v139h1220v-139l-1091 -1184h1108v-139h-1307zM1038 1831l-293 -291h-163l-293 291h153l222 -207l221 207h153z" />
    <glyph glyph-name="zcaron" unicode="&#x17e;" horiz-adv-x="1138" 
d="M41 0v127l809 811h-762v127h979v-127l-825 -811h856v-127h-1057zM944 1516l-293 -291h-164l-292 291h153l221 -207l222 207h153z" />
    <glyph glyph-name="florin" unicode="&#x192;" 
d="M330 729l18 90h277l67 320q17 81 46 139.5t61 91t75.5 51t81 24t86.5 5.5q77 0 175 -16l-23 -123q-91 12 -141 12q-48 0 -77 -7t-58.5 -31t-49.5 -72.5t-37 -127.5l-55 -266h285l-23 -90h-280l-160 -760q-15 -69 -28 -114.5t-40 -98.5t-63 -84t-94 -52t-135 -21
q-78 0 -181 14l25 123q113 -10 137 -10q59 0 93.5 9t62 40t44.5 81.5t36 141.5l151 731h-276z" />
    <glyph glyph-name="circumflex" unicode="&#x2c6;" horiz-adv-x="376" 
d="M-186 1225l292 291h164l293 -291h-153l-222 207l-221 -207h-153z" />
    <glyph glyph-name="caron" unicode="&#x2c7;" horiz-adv-x="376" 
d="M563 1516l-293 -291h-164l-292 291h153l221 -207l222 207h153z" />
    <glyph glyph-name="breve" unicode="&#x2d8;" horiz-adv-x="376" 
d="M-150 1499h103q6 -82 65 -119t170 -37t170.5 37t65.5 119h102q-12 -136 -99 -203t-239 -67t-239 67t-99 203z" />
    <glyph glyph-name="dotaccent" unicode="&#x2d9;" horiz-adv-x="376" 
d="M113 1237v225h151v-225h-151z" />
    <glyph glyph-name="ring" unicode="&#x2da;" horiz-adv-x="376" 
d="M-37 1370q0 93 66 159t159 66q92 0 159 -66t67 -159t-67 -159t-159 -66q-93 0 -159 66t-66 159zM41 1370q0 -62 42.5 -104.5t104.5 -42.5t105 43t43 104q0 62 -43 105t-105 43q-61 0 -104 -43t-43 -105z" />
    <glyph glyph-name="ogonek" unicode="&#x2db;" horiz-adv-x="376" 
d="M412 -295l24 -72q-100 -34 -209 -34q-217 0 -217 159q0 45 23 87.5t59 72.5t70 50t65 32h111q-84 -41 -142.5 -102t-58.5 -127q0 -48 30 -71.5t77 -23.5q66 0 168 29z" />
    <glyph glyph-name="tilde" unicode="&#x2dc;" horiz-adv-x="376" 
d="M477 1481h90q-17 -92 -55 -144q-56 -77 -156 -77q-80 0 -184 53q-37 18 -56 26.5t-49.5 17.5t-56.5 9q-32 0 -54 -10t-33 -28t-15.5 -32.5t-7.5 -35.5h-90q7 32 14 56.5t23.5 57.5t37.5 54.5t56 37t79 15.5q79 0 185 -54q37 -18 56 -26.5t49.5 -17.5t56.5 -9q32 0 54 10
t33 28.5t15.5 33t7.5 35.5z" />
    <glyph glyph-name="hungarumlaut" unicode="&#x2dd;" horiz-adv-x="376" 
d="M-170 1225l236 291h186l-297 -291h-125zM285 1225l235 291h187l-297 -291h-125z" />
    <glyph glyph-name="endash" unicode="&#x2013;" horiz-adv-x="1024" 
d="M0 498v127h1024v-127h-1024z" />
    <glyph glyph-name="emdash" unicode="&#x2014;" horiz-adv-x="2048" 
d="M0 498v127h2048v-127h-2048z" />
    <glyph glyph-name="quoteleft" unicode="&#x2018;" horiz-adv-x="569" 
d="M197 950v230q0 229 194 282v-78q-57 -26 -74.5 -73.5t-17.5 -134.5h74v-226h-176z" />
    <glyph glyph-name="quoteright" unicode="&#x2019;" horiz-adv-x="569" 
d="M197 1237v225h176v-229q0 -230 -195 -283v78q57 26 74.5 74t17.5 135h-73z" />
    <glyph glyph-name="quotesinglbase" unicode="&#x201a;" horiz-adv-x="569" 
d="M197 0v225h176v-229q0 -230 -195 -283v78q57 26 74.5 74t17.5 135h-73z" />
    <glyph glyph-name="quotedblleft" unicode="&#x201c;" horiz-adv-x="833" 
d="M512 950v230q0 229 195 282v-78q-57 -26 -75 -74t-18 -134h74v-226h-176zM145 950v230q0 229 195 282v-78q-57 -26 -74.5 -73.5t-17.5 -134.5h74v-226h-177z" />
    <glyph glyph-name="quotedblright" unicode="&#x201d;" horiz-adv-x="833" 
d="M512 1237v225h176v-229q0 -230 -194 -283v78q57 26 74.5 74t17.5 135h-74zM145 1237v225h177v-229q0 -230 -195 -283v78q57 26 74.5 74t17.5 135h-74z" />
    <glyph glyph-name="quotedblbase" unicode="&#x201e;" horiz-adv-x="833" 
d="M145 0v225h177v-229q0 -230 -195 -283v78q57 26 74.5 74t17.5 135h-74zM512 0v225h176v-229q0 -230 -194 -283v78q57 26 74.5 74t17.5 135h-74z" />
    <glyph glyph-name="dagger" unicode="&#x2020;" 
d="M608 -319v1189h-493v127h493v465h152v-465h493v-127h-493v-1189h-152z" />
    <glyph glyph-name="daggerdbl" unicode="&#x2021;" 
d="M608 -319v444h-493v127h493v649h-493v127h493v434h152v-434h493v-127h-493v-649h493v-127h-493v-444h-152z" />
    <glyph glyph-name="bullet" unicode="&#x2022;" horiz-adv-x="1026" 
d="M147 731q0 152 106.5 259.5t258.5 107.5t259.5 -107.5t107.5 -259.5t-107 -258t-260 -106q-152 0 -258.5 106t-106.5 258z" />
    <glyph glyph-name="ellipsis" unicode="&#x2026;" horiz-adv-x="2048" 
d="M254 0v225h176v-225h-176zM936 0v225h176v-225h-176zM1618 0v225h176v-225h-176z" />
    <glyph glyph-name="perthousand" unicode="&#x2030;" horiz-adv-x="2390" 
d="M2019 70q109 0 170.5 78.5t61.5 216.5t-61.5 216t-170.5 78t-170 -78t-61 -216t61 -216.5t170 -78.5zM246 -33l975 1483h120l-974 -1483h-121zM371 758q109 0 170 78.5t61 216.5t-61 216.5t-170 78.5t-170.5 -78.5t-61.5 -216.5t61.5 -216.5t170.5 -78.5zM2019 -33
q-159 0 -258.5 103.5t-99.5 294.5q0 190 99 293.5t259 103.5t259.5 -103.5t99.5 -293.5t-99.5 -294t-259.5 -104zM371 655q-160 0 -259.5 104t-99.5 294t99.5 293.5t259.5 103.5t259 -103.5t99 -293.5q0 -191 -99.5 -294.5t-258.5 -103.5zM1217 -33q-160 0 -259.5 104
t-99.5 294t99.5 293.5t259.5 103.5t259 -103.5t99 -293.5q0 -191 -99.5 -294.5t-258.5 -103.5zM1217 70q109 0 170 78.5t61 216.5t-61 216t-170 78t-170.5 -78t-61.5 -216t61.5 -216.5t170.5 -78.5z" />
    <glyph glyph-name="guilsinglleft" unicode="&#x2039;" horiz-adv-x="645" 
d="M150 487v148l321 276v-157l-231 -193l231 -192v-158z" />
    <glyph glyph-name="guilsinglright" unicode="&#x203a;" horiz-adv-x="645" 
d="M406 561l-232 193v157l322 -276v-148l-322 -276v158z" />
    <glyph glyph-name="fraction" unicode="&#x2044;" horiz-adv-x="342" 
d="M-328 -33l871 1483h127l-871 -1483h-127z" />
    <glyph glyph-name="Euro" unicode="&#x20ac;" 
d="M1348 1255l-78 -122q-50 88 -148 137q-106 53 -266 53q-248 0 -369 -139q-39 -45 -67 -112.5t-39 -137.5h780l-57 -103h-737q-9 -111 0 -219h624l-57 -102h-557q20 -158 106 -266q38 -48 83 -79.5t93.5 -46t89 -19.5t89.5 -5q171 0 305 72q103 57 176 149v-176
q-70 -67 -156 -106q-68 -31 -159.5 -48.5t-174.5 -17.5q-302 0 -462 197q-54 65 -92 157t-50 189h-205l58 102h137q-9 108 0 219h-195l58 103h151q14 90 54.5 181t101.5 157q52 57 115.5 95.5t130.5 55t118 22t111 5.5q195 0 326 -64q93 -45 162 -131z" />
    <glyph glyph-name="trademark" unicode="&#x2122;" horiz-adv-x="2027" 
d="M362 618v754h-276v90h655v-90h-276v-754h-103zM1339 778l263 684h176v-844h-103v754h-4l-305 -754h-61l-306 754h-4v-754h-102v844h176z" />
    <glyph glyph-name="minus" unicode="&#x2212;" horiz-adv-x="1228" 
d="M96 467v102h1037v-102h-1037z" />
    <glyph glyph-name="fi" unicode="&#xfb01;" horiz-adv-x="1024" 
d="M219 0v950h-231v115h231v141q0 147 72.5 208t226.5 61q64 0 170 -9v-127q-106 9 -141 9q-102 0 -139 -33t-37 -125v-125h301v-115h-301v-950h-152zM760 0v1065h151v-1065h-151zM760 1249v226h151v-226h-151z" />
    <glyph glyph-name="fl" unicode="&#xfb02;" horiz-adv-x="1024" 
d="M760 0v1475h151v-1475h-151zM219 0v950h-231v115h231v141q0 147 72.5 208t226.5 61q64 0 170 -9v-127q-106 9 -141 9q-102 0 -139 -33t-37 -125v-125h301v-115h-301v-950h-152z" />
    <glyph glyph-name="oldcurrency" 
d="M176 279l111 114q-111 131 -111 316q0 184 111 315l-111 115l78 78l113 -113q137 113 317 113t317 -113l113 113l78 -78l-111 -115q111 -131 111 -315q0 -185 -111 -316l111 -114l-78 -78l-113 112q-136 -112 -317 -112t-317 112l-113 -112zM279 709q0 -167 120 -286.5
t285 -119.5q108 0 201.5 54.5t149 148.5t55.5 203q0 166 -120.5 285.5t-285.5 119.5q-108 0 -201.5 -54.5t-148.5 -148t-55 -202.5z" />
    <glyph glyph-name="hyphenminus" horiz-adv-x="909" 
d="M143 485v152h623v-152h-623z" />
    </font>
</defs>
</svg>
