<?xml version="1.0" standalone="no"?>
<!DOCTYPE svg PUBLIC "-//W3C//DTD SVG 1.1//EN" "http://www.w3.org/Graphics/SVG/1.1/DTD/svg11.dtd" >
<svg xmlns="http://www.w3.org/2000/svg" xmlns:xlink="http://www.w3.org/1999/xlink" version="1.1">
<metadata>
Created by FontForge 20170731 at Wed Dec 14 18:12:46 2022
 By Aleksey,,,
Copyright (c) 1990 Adobe Systems Incorporated.  All Rights Reserved.Helvetica is a trademark of Linotype AG and/or its subsidiaries.
</metadata>
<defs>
<font id="HelveticaNeueLT-HeavyExt" horiz-adv-x="1667" >
  <font-face 
    font-family="Helvetica Neue LT"
    font-weight="500"
    font-stretch="normal"
    units-per-em="2048"
    panose-1="0 0 0 0 0 0 0 0 0 0"
    ascent="1638"
    descent="-410"
    x-height="1110"
    cap-height="1462"
    bbox="-410 -457 2656 2046"
    underline-thickness="102"
    underline-position="-307"
    unicode-range="U+0020-FB02"
  />
<missing-glyph horiz-adv-x="794" 
 />
    <glyph glyph-name=".notdef" horiz-adv-x="794" 
 />
    <glyph glyph-name=".null" horiz-adv-x="0" 
 />
    <glyph glyph-name="nonmarkingreturn" horiz-adv-x="682" 
 />
    <glyph glyph-name="space" unicode=" " horiz-adv-x="794" 
 />
    <glyph glyph-name="exclam" unicode="!" horiz-adv-x="794" 
d="M221 518l-59 944h471l-60 -944h-352zM168 0v406h459v-406h-459z" />
    <glyph glyph-name="quotedbl" unicode="&#x22;" horiz-adv-x="1366" 
d="M772 655v807h303v-807h-303zM291 655v807h303v-807h-303z" />
    <glyph glyph-name="numbersign" unicode="#" horiz-adv-x="1818" 
d="M461 0l49 354h-168v238h201l35 237h-168v238h200l49 354h246l-49 -354h207l49 354h246l-49 -354h168v-238h-201l-35 -237h168v-238h-201l-49 -354h-246l50 354h-207l-49 -354h-246zM995 592l35 237h-207l-35 -237h207z" />
    <glyph glyph-name="dollar" unicode="$" horiz-adv-x="1818" 
d="M827 915v248q-32 0 -64 -4t-73 -16t-66.5 -40t-25.5 -69q0 -38 24.5 -62t67.5 -32zM967 541v-271q46 1 84.5 8t72.5 21.5t53 42t19 64.5q0 65 -48 92t-177 43h-4zM852 -215v182q-140 3 -249.5 16.5t-208.5 46.5t-166 85t-109 133.5t-49 189.5h553q8 -75 57 -115t172 -53
v291l-246 35q-193 27 -306 80t-159.5 130.5t-46.5 194.5q0 80 27 146.5t71.5 112t107.5 80.5t127.5 55.5t139 33t136 17t124.5 4.5v182h115v-182q357 -19 538.5 -125.5t202.5 -327.5h-540q-6 66 -53 107.5t-148 58.5v-264l363 -55q223 -34 333.5 -126.5t110.5 -273.5
q0 -93 -32.5 -168t-82.5 -123.5t-123 -84.5t-141 -55t-150.5 -30t-137.5 -13.5t-115 -2.5v-182h-115z" />
    <glyph glyph-name="percent" unicode="%" horiz-adv-x="2199" 
d="M356 1057q0 -197 160 -197t160 197q0 196 -160 196t-160 -196zM520 -33l932 1483h229l-931 -1483h-230zM1524 360q0 -196 159 -196q160 0 160 196q0 197 -160 197q-159 0 -159 -197zM70 1057q0 201 118.5 297t327.5 96t328 -96t119 -297t-119 -297t-328 -96t-327.5 96
t-118.5 297zM1237 360q0 201 118.5 297.5t327.5 96.5t328 -96.5t119 -297.5t-119 -297t-328 -96t-327.5 96t-118.5 297z" />
    <glyph glyph-name="ampersand" unicode="&#x26;" horiz-adv-x="2009" 
d="M1104 322l-387 352q-71 -25 -114.5 -85t-43.5 -118q0 -96 75.5 -162.5t213.5 -66.5q68 0 139.5 23t116.5 57zM2036 0h-586l-131 121q-249 -166 -594 -166q-163 0 -288 38t-199.5 104.5t-112 149t-37.5 177.5q0 340 418 434q-39 34 -66.5 64.5t-53.5 84.5t-26 111
q0 119 75.5 201.5t197 120t276.5 37.5q262 0 407.5 -89t145.5 -251q0 -238 -323 -326l282 -258q99 72 236 262l231 -162q-60 -95 -114 -161t-134 -140zM795 1135q0 -59 123 -160q81 30 122 70t41 85q0 48 -36.5 78.5t-98.5 30.5q-68 0 -109.5 -26t-41.5 -78z" />
    <glyph glyph-name="quotesingle" unicode="'" horiz-adv-x="794" 
d="M246 655v807h303v-807h-303z" />
    <glyph glyph-name="parenleft" unicode="(" horiz-adv-x="985" 
d="M854 -389h-299q-195 188 -293 434.5t-98 491.5t98 491t293 434h299q-131 -207 -193.5 -444.5t-62.5 -480.5t62.5 -481.5t193.5 -444.5z" />
    <glyph glyph-name="parenright" unicode=")" horiz-adv-x="985" 
d="M430 -389h-299q131 206 193.5 444.5t62.5 481.5t-62.5 480.5t-193.5 444.5h299q195 -188 293 -434t98 -491t-98 -491.5t-293 -434.5z" />
    <glyph glyph-name="asterisk" unicode="*" horiz-adv-x="950" 
d="M106 745l187 222l-275 88l80 229l262 -108l-8 286h246l-8 -286l262 108l80 -229l-275 -88l187 -222l-197 -147l-172 233l-172 -233z" />
    <glyph glyph-name="plus" unicode="+" horiz-adv-x="1228" 
d="M471 662v374h287v-374h375v-287h-375v-375h-287v375h-375v287h375z" />
    <glyph glyph-name="comma" unicode="," horiz-adv-x="794" 
d="M168 0v406h459v-261q0 -243 -114.5 -384t-344.5 -162v168q54 10 93.5 34.5t61.5 58.5t33.5 68t14.5 72h-203z" />
    <glyph glyph-name="hyphen" unicode="-" horiz-adv-x="985" 
d="M125 436v316h735v-316h-735z" />
    <glyph glyph-name="period" unicode="." horiz-adv-x="794" 
d="M168 0v406h459v-406h-459z" />
    <glyph glyph-name="slash" unicode="/" horiz-adv-x="909" 
d="M-6 -45l590 1552h331l-589 -1552h-332z" />
    <glyph glyph-name="zero" unicode="0" horiz-adv-x="1818" 
d="M909 1450q181 0 324.5 -41t237 -110t155.5 -166t88.5 -203.5t26.5 -227.5q0 -118 -26.5 -222.5t-88.5 -200t-155.5 -163.5t-237 -108.5t-324.5 -40.5t-324.5 40.5t-237 108.5t-155.5 163.5t-88 200t-26 222.5q0 87 13 165.5t42.5 154.5t74.5 139.5t112 117.5t151 91.5
t195.5 58.5t242.5 21zM909 1135q-53 0 -100 -11t-96 -41t-84 -77t-57.5 -125t-22.5 -179q0 -97 22.5 -172.5t57.5 -121t83.5 -75t96 -40t100.5 -10.5t100 10t96.5 38t84.5 73t57.5 121.5t22.5 176.5q0 101 -22.5 179t-57.5 125t-84 77t-96.5 41t-100.5 11z" />
    <glyph glyph-name="one" unicode="1" horiz-adv-x="1251" 
d="M539 0v852h-435v303h70q56 0 99.5 3.5t91 13t84 28t71.5 47t62.5 71.5t48.5 99h354v-1417h-446z" />
    <glyph glyph-name="two" unicode="2" horiz-adv-x="1818" 
d="M1696 315v-315h-1633q5 138 41.5 248t93 186.5t142.5 136.5t175.5 98t205.5 70l342 97q65 18 106 55.5t41 87.5q0 70 -69 112.5t-203 43.5q-138 0 -225 -57t-97 -175h-503q9 123 54 217.5t117 156t175.5 101t220.5 56t260 16.5q363 0 568.5 -121.5t205.5 -355.5
q0 -86 -32 -155t-87.5 -115t-128.5 -81t-157.5 -59t-170.5 -43l-172 -38t-158.5 -40.5t-132 -53.5t-91.5 -73h1112z" />
    <glyph glyph-name="three" unicode="3" horiz-adv-x="1818" 
d="M655 606v287h299q114 0 170 29t56 102q0 77 -71.5 108t-197.5 31q-62 0 -102 -4t-79.5 -17.5t-64.5 -41t-40 -70.5h-504q11 101 63 177t127.5 121.5t182 73.5t212 38t232.5 10q384 0 564.5 -101t180.5 -296q0 -117 -74.5 -193.5t-168.5 -83.5v-4q53 -9 102 -33t94 -63
t72 -101.5t27 -138.5q0 -232 -210.5 -350.5t-604.5 -118.5q-185 0 -324.5 22t-234 63t-155 105.5t-88.5 142t-34 179.5h487q8 -93 89 -144.5t243 -51.5q89 0 157.5 15.5t113.5 54.5t45 98q0 80 -70 117.5t-227 37.5h-267z" />
    <glyph glyph-name="four" unicode="4" horiz-adv-x="1818" 
d="M1053 0v238h-971v319l803 860h590v-876h262v-303h-262v-238h-422zM1053 541v561l-525 -561h525z" />
    <glyph glyph-name="five" unicode="5" horiz-adv-x="1818" 
d="M147 618l140 799h1343v-303h-1030l-39 -215q169 68 438 68q216 0 375 -51.5t251.5 -161t92.5 -267.5q0 -244 -207 -382t-610 -138q-171 0 -303.5 21t-225 60t-154.5 99t-95 133.5t-45 168.5h504q36 -166 313 -166q172 0 254 54t82 146q0 89 -83.5 149t-248.5 60
q-185 0 -287 -74h-465z" />
    <glyph glyph-name="six" unicode="6" horiz-adv-x="1818" 
d="M1008 926q76 0 144.5 -5.5t141.5 -20t134 -37t116 -59.5t93 -85t60.5 -116t22.5 -150q0 -226 -194 -356t-572 -130q-153 0 -274 19t-233 69.5t-186.5 133t-118.5 215.5t-44 311q0 192 60.5 335t173 229.5t262 128.5t338.5 42q92 0 174.5 -8t167 -26.5t154 -52
t127.5 -79.5t95.5 -114t49.5 -152h-479q-20 65 -93 97t-184 32q-86 0 -150.5 -18t-104.5 -47.5t-66 -74t-37.5 -89t-16.5 -101.5q90 59 195 84t244 25zM922 639q-96 0 -160.5 -16t-95 -46t-41.5 -60.5t-11 -70.5q0 -72 78 -124t232 -52q88 0 151 15t96 41t47.5 55.5
t14.5 64.5q0 193 -311 193z" />
    <glyph glyph-name="seven" unicode="7" horiz-adv-x="1705" 
d="M47 1114v303h1612v-389q-134 -115 -223.5 -197.5t-190 -189.5t-165 -200.5t-117.5 -207.5t-78 -233h-615q15 121 63.5 235t131.5 222t175.5 201t221.5 204l293 252h-1108z" />
    <glyph glyph-name="eight" unicode="8" horiz-adv-x="1818" 
d="M909 874q71 0 120 5t90 19t61 41t20 67q0 43 -20 72t-61 43.5t-90 20t-120 5.5t-120 -5.5t-90 -20t-61 -43.5t-20 -72q0 -40 20 -67t61 -41t90 -19t120 -5zM909 612q-97 0 -164 -14t-100 -39.5t-46 -53t-13 -61.5q0 -29 7 -52t28.5 -47t56 -39.5t93.5 -25.5t138 -10
q98 0 165 14t100 40.5t46 54.5t13 65q0 34 -13 61.5t-46 53t-100.5 39.5t-164.5 14zM909 1450q398 0 588.5 -93.5t190.5 -303.5q0 -58 -19 -105t-43 -74t-63.5 -49.5t-62 -31t-58.5 -19.5v-4q138 -26 216.5 -114.5t78.5 -217.5q0 -471 -828 -471q-827 0 -827 471
q0 129 78.5 217.5t216.5 114.5v4q-36 11 -58.5 19.5t-62 31t-63.5 49.5t-43 74t-19 105q0 210 190 303.5t588 93.5z" />
    <glyph glyph-name="nine" unicode="9" horiz-adv-x="1818" 
d="M119 399h479q20 -65 93 -97t183 -32q86 0 150.5 18t104.5 47.5t66 74t37.5 89t16.5 101.5q-90 -58 -194.5 -83t-243.5 -25q-89 0 -168.5 8t-163.5 27t-150 54.5t-119.5 86t-82.5 126.5t-29 171q0 226 193.5 355.5t572.5 129.5q153 0 274 -19t233 -69.5t186.5 -133
t118.5 -215.5t44 -311q0 -154 -39.5 -277t-111.5 -208t-176.5 -141.5t-230 -82.5t-275.5 -26q-92 0 -174.5 8t-167 26.5t-154 52t-127.5 79.5t-95.5 114t-49.5 152zM897 778q77 0 134.5 11.5t90 29t51.5 44.5t25 51.5t6 56.5q0 72 -77.5 124t-231.5 52q-88 0 -151 -15
t-96 -41t-47.5 -55.5t-14.5 -64.5q0 -193 311 -193z" />
    <glyph glyph-name="colon" unicode=":" horiz-adv-x="794" 
d="M168 705v405h459v-405h-459zM168 0v406h459v-406h-459z" />
    <glyph glyph-name="semicolon" unicode=";" horiz-adv-x="794" 
d="M168 0v406h459v-261q0 -243 -114.5 -384t-344.5 -162v168q54 10 93.5 34.5t61.5 58.5t33.5 68t14.5 72h-203zM168 705v405h459v-405h-459z" />
    <glyph glyph-name="less" unicode="&#x3c;" horiz-adv-x="1228" 
d="M96 393v250l1037 430v-276l-697 -279l697 -278v-277z" />
    <glyph glyph-name="equal" unicode="=" horiz-adv-x="1228" 
d="M96 604v287h1037v-287h-1037zM96 145v287h1037v-287h-1037z" />
    <glyph glyph-name="greater" unicode="&#x3e;" horiz-adv-x="1228" 
d="M96 -37v277l697 278l-697 279v276l1037 -430v-250z" />
    <glyph glyph-name="question" unicode="?" horiz-adv-x="1630" 
d="M1014 518h-447q1 112 34 171t116 102l223 114q119 62 119 154q0 68 -67 110.5t-167 42.5q-156 0 -221.5 -62.5t-73.5 -184.5h-481q21 188 103 304t242.5 173t414.5 57q347 0 542 -114t195 -341q0 -74 -27.5 -133t-72 -96.5t-98.5 -67t-110 -53.5t-103 -47.5t-80.5 -56
t-40.5 -72.5zM561 0v406h459v-406h-459z" />
    <glyph glyph-name="at" unicode="@" horiz-adv-x="1638" 
d="M633 709q0 -73 42 -121.5t113 -48.5q95 0 155.5 63.5t60.5 153.5q0 75 -45.5 122.5t-120.5 47.5q-85 0 -145 -67t-60 -150zM1087 1102h195l-82 -443q-16 -83 -16 -96q0 -45 35 -45q64 0 122 85t58 243q0 216 -153.5 340.5t-395.5 124.5q-175 0 -308 -75t-203.5 -207
t-70.5 -300q0 -266 170.5 -421.5t446.5 -155.5q235 0 401 118h232q-230 -315 -666 -315q-163 0 -311 58t-258 158.5t-175 246t-65 311.5q0 163 64 308t173 248t259 162.5t317 59.5q140 0 272.5 -45t236.5 -124.5t167 -199.5t63 -261q0 -126 -52 -235.5t-132 -179.5
t-172.5 -109.5t-177.5 -39.5q-48 0 -81.5 25t-39.5 68h-8q-80 -93 -221 -93q-134 0 -231 102t-97 259q0 92 31 178t85.5 152.5t135.5 106.5t174 40q166 0 262 -127z" />
    <glyph glyph-name="A" unicode="A" horiz-adv-x="1744" 
d="M-57 0l635 1462h596l628 -1462h-522l-88 238h-639l-88 -238h-522zM1077 541l-203 553h-4l-202 -553h409z" />
    <glyph glyph-name="B" unicode="B" horiz-adv-x="1933" 
d="M635 1147v-248h485q74 0 112 35t38 90q0 53 -38 88t-112 35h-485zM635 315h524q78 0 125 40.5t47 111.5q0 70 -46.5 107.5t-125.5 37.5h-524v-297zM147 0v1462h1211q101 0 178.5 -24.5t121.5 -61t71 -87.5t36 -95t9 -92q0 -102 -51 -183.5t-130 -111.5v-4
q119 -27 186.5 -121t67.5 -246q0 -59 -11.5 -113t-46.5 -115t-91 -105t-154 -73.5t-227 -29.5h-1170z" />
    <glyph glyph-name="C" unicode="C" horiz-adv-x="1972" 
d="M1376 563h541q-14 -72 -33.5 -133t-55 -125t-83 -114t-118.5 -95.5t-160 -75.5t-210 -47.5t-266 -17.5q-460 0 -689.5 197.5t-229.5 578.5q0 376 226.5 576t692.5 200q144 0 258 -14.5t227.5 -54.5t195.5 -106t146 -175.5t95 -257.5h-543q-9 31 -19.5 57.5t-29.5 61
t-47.5 61.5t-66.5 51t-93 37t-121 13q-111 0 -191.5 -35.5t-126 -99t-66.5 -141.5t-21 -173q0 -448 405 -448q161 0 259.5 74.5t123.5 205.5z" />
    <glyph glyph-name="D" unicode="D" horiz-adv-x="1972" 
d="M147 0v1462h1057q342 0 519.5 -184t177.5 -547q0 -168 -39.5 -296.5t-106.5 -209.5t-165.5 -132.5t-207.5 -72t-241 -20.5h-994zM635 1135v-807h407q81 0 144 23t102 61t64 92t35 109.5t10 119.5q0 402 -393 402h-369z" />
    <glyph glyph-name="E" unicode="E" horiz-adv-x="1669" 
d="M147 0v1462h1465v-315h-977v-264h915v-303h-915v-265h977v-315h-1465z" />
    <glyph glyph-name="F" unicode="F" horiz-adv-x="1556" 
d="M147 0v1462h1395v-327h-907v-252h844v-316h-844v-567h-488z" />
    <glyph glyph-name="G" unicode="G" horiz-adv-x="2048" 
d="M1122 526v303h787v-829h-228l-59 152q-27 -31 -73.5 -62t-121.5 -63t-188.5 -52t-247.5 -20q-471 0 -695 195.5t-224 580.5q0 131 34 246t107 213t179.5 168t258.5 109.5t338 39.5q91 0 175 -7t172.5 -24t165 -43t146.5 -68t122.5 -95t89 -127t49.5 -162h-551
q-58 211 -348 211q-109 0 -193.5 -36t-136.5 -99.5t-78.5 -146t-26.5 -181.5q0 -97 26.5 -179t78.5 -145.5t136.5 -99t193.5 -35.5q176 0 275.5 64t135.5 192h-299z" />
    <glyph glyph-name="H" unicode="H" horiz-adv-x="2009" 
d="M1374 0v612h-739v-612h-488v1462h488v-522h739v522h488v-1462h-488z" />
    <glyph glyph-name="I" unicode="I" horiz-adv-x="794" 
d="M154 0v1462h487v-1462h-487z" />
    <glyph glyph-name="J" unicode="J" horiz-adv-x="1517" 
d="M18 524v62h488q0 -88 7 -141.5t28 -96t60.5 -60t103.5 -18.5q64 0 105.5 18t62 56t27.5 82t7 111v925h488v-954q0 -78 -10 -141t-35 -128.5t-72.5 -114.5t-118 -88.5t-178 -60t-244.5 -20.5t-240.5 14t-196.5 52t-153 101t-94.5 164t-34.5 238z" />
    <glyph glyph-name="K" unicode="K" horiz-adv-x="1896" 
d="M147 0v1462h488v-573l610 573h649l-661 -575l713 -887h-652l-452 584l-207 -172v-412h-488z" />
    <glyph glyph-name="L" unicode="L" horiz-adv-x="1556" 
d="M147 0v1462h488v-1122h891v-340h-1379z" />
    <glyph glyph-name="M" unicode="M" horiz-adv-x="2392" 
d="M147 0v1462h713l334 -964h4l334 964h713v-1462h-459v1094h-4l-385 -1094h-402l-385 1094h-4v-1094h-459z" />
    <glyph glyph-name="N" unicode="N" horiz-adv-x="2009" 
d="M147 0v1462h562l677 -915h5v915h471v-1462h-539l-700 924h-5v-924h-471z" />
    <glyph glyph-name="O" unicode="O" horiz-adv-x="2048" 
d="M72 731q0 776 952 776t952 -776t-952 -776t-952 776zM588 731q0 -223 117 -335.5t319 -112.5q203 0 319.5 112.5t116.5 335.5q0 222 -116.5 335.5t-319.5 113.5q-202 0 -319 -113.5t-117 -335.5z" />
    <glyph glyph-name="P" unicode="P" horiz-adv-x="1820" 
d="M635 1159v-368h434q102 0 148.5 44t46.5 140t-46.5 140t-148.5 44h-434zM147 0v1462h1082q145 0 251 -36.5t167.5 -104t90.5 -153.5t29 -193q0 -76 -15.5 -144t-53.5 -132t-95.5 -110t-147.5 -74t-204 -28h-616v-487h-488z" />
    <glyph glyph-name="Q" unicode="Q" horiz-adv-x="2048" 
d="M1747 -262l-301 264q-94 -22 -207 -35q-108 -12 -215 -12q-952 0 -952 776t952 776t952 -776q0 -375 -223 -569l209 -187zM1120 289l-100 88l213 239l166 -145q61 98 61 260q0 222 -116.5 335.5t-319.5 113.5q-202 0 -319 -113.5t-117 -335.5q0 -223 117 -335.5
t319 -112.5q44 0 96 6z" />
    <glyph glyph-name="R" unicode="R" horiz-adv-x="1896" 
d="M635 1135v-320h469q88 0 135 43t47 119q0 73 -47 115.5t-135 42.5h-469zM147 0v1462h1172q489 0 489 -407q0 -139 -64 -223.5t-169 -110.5v-4q160 -54 176 -262q19 -238 34 -320.5t58 -134.5h-534q-29 68 -29 217q0 84 -13 138.5t-41 82.5t-61.5 38.5t-83.5 10.5h-446
v-487h-488z" />
    <glyph glyph-name="S" unicode="S" horiz-adv-x="1820" 
d="M1712 1034h-553q-11 81 -85 125.5t-232 44.5q-254 0 -254 -143q0 -72 108 -90q32 -5 295 -45.5t346 -55.5q216 -37 326.5 -133.5t110.5 -281.5q0 -80 -23 -147.5t-59.5 -115.5t-92.5 -87t-109.5 -63t-125.5 -41.5t-125 -26t-122.5 -13.5t-104 -5.5t-82.5 -0.5
q-131 0 -236.5 8.5t-206 29t-175 57.5t-133.5 91t-92 132t-40 178h578q7 -60 33.5 -97t98.5 -60.5t195 -23.5q256 0 256 154q0 57 -49.5 83.5t-181.5 47.5l-488 74q-417 62 -417 413q0 45 8 87t30.5 89.5t58 88t95 78t136.5 64t187.5 42.5t243.5 16q204 0 358 -25.5t269 -81
t179 -147t75 -219.5z" />
    <glyph glyph-name="T" unicode="T" horiz-adv-x="1556" 
d="M-2 1135v327h1561v-327h-537v-1135h-487v1135h-537z" />
    <glyph glyph-name="U" unicode="U" horiz-adv-x="1896" 
d="M127 516v946h487v-866q0 -173 80.5 -243t253.5 -70t253.5 70t80.5 243v866h487v-946q0 -293 -209 -427t-612 -134t-612 134t-209 427z" />
    <glyph glyph-name="V" unicode="V" 
d="M575 0l-651 1462h535l372 -1042h5l372 1042h535l-651 -1462h-517z" />
    <glyph glyph-name="W" unicode="W" horiz-adv-x="2351" 
d="M438 0l-438 1462h471l229 -987h5l264 987h413l265 -987h4l229 987h471l-438 -1462h-481l-254 952h-4l-254 -952h-482z" />
    <glyph glyph-name="X" unicode="X" horiz-adv-x="1744" 
d="M-43 0l635 760l-567 702h579l268 -393l269 393h579l-567 -702l635 -760h-604l-312 442l-311 -442h-604z" />
    <glyph glyph-name="Y" unicode="Y" 
d="M590 0v461l-649 1001h565l328 -620l327 620h565l-649 -1001v-461h-487z" />
    <glyph glyph-name="Z" unicode="Z" 
d="M37 0v281l921 854h-858v327h1512v-286l-916 -848h901v-328h-1560z" />
    <glyph glyph-name="bracketleft" unicode="[" horiz-adv-x="985" 
d="M147 -389v1851h787v-315h-352v-1221h352v-315h-787z" />
    <glyph glyph-name="backslash" unicode="\" horiz-adv-x="909" 
d="M590 -45l-590 1552h319l590 -1552h-319z" />
    <glyph glyph-name="bracketright" unicode="]" horiz-adv-x="985" 
d="M51 -389v315h352v1221h-352v315h787v-1851h-787z" />
    <glyph glyph-name="asciicircum" unicode="^" horiz-adv-x="1228" 
d="M96 670l359 747h319l359 -747h-293l-226 485l-225 -485h-293z" />
    <glyph glyph-name="underscore" unicode="_" horiz-adv-x="1024" 
d="M0 -256v102h1024v-102h-1024z" />
    <glyph glyph-name="grave" unicode="`" horiz-adv-x="569" 
d="M133 1237l-305 287h528l187 -287h-410z" />
    <glyph glyph-name="a" unicode="a" 
d="M565 762h-434q9 69 34 124.5t61.5 94.5t88.5 68t106.5 46t125 27t135 13.5t143.5 3.5q129 0 229 -9t193 -34t153 -66.5t96 -109t36 -158.5v-561q0 -70 9.5 -112t35.5 -89h-434q-19 46 -23 102q-88 -84 -214.5 -115.5t-307.5 -31.5q-267 0 -405 87t-138 259
q0 182 118 264.5t362 98.5l432 28q81 6 106 25t25 65q0 119 -275 119q-119 0 -181 -34t-77 -105zM1110 451v67q-58 -17 -166 -31l-293 -34q-66 -7 -95.5 -34.5t-29.5 -78.5q0 -64 53 -99.5t142 -35.5q186 0 287.5 65.5t101.5 180.5z" />
    <glyph glyph-name="b" unicode="b" 
d="M115 0v1495h434v-526h4q56 80 163.5 125t250.5 45q149 0 272 -45.5t204 -124.5t125 -185t44 -227q0 -285 -175 -443.5t-474 -158.5q-133 0 -243 46t-179 130h-4v-131h-422zM549 553q0 -132 79.5 -207.5t229.5 -75.5q149 0 228 72.5t79 210.5t-79 210.5t-228 72.5
q-150 0 -229.5 -75.5t-79.5 -207.5z" />
    <glyph glyph-name="c" unicode="c" 
d="M1153 453h459q-34 -163 -120 -271t-247.5 -167.5t-400.5 -59.5q-377 0 -577.5 149t-200.5 451q0 197 95.5 333t268.5 201.5t414 65.5q694 0 747 -477h-446q-31 190 -295 190q-153 0 -239.5 -81.5t-86.5 -231.5t85.5 -231.5t242.5 -81.5q125 0 202.5 53t98.5 158z" />
    <glyph glyph-name="d" unicode="d" 
d="M1130 0v131h-4q-69 -84 -179 -130t-242 -46q-299 0 -474.5 158.5t-175.5 443.5q0 121 44 227t125 185t204 124.5t272 45.5q143 0 250.5 -45t163.5 -125h4v526h434v-1495h-422zM1118 553q0 132 -79.5 207.5t-229.5 75.5q-149 0 -228 -72.5t-79 -210.5t79 -210.5t228 -72.5
q150 0 229.5 75.5t79.5 207.5z" />
    <glyph glyph-name="e" unicode="e" 
d="M512 678h643q-21 101 -99 164t-222 63t-222.5 -63t-99.5 -164zM1122 330h459q-21 -73 -72.5 -137t-137 -119t-221.5 -87t-306 -32q-381 0 -579.5 149t-198.5 453q0 193 95.5 329t266.5 202.5t403 66.5q367 0 569 -166t202 -504v-32h-1090q18 -114 103.5 -181t244.5 -67
q95 0 156 33.5t106 91.5z" />
    <glyph glyph-name="f" unicode="f" horiz-adv-x="948" 
d="M0 823v287h227v94q0 66 10.5 112.5t39.5 88t81 66.5t135.5 39t200.5 14q111 0 254 -17v-245h-194q-58 0 -75 -16.5t-17 -67.5v-68h286v-287h-286v-823h-435v823h-227z" />
    <glyph glyph-name="g" unicode="g" horiz-adv-x="1705" 
d="M1169 969v141h422v-1010q0 -280 -171 -403t-568 -123q-138 0 -244 10t-200 36t-157.5 68.5t-105.5 109t-55 157.5h479q26 -131 265 -131q180 0 251.5 67t71.5 222v77q-69 -70 -189 -105.5t-255 -35.5q-172 0 -301 42t-205.5 117.5t-114 172t-37.5 213.5q0 112 41 209
t120 173t207 119.5t290 43.5q326 0 452 -170h4zM514 588q0 -117 81.5 -190.5t238.5 -73.5q172 0 247.5 71.5t75.5 188.5q0 123 -81 195.5t-242 72.5q-157 0 -238.5 -74t-81.5 -190z" />
    <glyph glyph-name="h" unicode="h" horiz-adv-x="1593" 
d="M115 0v1499h434v-549h4q60 85 178 137t277 52q213 0 342 -104t129 -304v-731h-435v600q0 105 -57.5 158t-167.5 53q-121 0 -195.5 -67.5t-74.5 -198.5v-545h-434z" />
    <glyph glyph-name="i" unicode="i" horiz-adv-x="679" 
d="M123 0v1110h434v-1110h-434zM123 1237v262h434v-262h-434z" />
    <glyph glyph-name="j" unicode="j" horiz-adv-x="720" 
d="M-55 -395v297h51q60 0 90.5 4t49.5 21t23.5 42t4.5 76v1065h434v-1096q0 -124 -18 -200t-68.5 -126.5t-132.5 -69.5t-217 -19q-46 0 -217 6zM164 1237v262h434v-262h-434z" />
    <glyph glyph-name="k" unicode="k" horiz-adv-x="1593" 
d="M115 0v1499h434v-776l434 387h588l-512 -412l561 -698h-590l-315 420l-166 -133v-287h-434z" />
    <glyph glyph-name="l" unicode="l" horiz-adv-x="679" 
d="M123 0v1499h434v-1499h-434z" />
    <glyph glyph-name="m" unicode="m" horiz-adv-x="2392" 
d="M115 0v1110h422v-162h4q91 89 196 140t250 51q127 0 225.5 -43t167.5 -148q96 95 203.5 143t263.5 48q90 0 165 -20.5t136 -64t95 -118t34 -174.5v-762h-434v647q0 79 -49 121.5t-137 42.5q-117 0 -180.5 -51.5t-63.5 -138.5v-621h-434v647q0 79 -49 121.5t-137 42.5
q-117 0 -180.5 -51.5t-63.5 -138.5v-621h-434z" />
    <glyph glyph-name="n" unicode="n" horiz-adv-x="1593" 
d="M115 0v1110h422v-160h4q70 86 189.5 137.5t277.5 51.5q213 0 342 -104t129 -304v-731h-435v600q0 105 -57.5 158t-167.5 53q-121 0 -195.5 -67.5t-74.5 -198.5v-545h-434z" />
    <glyph glyph-name="o" unicode="o" 
d="M834 868q-151 0 -235.5 -79.5t-84.5 -233.5t84.5 -233.5t235.5 -79.5t235 79.5t84 233.5t-84 233.5t-235 79.5zM55 555q0 294 200.5 447t578.5 153t578 -153t200 -447t-200 -447t-578 -153t-578.5 153t-200.5 447z" />
    <glyph glyph-name="p" unicode="p" 
d="M115 -401v1511h422v-147h4q69 84 179 130t243 46q299 0 474 -158.5t175 -443.5q0 -121 -44 -227t-125 -185t-204 -124.5t-272 -45.5q-139 0 -247.5 40t-166.5 105h-4v-501h-434zM549 553q0 -132 79.5 -207.5t229.5 -75.5q149 0 228 72.5t79 210.5t-79 210.5t-228 72.5
q-150 0 -229.5 -75.5t-79.5 -207.5z" />
    <glyph glyph-name="q" unicode="q" 
d="M1118 -401v501h-4q-59 -65 -169 -105t-257 -40q-150 0 -271 44.5t-199.5 123.5t-120.5 184.5t-42 229.5q0 277 182 439.5t480 162.5q124 0 232.5 -46t176.5 -130h4v147h422v-1511h-434zM1118 553q0 132 -79.5 207.5t-229.5 75.5q-149 0 -228 -72.5t-79 -210.5t79 -210.5
t228 -72.5q150 0 229.5 75.5t79.5 207.5z" />
    <glyph glyph-name="r" unicode="r" horiz-adv-x="1175" 
d="M123 0v1110h428v-219h4q66 112 187 180t266 68q77 0 147 -13v-405q-42 15 -111 26t-129 11q-181 0 -269.5 -86t-88.5 -242v-430h-434z" />
    <glyph glyph-name="s" unicode="s" horiz-adv-x="1554" 
d="M55 346h504q10 -67 62 -94q59 -35 192 -35q199 0 199 98q0 43 -33.5 61t-116.5 27l-387 48q-195 24 -289 97.5t-94 211.5q0 111 46 188.5t136 122t210 64.5t282 20q663 0 692 -369h-487q-6 68 -78 95q-57 24 -156 24q-198 0 -198 -104q0 -63 139 -78l375 -41
q231 -25 338.5 -104t107.5 -238q0 -385 -711 -385q-72 0 -137.5 4t-140 15t-137 29t-122 48.5t-101 70t-67.5 97t-28 127.5z" />
    <glyph glyph-name="t" unicode="t" horiz-adv-x="1024" 
d="M0 823v287h227v352h435v-352h286v-287h-286v-446q0 -74 26 -94.5t115 -20.5q39 0 153 4v-270q-154 -21 -329 -21q-218 0 -309 67t-91 243v538h-227z" />
    <glyph glyph-name="u" unicode="u" horiz-adv-x="1593" 
d="M115 403v707h434v-573q0 -137 56 -195.5t169 -58.5q121 0 195.5 67.5t74.5 198.5v561h435v-1110h-422v143h-4q-69 -86 -189 -137t-278 -51q-104 0 -186.5 23.5t-148 74.5t-101 139.5t-35.5 210.5z" />
    <glyph glyph-name="v" unicode="v" horiz-adv-x="1478" 
d="M492 0l-512 1110h493l266 -731l267 731h493l-512 -1110h-495z" />
    <glyph glyph-name="w" unicode="w" horiz-adv-x="2314" 
d="M406 0l-402 1110h471l230 -729h4l252 729h393l252 -729h4l229 729h471l-401 -1110h-516l-234 653h-4l-233 -653h-516z" />
    <glyph glyph-name="x" unicode="x" horiz-adv-x="1593" 
d="M-12 0l512 575l-469 535h538l228 -322l227 322h539l-467 -535l510 -575h-559l-250 342l-250 -342h-559z" />
    <glyph glyph-name="y" unicode="y" horiz-adv-x="1402" 
d="M131 -389v274h105q54 0 91.5 6.5t58 19.5t29.5 24t19 30l49 98l-522 1047h471l281 -659l270 659h459l-590 -1249q-27 -58 -48 -93t-54.5 -71t-73.5 -55t-100 -31t-140 -12q-137 0 -305 12z" />
    <glyph glyph-name="z" unicode="z" horiz-adv-x="1366" 
d="M45 0v262l668 541v4h-633v303h1220v-262l-647 -545h668v-303h-1276z" />
    <glyph glyph-name="braceleft" unicode="{" horiz-adv-x="985" 
d="M57 399v275q23 0 49.5 4t62 15t58.5 37.5t23 64.5v385q0 140 78.5 211t228.5 71h358v-262h-112q-39 0 -65 -11.5t-36.5 -33t-14 -39.5t-3.5 -43v-346q-1 -53 -24.5 -92t-61 -58t-70 -27.5t-65.5 -10.5v-4q31 -3 51.5 -6t55.5 -16t57 -33.5t39 -59.5t18 -92v-328
q0 -25 3.5 -43t14 -39.5t36.5 -33t65 -11.5h112v-262h-358q-150 0 -228.5 71.5t-78.5 211.5v366q0 44 -23 74t-58.5 43t-62 17.5t-49.5 4.5z" />
    <glyph glyph-name="bar" unicode="|" horiz-adv-x="454" 
d="M76 -45v1552h303v-1552h-303z" />
    <glyph glyph-name="braceright" unicode="}" horiz-adv-x="985" 
d="M928 674v-275q-17 0 -37 -2t-49 -9t-51.5 -19.5t-39 -35.5t-16.5 -54v-385q0 -140 -78.5 -211.5t-228.5 -71.5h-358v262h112q39 0 65 11.5t36.5 33t14 39.5t3.5 43v346q1 53 24.5 92t61 58.5t70 28t65.5 10.5v4q-31 3 -51.5 6t-56 16t-57 33t-38.5 59t-18 92v328
q0 25 -3.5 43t-14 39.5t-36.5 33t-65 11.5h-112v262h358q150 0 228.5 -71t78.5 -211v-367q0 -44 23 -74t58.5 -43t62 -17.5t49.5 -4.5z" />
    <glyph glyph-name="asciitilde" unicode="~" horiz-adv-x="1228" 
d="M215 297l-74 258q92 176 256 176q91 0 228 -65q54 -26 78.5 -37t64.5 -24t66 -13q29 0 55 11.5t49.5 36t38 44.5t37.5 55l73 -258q-23 -32 -38.5 -52t-41 -46.5t-49.5 -41t-57 -25.5t-70 -11q-52 0 -99 17t-109 51q-127 71 -236 71q-105 0 -172 -147z" />
    <glyph glyph-name="nbspace" unicode="&#xa0;" horiz-adv-x="794" 
 />
    <glyph glyph-name="exclamdown" unicode="&#xa1;" horiz-adv-x="794" 
d="M162 -352l59 944h352l60 -944h-471zM168 705v405h459v-405h-459z" />
    <glyph glyph-name="cent" unicode="&#xa2;" horiz-adv-x="1818" 
d="M881 246v620q-125 -17 -194 -97.5t-69 -213.5t68 -212.5t195 -96.5zM881 -262v221q-354 9 -537.5 157t-183.5 439q0 576 721 598v186h114v-186q641 -17 691 -475h-447q-28 171 -244 188v-620q215 19 252 207h459q-20 -118 -67.5 -205t-131.5 -152t-211.5 -99t-300.5 -38
v-221h-114z" />
    <glyph glyph-name="sterling" unicode="&#xa3;" horiz-adv-x="1818" 
d="M152 616v213h116q-49 104 -49 195q0 108 55 190.5t153.5 133.5t228 76.5t286.5 25.5q365 0 545 -126t180 -404h-504q0 100 -45 153q-52 62 -178 62q-93 0 -155 -43.5t-62 -108.5q0 -23 3.5 -46t6.5 -34.5t11.5 -38t11.5 -35.5h323v-213h-309q-15 -171 -174 -276l4 -4
q94 51 229 51q64 0 204 -25.5t212 -25.5q188 0 336 123l131 -338q-41 -29 -75.5 -49.5t-95.5 -47.5t-138.5 -42t-165.5 -15q-102 0 -324.5 46t-298.5 46q-142 0 -313 -92l-178 305q90 53 139 112t49 144q0 59 -4 88h-155z" />
    <glyph glyph-name="currency" unicode="&#xa4;" horiz-adv-x="1818" 
d="M1753 1319l-180 -287q-63 48 -150 78q-104 37 -241 37q-161 0 -252 -55q-82 -51 -121 -140h727l-106 -176h-652q-11 -65 6 -139h566l-107 -176h-416q29 -84 113 -135q93 -56 242 -56q173 0 317 68q115 56 193 149v-389q-76 -45 -187 -80q-167 -51 -377 -51
q-344 0 -550 146q-180 124 -240 348h-277l107 176h141q-11 65 -2 139h-246l107 176h166q60 226 250 357q204 141 561 141q210 0 403 -47q114 -31 205 -84z" />
    <glyph glyph-name="yen" unicode="&#xa5;" horiz-adv-x="1818" 
d="M692 0v199h-442v213h442v90l-47 67h-395v213h246l-453 635h539l327 -598l328 598h539l-451 -635h244v-213h-395l-48 -67v-90h443v-213h-443v-199h-434z" />
    <glyph glyph-name="brokenbar" unicode="&#xa6;" horiz-adv-x="454" 
d="M76 -45v606h303v-606h-303zM76 901v606h303v-606h-303z" />
    <glyph glyph-name="section" unicode="&#xa7;" horiz-adv-x="1818" 
d="M1075 63l-567 134q-95 22 -172 55.5t-139 83t-96.5 120t-34.5 156.5q0 232 210 324q-73 68 -73 186q0 35 8 69.5t28.5 73t52.5 73t84 66t118.5 54t160.5 36t205 13.5q694 0 744 -436h-465q-3 83 -66.5 116.5t-206.5 33.5q-112 0 -164.5 -29t-52.5 -74q0 -32 36 -52.5
t136 -41.5l463 -96q250 -53 359.5 -152.5t109.5 -261.5q0 -204 -194 -309q94 -82 94 -191q0 -94 -40.5 -169t-125 -130.5t-223.5 -85.5t-326 -30q-726 0 -778 450h465q7 -43 27 -74.5t48.5 -51t70.5 -31t86.5 -15.5t103.5 -4q97 0 159 27t62 75q0 36 -24 55t-83 33z
M1188 596l-651 166q-66 -52 -66 -113q0 -86 133 -121l694 -176q50 53 50 115q0 48 -37.5 77.5t-122.5 51.5z" />
    <glyph glyph-name="dieresis" unicode="&#xa8;" horiz-adv-x="569" 
d="M-246 1219v262h434v-262h-434zM381 1219v262h434v-262h-434z" />
    <glyph glyph-name="copyright" unicode="&#xa9;" horiz-adv-x="1638" 
d="M305 731q0 -125 42.5 -230.5t113.5 -174.5t163.5 -107.5t194.5 -38.5q100 0 192 38.5t164 107.5t115 174.5t43 230.5t-43 230.5t-115 174.5t-164 107.5t-192 38.5q-102 0 -194.5 -38.5t-163.5 -107.5t-113.5 -174.5t-42.5 -230.5zM989 610h234q-22 -155 -126 -241
t-245 -86q-192 0 -312 127.5t-120 318.5q0 196 115.5 322.5t304.5 126.5q150 0 250 -82.5t124 -237.5h-225q-13 59 -52 91t-97 32q-93 0 -144 -66.5t-51 -181.5q0 -116 54.5 -185t146.5 -69q59 0 97.5 33.5t45.5 97.5zM43 731q0 158 61.5 301.5t165.5 247.5t247.5 165.5
t301.5 61.5t301.5 -61.5t247.5 -165.5t165.5 -247.5t61.5 -301.5t-61.5 -301.5t-165.5 -247.5t-247.5 -165.5t-301.5 -61.5t-301.5 61.5t-247.5 165.5t-165.5 247.5t-61.5 301.5z" />
    <glyph glyph-name="ordfeminine" unicode="&#xaa;" horiz-adv-x="1083" 
d="M1061 733h-309q-13 33 -13 62q-65 -44 -143.5 -65t-194.5 -21q-196 0 -287 54.5t-91 176.5q0 105 84 159t258 62l256 13q88 5 88 47q0 65 -164 65q-132 0 -154 -74h-317q19 140 155 197q101 41 322 41q91 0 159.5 -6t131 -21.5t102 -42t63 -70t23.5 -102.5v-354
q0 -43 6 -67.5t25 -53.5zM715 1022v29q-15 -4 -107 -15l-159 -22q-82 -9 -82 -64q0 -27 33 -46t79 -19q107 0 171.5 38t64.5 99z" />
    <glyph glyph-name="guillemotleft" unicode="&#xab;" horiz-adv-x="1327" 
d="M705 414v360l421 311v-303l-249 -188l249 -188v-304zM172 414v360l422 311v-303l-250 -188l250 -188v-304z" />
    <glyph glyph-name="logicalnot" unicode="&#xac;" horiz-adv-x="1228" 
d="M846 221v383h-750v287h1037v-670h-287z" />
    <glyph glyph-name="registered" unicode="&#xae;" horiz-adv-x="1638" 
d="M43 731q0 158 61.5 301.5t165.5 247.5t247.5 165.5t301.5 61.5t301.5 -61.5t247.5 -165.5t165.5 -247.5t61.5 -301.5t-61.5 -301.5t-165.5 -247.5t-247.5 -165.5t-301.5 -61.5t-301.5 61.5t-247.5 165.5t-165.5 247.5t-61.5 301.5zM305 731q0 -125 42.5 -230.5
t113.5 -174.5t163.5 -107.5t194.5 -38.5q100 0 192 38.5t164 107.5t115 174.5t43 230.5t-43 230.5t-115 174.5t-164 107.5t-192 38.5q-102 0 -194.5 -38.5t-163.5 -107.5t-113.5 -174.5t-42.5 -230.5zM520 362v791h275q177 0 266.5 -57t89.5 -199q0 -55 -15 -96.5t-40 -65.5
t-51 -36.5t-54 -16.5l183 -320h-220l-170 300h-67v-300h-197zM717 813h102q119 0 119 94t-119 94h-102v-188z" />
    <glyph glyph-name="macron" unicode="&#xaf;" horiz-adv-x="569" 
d="M-254 1270v237h1077v-237h-1077z" />
    <glyph glyph-name="degree" unicode="&#xb0;" horiz-adv-x="819" 
d="M82 1122q0 135 96.5 231.5t231.5 96.5t231 -96.5t96 -231.5t-96 -231t-231 -96t-231.5 96t-96.5 231zM233 1122q0 -72 52.5 -124t124.5 -52t124 52t52 124t-52 124t-124 52t-124.5 -52t-52.5 -124z" />
    <glyph glyph-name="plusminus" unicode="&#xb1;" horiz-adv-x="1228" 
d="M471 856v180h287v-180h375v-287h-375v-180h-287v180h-375v287h375zM96 0v287h1037v-287h-1037z" />
    <glyph glyph-name="twosuperior" unicode="&#xb2;" horiz-adv-x="1181" 
d="M1102 791v-213h-1073q4 94 37.5 166t94 120t130.5 79t166 56l221 58q41 11 68.5 34.5t27.5 51.5q0 91 -164 94q-82 0 -136 -34.5t-60 -104.5h-369q14 197 168 280q133 72 397 72q533 0 533 -309q0 -204 -318 -260q-30 -5 -98.5 -16.5t-104.5 -18t-84.5 -16t-79.5 -18
t-50 -17.5v-4h694z" />
    <glyph glyph-name="threesuperior" unicode="&#xb3;" horiz-adv-x="1181" 
d="M406 913v197h182q145 0 145 70q0 39 -47.5 56t-114.5 17q-74 0 -114.5 -14.5t-59.5 -62.5h-364q16 160 182 225q128 49 379 49q273 0 390.5 -59.5t117.5 -194.5q0 -74 -53.5 -119.5t-133.5 -50.5v-4q97 -8 161.5 -59t64.5 -142q0 -140 -139.5 -204t-423.5 -64
q-161 0 -270.5 17t-174 54.5t-93.5 89t-34 126.5h356q6 -33 56 -54q58 -20 149 -20q193 0 193 63q0 84 -193 84h-161z" />
    <glyph glyph-name="acute" unicode="&#xb4;" horiz-adv-x="569" 
d="M27 1237l186 287h528l-305 -287h-409z" />
    <glyph glyph-name="mu" unicode="&#xb5;" horiz-adv-x="1593" 
d="M1057 0v143h-4q-133 -188 -310 -188q-125 0 -190 74h-4v-430h-434v1511h434v-573q0 -137 56 -195.5t169 -58.5q121 0 195.5 67.5t74.5 198.5v561h435v-1110h-422z" />
    <glyph glyph-name="paragraph" unicode="&#xb6;" horiz-adv-x="1474" 
d="M524 -356v1032q-226 0 -351.5 99t-125.5 288q0 96 28 168t74 115.5t115.5 70t142 36t164.5 9.5h746v-1818h-287v1593h-219v-1593h-287z" />
    <glyph glyph-name="periodcentered" unicode="&#xb7;" horiz-adv-x="794" 
d="M154 532q0 101 71 172.5t172 71.5t172.5 -71.5t71.5 -172.5t-71.5 -172t-172.5 -71t-172 71t-71 172z" />
    <glyph glyph-name="cedilla" unicode="&#xb8;" horiz-adv-x="569" 
d="M-18 -418l36 105q104 -29 166 -29q45 0 71 18t26 45q0 25 -23.5 38.5t-56.5 13.5q-29 0 -74 -15l-51 41l114 170h142l-56 -88q46 4 89 4q33 0 66.5 -9t65 -26.5t51 -50.5t19.5 -75q0 -89 -74.5 -135t-211.5 -46q-151 0 -299 39z" />
    <glyph glyph-name="onesuperior" unicode="&#xb9;" horiz-adv-x="813" 
d="M330 578v495h-262v213h45q56 0 96.5 5t81 19.5t70.5 44.5t49 75h252v-852h-332z" />
    <glyph glyph-name="ordmasculine" unicode="&#xba;" horiz-adv-x="1083" 
d="M346 1079q0 -84 51.5 -129t145.5 -45q92 0 143 45t51 129t-51 129t-143 45q-93 0 -145 -45t-52 -129zM2 1079q0 186 140 278.5t401 92.5q260 0 399 -92.5t139 -278.5q0 -185 -139.5 -277.5t-398.5 -92.5q-261 0 -401 92.5t-140 277.5z" />
    <glyph glyph-name="guillemotright" unicode="&#xbb;" horiz-adv-x="1327" 
d="M201 102v304l250 188l-250 188v303l422 -311v-360zM733 102v304l250 188l-250 188v303l422 -311v-360z" />
    <glyph glyph-name="onequarter" unicode="&#xbc;" horiz-adv-x="2729" 
d="M2013 0v113h-618v221l522 518h412v-490h143v-249h-143v-113h-316zM2013 362v318l-330 -318h330zM600 -33l932 1483h229l-932 -1483h-229zM391 578v495h-262v213h45q56 0 96.5 5t81 19.5t70.5 44.5t49 75h252v-852h-332z" />
    <glyph glyph-name="onehalf" unicode="&#xbd;" horiz-adv-x="2729" 
d="M569 -33l932 1483h230l-932 -1483h-230zM391 578v495h-262v213h45q56 0 96.5 5t81 19.5t70.5 44.5t49 75h252v-852h-332zM2486 213v-213h-1073q4 94 37.5 166t94 120.5t130.5 79.5t166 56l221 57q42 11 69.5 34.5t27.5 51.5q0 91 -164 94q-82 0 -136.5 -34.5
t-60.5 -104.5h-368q14 198 167 281q131 71 398 71q532 0 532 -309q0 -205 -317 -260q-31 -5 -99 -16.5t-104.5 -18t-85 -16t-79.5 -18t-50 -17.5v-4h694z" />
    <glyph glyph-name="threequarters" unicode="&#xbe;" horiz-adv-x="2729" 
d="M2198 0v113h-619v221l522 518h412v-490h143v-249h-143v-113h-315zM2198 362v318l-330 -318h330zM446 913v197h183q145 0 145 70q0 39 -47.5 56t-114.5 17q-74 0 -114.5 -14.5t-59.5 -62.5h-364q16 160 182 225q128 49 379 49q273 0 390.5 -59.5t117.5 -194.5
q0 -74 -53.5 -119.5t-133.5 -50.5v-4q97 -8 161.5 -59t64.5 -142q0 -140 -140 -204t-424 -64q-214 0 -338.5 32.5t-175.5 93t-57 161.5h356q6 -33 56 -54q58 -20 149 -20q193 0 193 63q0 84 -193 84h-162zM866 -33l932 1483h230l-932 -1483h-230z" />
    <glyph glyph-name="questiondown" unicode="&#xbf;" horiz-adv-x="1630" 
d="M616 592h447q-1 -112 -34 -171t-116 -102l-223 -114q-119 -62 -119 -154q0 -68 67 -110.5t167 -42.5q156 0 221.5 62.5t73.5 184.5h481q-21 -188 -103 -304t-242.5 -173t-414.5 -57q-347 0 -542 114t-195 341q0 74 27.5 133t72 96.5t98.5 67t110 53.5t103 47.5t80.5 56
t40.5 72.5zM610 705v405h459v-405h-459z" />
    <glyph glyph-name="Agrave" unicode="&#xc0;" horiz-adv-x="1744" 
d="M-57 0l635 1462h596l628 -1462h-522l-88 238h-639l-88 -238h-522zM1077 541l-203 553h-4l-202 -553h409zM721 1559l-305 286h528l186 -286h-409z" />
    <glyph glyph-name="Aacute" unicode="&#xc1;" horiz-adv-x="1744" 
d="M-57 0l635 1462h596l628 -1462h-522l-88 238h-639l-88 -238h-522zM1077 541l-203 553h-4l-202 -553h409zM614 1559l187 286h528l-305 -286h-410z" />
    <glyph glyph-name="Acircumflex" unicode="&#xc2;" horiz-adv-x="1744" 
d="M-57 0l635 1462h596l628 -1462h-522l-88 238h-639l-88 -238h-522zM1077 541l-203 553h-4l-202 -553h409zM264 1559l305 286h607l305 -286h-480l-145 157l-145 -157h-447z" />
    <glyph glyph-name="Atilde" unicode="&#xc3;" horiz-adv-x="1744" 
d="M-57 0l635 1462h596l628 -1462h-522l-88 238h-639l-88 -238h-522zM1077 541l-203 553h-4l-202 -553h409zM520 1548h-196q69 297 331 297q61 0 146 -18l284 -60q50 -10 58 -10q60 0 88 72h190q-8 -62 -27.5 -114t-52.5 -95.5t-86 -68.5t-122 -25q-60 0 -123.5 12
t-272.5 59q-14 3 -44.5 10.5t-49.5 11t-29 3.5q-74 0 -94 -74z" />
    <glyph glyph-name="Adieresis" unicode="&#xc4;" horiz-adv-x="1744" 
d="M-57 0l635 1462h596l628 -1462h-522l-88 238h-639l-88 -238h-522zM1077 541l-203 553h-4l-202 -553h409zM342 1540v262h434v-262h-434zM969 1540v262h434v-262h-434z" />
    <glyph glyph-name="Aring" unicode="&#xc5;" horiz-adv-x="1744" 
d="M-57 0l635 1462h596l628 -1462h-522l-88 238h-639l-88 -238h-522zM1077 541l-203 553h-4l-202 -553h409zM602 1776q0 112 79 191t191 79q113 0 192 -79t79 -191t-79.5 -191.5t-191.5 -79.5t-191 79t-79 192zM754 1776q0 -50 34.5 -84.5t83.5 -34.5q50 0 84.5 34.5
t34.5 84.5q0 49 -34.5 83.5t-84.5 34.5t-84 -34t-34 -84z" />
    <glyph glyph-name="AE" unicode="&#xc6;" horiz-adv-x="2351" 
d="M-35 0l735 1462h1586v-315h-762v-264h733v-303h-733v-265h770v-315h-1204v276h-486l-123 -276h-516zM1090 580v579h-95l-256 -579h351z" />
    <glyph glyph-name="Ccedilla" unicode="&#xc7;" horiz-adv-x="1972" 
d="M1376 563h541q-14 -71 -33 -130.5t-53.5 -123t-80 -113t-114 -94.5t-154.5 -75.5t-202.5 -49t-255.5 -20.5l-45 -76q46 4 88 4q33 0 66.5 -9t65 -26.5t51.5 -50.5t20 -75q0 -89 -75 -135t-212 -46q-151 0 -299 39l37 105q104 -29 166 -29q44 0 70 18t26 45
q0 25 -23.5 38.5t-56.5 13.5q-29 0 -74 -15l-51 41l107 160q-407 22 -610 218t-203 554q0 376 226.5 576t692.5 200q144 0 258 -14.5t227.5 -54.5t195.5 -106t146 -175.5t95 -257.5h-543q-9 31 -19.5 57.5t-29.5 61t-47.5 61.5t-66.5 51t-93 37t-121 13q-111 0 -191.5 -35.5
t-126 -99t-66.5 -141.5t-21 -173q0 -448 405 -448q161 0 259.5 74.5t123.5 205.5z" />
    <glyph glyph-name="Egrave" unicode="&#xc8;" horiz-adv-x="1669" 
d="M147 0v1462h1465v-315h-977v-264h915v-303h-915v-265h977v-315h-1465zM684 1589l-305 287h528l187 -287h-410z" />
    <glyph glyph-name="Eacute" unicode="&#xc9;" horiz-adv-x="1669" 
d="M147 0v1462h1465v-315h-977v-264h915v-303h-915v-265h977v-315h-1465zM578 1589l186 287h528l-305 -287h-409z" />
    <glyph glyph-name="Ecircumflex" unicode="&#xca;" horiz-adv-x="1669" 
d="M147 0v1462h1465v-315h-977v-264h915v-303h-915v-265h977v-315h-1465zM227 1589l305 287h607l305 -287h-479l-146 158l-145 -158h-447z" />
    <glyph glyph-name="Edieresis" unicode="&#xcb;" horiz-adv-x="1669" 
d="M147 0v1462h1465v-315h-977v-264h915v-303h-915v-265h977v-315h-1465zM305 1571v262h434v-262h-434zM932 1571v262h434v-262h-434z" />
    <glyph glyph-name="Igrave" unicode="&#xcc;" horiz-adv-x="794" 
d="M154 0v1462h487v-1462h-487zM246 1589l-305 287h528l186 -287h-409z" />
    <glyph glyph-name="Iacute" unicode="&#xcd;" horiz-adv-x="794" 
d="M154 0v1462h487v-1462h-487zM139 1589l187 287h528l-305 -287h-410z" />
    <glyph glyph-name="Icircumflex" unicode="&#xce;" horiz-adv-x="794" 
d="M154 0v1462h487v-1462h-487zM-211 1589l305 287h606l306 -287h-480l-145 158l-145 -158h-447z" />
    <glyph glyph-name="Idieresis" unicode="&#xcf;" horiz-adv-x="794" 
d="M154 0v1462h487v-1462h-487zM-133 1571v262h434v-262h-434zM494 1571v262h434v-262h-434z" />
    <glyph glyph-name="Eth" unicode="&#xd0;" horiz-adv-x="1972" 
d="M147 0v596h-147v274h147v592h1057q342 0 519.5 -184t177.5 -547q0 -168 -39.5 -296.5t-106.5 -209.5t-165.5 -132.5t-207.5 -72t-241 -20.5h-994zM954 870v-274h-319v-268h407q81 0 144 23t102 61t64 92t35 109.5t10 119.5q0 402 -393 402h-369v-265h319z" />
    <glyph glyph-name="Ntilde" unicode="&#xd1;" horiz-adv-x="2009" 
d="M147 0v1462h562l677 -915h5v915h471v-1462h-539l-700 924h-5v-924h-471zM653 1579h-196q69 297 331 297q61 0 146 -18l285 -60q50 -10 57 -10q60 0 88 72h190q-8 -62 -27.5 -114t-52.5 -96t-86 -69t-122 -25q-55 0 -114.5 11t-220.5 47q-13 3 -20 4.5t-19 4.5t-22 5
q-15 3 -45 10.5t-48.5 11t-28.5 3.5q-75 0 -95 -74z" />
    <glyph glyph-name="Ograve" unicode="&#xd2;" horiz-adv-x="2048" 
d="M72 731q0 776 952 776t952 -776t-952 -776t-952 776zM588 731q0 -223 117 -335.5t319 -112.5q203 0 319.5 112.5t116.5 335.5q0 222 -116.5 335.5t-319.5 113.5q-202 0 -319 -113.5t-117 -335.5zM872 1589l-305 287h529l186 -287h-410z" />
    <glyph glyph-name="Oacute" unicode="&#xd3;" horiz-adv-x="2048" 
d="M72 731q0 776 952 776t952 -776t-952 -776t-952 776zM588 731q0 -223 117 -335.5t319 -112.5q203 0 319.5 112.5t116.5 335.5q0 222 -116.5 335.5t-319.5 113.5q-202 0 -319 -113.5t-117 -335.5zM766 1589l186 287h529l-305 -287h-410z" />
    <glyph glyph-name="Ocircumflex" unicode="&#xd4;" horiz-adv-x="2048" 
d="M72 731q0 776 952 776t952 -776t-952 -776t-952 776zM588 731q0 -223 117 -335.5t319 -112.5q203 0 319.5 112.5t116.5 335.5q0 222 -116.5 335.5t-319.5 113.5q-202 0 -319 -113.5t-117 -335.5zM416 1589l305 287h606l305 -287h-479l-145 158l-146 -158h-446z" />
    <glyph glyph-name="Otilde" unicode="&#xd5;" horiz-adv-x="2048" 
d="M72 731q0 776 952 776t952 -776t-952 -776t-952 776zM588 731q0 -223 117 -335.5t319 -112.5q203 0 319.5 112.5t116.5 335.5q0 222 -116.5 335.5t-319.5 113.5q-202 0 -319 -113.5t-117 -335.5zM672 1579h-197q69 297 332 297q60 0 145 -18l285 -60q50 -10 57 -10
q60 0 88 72h191q-8 -62 -27.5 -114t-53 -96t-86.5 -69t-122 -25q-55 0 -109 10t-219 47q-43 10 -67 15q-15 3 -45 10.5t-49 11t-29 3.5q-74 0 -94 -74z" />
    <glyph glyph-name="Odieresis" unicode="&#xd6;" horiz-adv-x="2048" 
d="M72 731q0 776 952 776t952 -776t-952 -776t-952 776zM588 731q0 -223 117 -335.5t319 -112.5q203 0 319.5 112.5t116.5 335.5q0 222 -116.5 335.5t-319.5 113.5q-202 0 -319 -113.5t-117 -335.5zM494 1571v262h434v-262h-434zM1120 1571v262h434v-262h-434z" />
    <glyph glyph-name="multiply" unicode="&#xd7;" horiz-adv-x="1228" 
d="M412 518l-293 293l203 203l292 -293l293 293l203 -203l-293 -293l293 -293l-203 -202l-293 292l-292 -292l-203 202z" />
    <glyph glyph-name="Oslash" unicode="&#xd8;" horiz-adv-x="2048" 
d="M629 512l698 567q-110 101 -303 101q-202 0 -319 -113.5t-117 -335.5q0 -129 41 -219zM1419 950l-698 -567q109 -100 303 -100q203 0 319.5 112.5t116.5 335.5q0 129 -41 219zM63 53l187 152q-178 191 -178 526q0 776 952 776q418 0 647 -147l215 174l99 -125l-187 -152
q178 -191 178 -526q0 -776 -952 -776q-415 0 -647 147l-215 -174z" />
    <glyph glyph-name="Ugrave" unicode="&#xd9;" horiz-adv-x="1896" 
d="M127 516v946h487v-866q0 -173 80.5 -243t253.5 -70t253.5 70t80.5 243v866h487v-946q0 -293 -209 -427t-612 -134t-612 134t-209 427zM797 1589l-305 287h528l186 -287h-409z" />
    <glyph glyph-name="Uacute" unicode="&#xda;" horiz-adv-x="1896" 
d="M127 516v946h487v-866q0 -173 80.5 -243t253.5 -70t253.5 70t80.5 243v866h487v-946q0 -293 -209 -427t-612 -134t-612 134t-209 427zM690 1589l187 287h528l-305 -287h-410z" />
    <glyph glyph-name="Ucircumflex" unicode="&#xdb;" horiz-adv-x="1896" 
d="M127 516v946h487v-866q0 -173 80.5 -243t253.5 -70t253.5 70t80.5 243v866h487v-946q0 -293 -209 -427t-612 -134t-612 134t-209 427zM340 1589l305 287h606l305 -287h-479l-145 158l-146 -158h-446z" />
    <glyph glyph-name="Udieresis" unicode="&#xdc;" horiz-adv-x="1896" 
d="M127 516v946h487v-866q0 -173 80.5 -243t253.5 -70t253.5 70t80.5 243v866h487v-946q0 -293 -209 -427t-612 -134t-612 134t-209 427zM418 1571v262h434v-262h-434zM1044 1571v262h435v-262h-435z" />
    <glyph glyph-name="Yacute" unicode="&#xdd;" 
d="M590 0v461l-649 1001h565l328 -620l327 620h565l-649 -1001v-461h-487zM575 1589l187 287h528l-305 -287h-410z" />
    <glyph glyph-name="Thorn" unicode="&#xde;" horiz-adv-x="1820" 
d="M635 954v-368h434q102 0 148.5 44t46.5 140t-46.5 140t-148.5 44h-434zM147 0v1462h488v-205h594q145 0 251 -36.5t167.5 -104t90.5 -153.5t29 -193q0 -76 -15.5 -144t-53.5 -132t-95.5 -110t-147.5 -73.5t-204 -27.5h-616v-283h-488z" />
    <glyph glyph-name="germandbls" unicode="&#xdf;" horiz-adv-x="1705" 
d="M129 0v1004q0 90 20 162t70.5 136t132 106t208.5 66.5t296 24.5q686 0 686 -393q0 -118 -59 -183t-144 -79v-4q130 -23 210.5 -122.5t80.5 -275.5q0 -150 -78.5 -256.5t-213.5 -158.5t-314 -52q-94 0 -188.5 12.5t-145.5 26.5v303q121 -26 221 -26q125 0 192.5 51.5
t67.5 151.5q0 182 -307 182h-135v250h105q237 0 237 129q0 141 -223 141q-89 0 -147 -18.5t-87.5 -58t-40 -86.5t-10.5 -118v-915h-434z" />
    <glyph glyph-name="agrave" unicode="&#xe0;" 
d="M565 762h-434q9 69 34 124.5t61.5 94.5t88.5 68t106.5 46t125 27t135 13.5t143.5 3.5q129 0 229 -9t193 -34t153 -66.5t96 -109t36 -158.5v-561q0 -70 9.5 -112t35.5 -89h-434q-19 46 -23 102q-88 -84 -214.5 -115.5t-307.5 -31.5q-267 0 -405 87t-138 259
q0 182 118 264.5t362 98.5l432 28q81 6 106 25t25 65q0 119 -275 119q-119 0 -181 -34t-77 -105zM1110 451v67q-58 -17 -166 -31l-293 -34q-66 -7 -95.5 -34.5t-29.5 -78.5q0 -64 53 -99.5t142 -35.5q186 0 287.5 65.5t101.5 180.5zM682 1237l-305 287h528l187 -287h-410z
" />
    <glyph glyph-name="aacute" unicode="&#xe1;" 
d="M565 762h-434q9 69 34 124.5t61.5 94.5t88.5 68t106.5 46t125 27t135 13.5t143.5 3.5q129 0 229 -9t193 -34t153 -66.5t96 -109t36 -158.5v-561q0 -70 9.5 -112t35.5 -89h-434q-19 46 -23 102q-88 -84 -214.5 -115.5t-307.5 -31.5q-267 0 -405 87t-138 259
q0 182 118 264.5t362 98.5l432 28q81 6 106 25t25 65q0 119 -275 119q-119 0 -181 -34t-77 -105zM1110 451v67q-58 -17 -166 -31l-293 -34q-66 -7 -95.5 -34.5t-29.5 -78.5q0 -64 53 -99.5t142 -35.5q186 0 287.5 65.5t101.5 180.5zM575 1237l187 287h528l-305 -287h-410z
" />
    <glyph glyph-name="acircumflex" unicode="&#xe2;" 
d="M565 762h-434q9 69 34 124.5t61.5 94.5t88.5 68t106.5 46t125 27t135 13.5t143.5 3.5q129 0 229 -9t193 -34t153 -66.5t96 -109t36 -158.5v-561q0 -70 9.5 -112t35.5 -89h-434q-19 46 -23 102q-88 -84 -214.5 -115.5t-307.5 -31.5q-267 0 -405 87t-138 259
q0 182 118 264.5t362 98.5l432 28q81 6 106 25t25 65q0 119 -275 119q-119 0 -181 -34t-77 -105zM1110 451v67q-58 -17 -166 -31l-293 -34q-66 -7 -95.5 -34.5t-29.5 -78.5q0 -64 53 -99.5t142 -35.5q186 0 287.5 65.5t101.5 180.5zM225 1237l305 287h607l305 -287h-479
l-146 158l-145 -158h-447z" />
    <glyph glyph-name="atilde" unicode="&#xe3;" 
d="M565 762h-434q9 69 34 124.5t61.5 94.5t88.5 68t106.5 46t125 27t135 13.5t143.5 3.5q129 0 229 -9t193 -34t153 -66.5t96 -109t36 -158.5v-561q0 -70 9.5 -112t35.5 -89h-434q-19 46 -23 102q-88 -84 -214.5 -115.5t-307.5 -31.5q-267 0 -405 87t-138 259
q0 182 118 264.5t362 98.5l432 28q81 6 106 25t25 65q0 119 -275 119q-119 0 -181 -34t-77 -105zM1110 451v67q-58 -17 -166 -31l-293 -34q-66 -7 -95.5 -34.5t-29.5 -78.5q0 -64 53 -99.5t142 -35.5q186 0 287.5 65.5t101.5 180.5zM481 1227h-196q69 297 331 297
q56 0 146 -19l285 -59q50 -10 57 -10q61 0 88 71h190q-8 -62 -27.5 -114t-52.5 -95.5t-86 -68.5t-122 -25q-55 0 -114.5 11t-220.5 47q-13 3 -20 4.5t-19 4.5t-22 5q-113 24 -123 24q-74 0 -94 -73z" />
    <glyph glyph-name="adieresis" unicode="&#xe4;" 
d="M565 762h-434q9 69 34 124.5t61.5 94.5t88.5 68t106.5 46t125 27t135 13.5t143.5 3.5q129 0 229 -9t193 -34t153 -66.5t96 -109t36 -158.5v-561q0 -70 9.5 -112t35.5 -89h-434q-19 46 -23 102q-88 -84 -214.5 -115.5t-307.5 -31.5q-267 0 -405 87t-138 259
q0 182 118 264.5t362 98.5l432 28q81 6 106 25t25 65q0 119 -275 119q-119 0 -181 -34t-77 -105zM1110 451v67q-58 -17 -166 -31l-293 -34q-66 -7 -95.5 -34.5t-29.5 -78.5q0 -64 53 -99.5t142 -35.5q186 0 287.5 65.5t101.5 180.5zM303 1219v262h434v-262h-434zM930 1219
v262h434v-262h-434z" />
    <glyph glyph-name="aring" unicode="&#xe5;" 
d="M565 762h-434q9 69 34 124.5t61.5 94.5t88.5 68t106.5 46t125 27t135 13.5t143.5 3.5q129 0 229 -9t193 -34t153 -66.5t96 -109t36 -158.5v-561q0 -70 9.5 -112t35.5 -89h-434q-19 46 -23 102q-88 -84 -214.5 -115.5t-307.5 -31.5q-267 0 -405 87t-138 259
q0 182 118 264.5t362 98.5l432 28q81 6 106 25t25 65q0 119 -275 119q-119 0 -181 -34t-77 -105zM1110 451v67q-58 -17 -166 -31l-293 -34q-66 -7 -95.5 -34.5t-29.5 -78.5q0 -64 53 -99.5t142 -35.5q186 0 287.5 65.5t101.5 180.5zM584 1475q0 113 79 191.5t191 78.5
t191 -78.5t79 -191.5t-79 -192t-191 -79t-191 79t-79 192zM735 1475q0 -49 34.5 -84t84.5 -35t84.5 35t34.5 84t-34.5 83.5t-84.5 34.5t-84.5 -34.5t-34.5 -83.5z" />
    <glyph glyph-name="ae" unicode="&#xe6;" horiz-adv-x="2390" 
d="M545 762h-414q13 75 42 135.5t66.5 101t90.5 70t103 46t116 26t119 12t120 2.5q167 0 273.5 -30.5t179.5 -96.5q60 59 174 93t236 34q173 0 302.5 -45.5t210.5 -132t120.5 -204t39.5 -267.5v-53h-948q5 -50 21.5 -92t48.5 -78.5t86.5 -57t126.5 -20.5q70 0 119 20
t70 43.5t40 59.5h422q-34 -100 -97 -174t-146.5 -116.5t-176.5 -62.5t-200 -20q-343 0 -490 178q-75 -81 -224.5 -129.5t-340.5 -48.5q-135 0 -235 18t-177.5 59t-117 113t-39.5 174q0 161 113 241t374 99q57 4 170.5 11.5t169.5 11.5q65 4 94 27.5t29 68.5q0 68 -55 97.5
t-168 29.5q-118 0 -179.5 -30.5t-68.5 -112.5zM1376 666h555q-19 107 -87 173t-193 66q-121 0 -188.5 -66.5t-86.5 -172.5zM1020 446v62q-37 -19 -105.5 -29t-155.5 -16t-116 -10q-68 -8 -105.5 -39.5t-37.5 -83.5q0 -59 50.5 -92t143.5 -33q166 0 246 57.5t80 183.5z" />
    <glyph glyph-name="ccedilla" unicode="&#xe7;" 
d="M1153 453h459q-49 -242 -224.5 -367t-515.5 -129l-47 -76q46 4 88 4q33 0 66.5 -9t65 -26.5t51.5 -50.5t20 -75q0 -89 -75 -135t-212 -46q-151 0 -299 39l37 105q104 -29 166 -29q44 0 70 18t26 45q0 25 -23 38.5t-56 13.5q-29 0 -74 -15l-51 41l108 162
q-324 19 -495.5 167.5t-171.5 426.5q0 197 95.5 333t268.5 201.5t414 65.5q694 0 747 -477h-446q-31 190 -295 190q-153 0 -239.5 -81.5t-86.5 -231.5t85.5 -231.5t242.5 -81.5q125 0 202.5 53t98.5 158z" />
    <glyph glyph-name="egrave" unicode="&#xe8;" 
d="M512 678h643q-21 101 -99 164t-222 63t-222.5 -63t-99.5 -164zM1122 330h459q-21 -73 -72.5 -137t-137 -119t-221.5 -87t-306 -32q-381 0 -579.5 149t-198.5 453q0 193 95.5 329t266.5 202.5t403 66.5q367 0 569 -166t202 -504v-32h-1090q18 -114 103.5 -181t244.5 -67
q95 0 156 33.5t106 91.5zM682 1237l-305 287h528l187 -287h-410z" />
    <glyph glyph-name="eacute" unicode="&#xe9;" 
d="M512 678h643q-21 101 -99 164t-222 63t-222.5 -63t-99.5 -164zM1122 330h459q-21 -73 -72.5 -137t-137 -119t-221.5 -87t-306 -32q-381 0 -579.5 149t-198.5 453q0 193 95.5 329t266.5 202.5t403 66.5q367 0 569 -166t202 -504v-32h-1090q18 -114 103.5 -181t244.5 -67
q95 0 156 33.5t106 91.5zM575 1237l187 287h528l-305 -287h-410z" />
    <glyph glyph-name="ecircumflex" unicode="&#xea;" 
d="M512 678h643q-21 101 -99 164t-222 63t-222.5 -63t-99.5 -164zM1122 330h459q-21 -73 -72.5 -137t-137 -119t-221.5 -87t-306 -32q-381 0 -579.5 149t-198.5 453q0 193 95.5 329t266.5 202.5t403 66.5q367 0 569 -166t202 -504v-32h-1090q18 -114 103.5 -181t244.5 -67
q95 0 156 33.5t106 91.5zM225 1237l305 287h607l305 -287h-479l-146 158l-145 -158h-447z" />
    <glyph glyph-name="edieresis" unicode="&#xeb;" 
d="M512 678h643q-21 101 -99 164t-222 63t-222.5 -63t-99.5 -164zM1122 330h459q-21 -73 -72.5 -137t-137 -119t-221.5 -87t-306 -32q-381 0 -579.5 149t-198.5 453q0 193 95.5 329t266.5 202.5t403 66.5q367 0 569 -166t202 -504v-32h-1090q18 -114 103.5 -181t244.5 -67
q95 0 156 33.5t106 91.5zM303 1219v262h434v-262h-434zM930 1219v262h434v-262h-434z" />
    <glyph glyph-name="igrave" unicode="&#xec;" horiz-adv-x="679" 
d="M123 0v1110h434v-1110h-434zM188 1237l-305 287h529l186 -287h-410z" />
    <glyph glyph-name="iacute" unicode="&#xed;" horiz-adv-x="679" 
d="M123 0v1110h434v-1110h-434zM82 1237l186 287h529l-305 -287h-410z" />
    <glyph glyph-name="icircumflex" unicode="&#xee;" horiz-adv-x="679" 
d="M123 0v1110h434v-1110h-434zM-268 1237l305 287h606l305 -287h-479l-145 158l-146 -158h-446z" />
    <glyph glyph-name="idieresis" unicode="&#xef;" horiz-adv-x="679" 
d="M123 0v1110h434v-1110h-434zM-190 1219v262h434v-262h-434zM436 1219v262h434v-262h-434z" />
    <glyph glyph-name="eth" unicode="&#xf0;" 
d="M514 494q0 -121 79.5 -186.5t240.5 -65.5q159 0 239 65.5t80 186.5t-80 186t-239 65t-239.5 -65t-80.5 -186zM291 1188l239 104q-110 39 -219 68l230 227q212 -35 399 -112l248 108l151 -98l-219 -96q231 -135 361.5 -336.5t130.5 -462.5q0 -328 -197 -481.5t-581 -153.5
q-378 0 -578.5 141.5t-200.5 417.5q0 103 35.5 189.5t97 146.5t144 101.5t175.5 61t193 19.5q119 0 197.5 -20t146.5 -66l5 4q-92 152 -324 262l-299 -131z" />
    <glyph glyph-name="ntilde" unicode="&#xf1;" horiz-adv-x="1593" 
d="M115 0v1110h422v-160h4q70 86 189.5 137.5t277.5 51.5q213 0 342 -104t129 -304v-731h-435v600q0 105 -57.5 158t-167.5 53q-121 0 -195.5 -67.5t-74.5 -198.5v-545h-434zM444 1227h-196q69 297 332 297q55 0 145 -19l285 -59q50 -10 57 -10q61 0 88 71h191
q-8 -62 -27.5 -114t-53 -95.5t-86.5 -68.5t-122 -25q-55 0 -109 10t-219 47q-43 10 -67 15q-113 24 -123 24q-75 0 -95 -73z" />
    <glyph glyph-name="ograve" unicode="&#xf2;" 
d="M834 868q-151 0 -235.5 -79.5t-84.5 -233.5t84.5 -233.5t235.5 -79.5t235 79.5t84 233.5t-84 233.5t-235 79.5zM55 555q0 294 200.5 447t578.5 153t578 -153t200 -447t-200 -447t-578 -153t-578.5 153t-200.5 447zM682 1237l-305 287h528l187 -287h-410z" />
    <glyph glyph-name="oacute" unicode="&#xf3;" 
d="M834 868q-151 0 -235.5 -79.5t-84.5 -233.5t84.5 -233.5t235.5 -79.5t235 79.5t84 233.5t-84 233.5t-235 79.5zM55 555q0 294 200.5 447t578.5 153t578 -153t200 -447t-200 -447t-578 -153t-578.5 153t-200.5 447zM575 1237l187 287h528l-305 -287h-410z" />
    <glyph glyph-name="ocircumflex" unicode="&#xf4;" 
d="M834 868q-151 0 -235.5 -79.5t-84.5 -233.5t84.5 -233.5t235.5 -79.5t235 79.5t84 233.5t-84 233.5t-235 79.5zM55 555q0 294 200.5 447t578.5 153t578 -153t200 -447t-200 -447t-578 -153t-578.5 153t-200.5 447zM225 1237l305 287h607l305 -287h-479l-146 158
l-145 -158h-447z" />
    <glyph glyph-name="otilde" unicode="&#xf5;" 
d="M834 868q-151 0 -235.5 -79.5t-84.5 -233.5t84.5 -233.5t235.5 -79.5t235 79.5t84 233.5t-84 233.5t-235 79.5zM55 555q0 294 200.5 447t578.5 153t578 -153t200 -447t-200 -447t-578 -153t-578.5 153t-200.5 447zM481 1227h-196q69 297 331 297q56 0 146 -19l285 -59
q50 -10 57 -10q61 0 88 71h190q-8 -62 -27.5 -114t-52.5 -95.5t-86 -68.5t-122 -25q-55 0 -114.5 11t-220.5 47q-13 3 -20 4.5t-19 4.5t-22 5q-113 24 -123 24q-74 0 -94 -73z" />
    <glyph glyph-name="odieresis" unicode="&#xf6;" 
d="M834 868q-151 0 -235.5 -79.5t-84.5 -233.5t84.5 -233.5t235.5 -79.5t235 79.5t84 233.5t-84 233.5t-235 79.5zM55 555q0 294 200.5 447t578.5 153t578 -153t200 -447t-200 -447t-578 -153t-578.5 153t-200.5 447zM303 1219v262h434v-262h-434zM930 1219v262h434v-262
h-434z" />
    <glyph glyph-name="divide" unicode="&#xf7;" horiz-adv-x="1228" 
d="M96 375v287h1037v-287h-1037zM412 952q0 85 58.5 144t143.5 59t144 -59t59 -144t-59 -143.5t-144 -58.5t-143.5 58.5t-58.5 143.5zM412 84q0 85 58.5 144t143.5 59t144 -59t59 -144t-59 -144t-144 -59t-143.5 59t-58.5 144z" />
    <glyph glyph-name="oslash" unicode="&#xf8;" 
d="M41 31l162 125q-148 151 -148 399q0 294 200.5 447t578.5 153q328 0 520 -115l190 148l82 -109l-162 -125q148 -148 148 -399q0 -294 -200 -447t-578 -153q-332 0 -521 115l-190 -148zM539 414l508 391q-78 63 -213 63q-151 0 -235.5 -79.5t-84.5 -233.5q0 -80 25 -141z
M1128 696l-507 -391q78 -63 213 -63q151 0 235 79.5t84 233.5q0 80 -25 141z" />
    <glyph glyph-name="ugrave" unicode="&#xf9;" horiz-adv-x="1593" 
d="M115 403v707h434v-573q0 -137 56 -195.5t169 -58.5q121 0 195.5 67.5t74.5 198.5v561h435v-1110h-422v143h-4q-69 -86 -189 -137t-278 -51q-104 0 -186.5 23.5t-148 74.5t-101 139.5t-35.5 210.5zM645 1237l-305 287h528l187 -287h-410z" />
    <glyph glyph-name="uacute" unicode="&#xfa;" horiz-adv-x="1593" 
d="M115 403v707h434v-573q0 -137 56 -195.5t169 -58.5q121 0 195.5 67.5t74.5 198.5v561h435v-1110h-422v143h-4q-69 -86 -189 -137t-278 -51q-104 0 -186.5 23.5t-148 74.5t-101 139.5t-35.5 210.5zM539 1237l186 287h528l-305 -287h-409z" />
    <glyph glyph-name="ucircumflex" unicode="&#xfb;" horiz-adv-x="1593" 
d="M115 403v707h434v-573q0 -137 56 -195.5t169 -58.5q121 0 195.5 67.5t74.5 198.5v561h435v-1110h-422v143h-4q-69 -86 -189 -137t-278 -51q-104 0 -186.5 23.5t-148 74.5t-101 139.5t-35.5 210.5zM188 1237l306 287h606l305 -287h-479l-146 158l-145 -158h-447z" />
    <glyph glyph-name="udieresis" unicode="&#xfc;" horiz-adv-x="1593" 
d="M115 403v707h434v-573q0 -137 56 -195.5t169 -58.5q121 0 195.5 67.5t74.5 198.5v561h435v-1110h-422v143h-4q-69 -86 -189 -137t-278 -51q-104 0 -186.5 23.5t-148 74.5t-101 139.5t-35.5 210.5zM266 1219v262h434v-262h-434zM893 1219v262h434v-262h-434z" />
    <glyph glyph-name="yacute" unicode="&#xfd;" horiz-adv-x="1402" 
d="M131 -389v274h105q54 0 91.5 6.5t58 19.5t29.5 24t19 30l49 98l-522 1047h471l281 -659l270 659h459l-590 -1249q-27 -58 -48 -93t-54.5 -71t-73.5 -55t-100 -31t-140 -12q-137 0 -305 12zM444 1237l187 287h528l-305 -287h-410z" />
    <glyph glyph-name="thorn" unicode="&#xfe;" 
d="M115 -401v1900h434v-536h4q37 62 119.5 104t160.5 57t148 15q132 0 245 -37t200 -108t136.5 -186t49.5 -261q0 -134 -50 -246t-135.5 -187.5t-200.5 -117t-245 -41.5q-145 0 -254.5 39.5t-173.5 105.5h-4v-501h-434zM549 553q0 -132 79.5 -207.5t229.5 -75.5
q149 0 228 72.5t79 210.5t-79 210.5t-228 72.5q-150 0 -229.5 -75.5t-79.5 -207.5z" />
    <glyph glyph-name="ydieresis" unicode="&#xff;" horiz-adv-x="1402" 
d="M131 -389v274h105q54 0 91.5 6.5t58 19.5t29.5 24t19 30l49 98l-522 1047h471l281 -659l270 659h459l-590 -1249q-27 -58 -48 -93t-54.5 -71t-73.5 -55t-100 -31t-140 -12q-137 0 -305 12zM172 1219v262h434v-262h-434zM799 1219v262h434v-262h-434z" />
    <glyph glyph-name="dotlessi" unicode="&#x131;" horiz-adv-x="679" 
d="M123 0v1110h434v-1110h-434z" />
    <glyph glyph-name="Lslash" unicode="&#x141;" horiz-adv-x="1556" 
d="M0 336v328l147 90v708h488v-444l350 215v-328l-350 -215v-350h891v-340h-1379v426z" />
    <glyph glyph-name="lslash" unicode="&#x142;" horiz-adv-x="679" 
d="M123 0v530l-123 -75v286l123 76v682h434v-434l123 74v-287l-123 -74v-778h-434z" />
    <glyph glyph-name="OE" unicode="&#x152;" horiz-adv-x="2390" 
d="M1174 528v439q0 87 -87 156t-200 69q-90 0 -155.5 -36t-102 -101t-53.5 -145t-17 -179q0 -77 10 -143t34 -125.5t61 -101.5t94 -66.5t129 -24.5q65 0 121 24t91.5 62t55 83t19.5 89zM1176 0v98q-161 -143 -410 -143q-154 0 -281.5 51.5t-219.5 148.5t-142.5 244.5
t-50.5 331.5q0 185 51 332t144 244t223 148.5t288 51.5q132 0 236 -39.5t162 -103.5v98h1144v-315h-725v-264h699v-303h-699v-265h738v-315h-1157z" />
    <glyph glyph-name="oe" unicode="&#x153;" horiz-adv-x="2390" 
d="M1888 328h422q-34 -100 -97 -174t-146.5 -116.5t-176.5 -62.5t-200 -20q-171 0 -291 39.5t-197 128.5q-181 -168 -469 -168q-334 0 -506 158t-172 442t172 442t506 158q166 0 277 -39t194 -108q147 147 447 147q173 0 302.5 -45.5t210.5 -132t120.5 -204t39.5 -267.5v-53
h-948q5 -50 21.5 -92t48.5 -78.5t86.5 -57t126.5 -20.5q70 0 119 20t70 43.5t40 59.5zM1032 555q0 313 -278 313q-138 0 -207.5 -79.5t-69.5 -233.5q0 -313 277 -313q278 0 278 313zM1376 666h555q-19 107 -87 173t-193 66q-121 0 -188.5 -66.5t-86.5 -172.5z" />
    <glyph glyph-name="Scaron" unicode="&#x160;" horiz-adv-x="1820" 
d="M1712 1034h-553q-11 81 -85 125.5t-232 44.5q-254 0 -254 -143q0 -72 108 -90q32 -5 295 -45.5t346 -55.5q216 -37 326.5 -133.5t110.5 -281.5q0 -80 -23 -147.5t-59.5 -115.5t-92.5 -87t-109.5 -63t-125.5 -41.5t-125 -26t-122.5 -13.5t-104 -5.5t-82.5 -0.5
q-131 0 -236.5 8.5t-206 29t-175 57.5t-133.5 91t-92 132t-40 178h578q7 -60 33.5 -97t98.5 -60.5t195 -23.5q256 0 256 154q0 57 -49.5 83.5t-181.5 47.5l-488 74q-417 62 -417 413q0 45 8 87t30.5 89.5t58 88t95 78t136.5 64t187.5 42.5t243.5 16q204 0 358 -25.5t269 -81
t179 -147t75 -219.5zM608 1589l-305 287h479l146 -158l145 158h447l-306 -287h-606z" />
    <glyph glyph-name="scaron" unicode="&#x161;" horiz-adv-x="1554" 
d="M55 346h504q10 -67 62 -94q59 -35 192 -35q199 0 199 98q0 43 -33.5 61t-116.5 27l-387 48q-195 24 -289 97.5t-94 211.5q0 111 46 188.5t136 122t210 64.5t282 20q663 0 692 -369h-487q-6 68 -78 95q-57 24 -156 24q-198 0 -198 -104q0 -63 139 -78l375 -41
q231 -25 338.5 -104t107.5 -238q0 -385 -711 -385q-72 0 -137.5 4t-140 15t-137 29t-122 48.5t-101 70t-67.5 97t-28 127.5zM475 1237l-305 287h479l146 -158l145 158h446l-305 -287h-606z" />
    <glyph glyph-name="Ydieresis" unicode="&#x178;" 
d="M590 0v461l-649 1001h565l328 -620l327 620h565l-649 -1001v-461h-487zM303 1571v262h434v-262h-434zM930 1571v262h434v-262h-434z" />
    <glyph glyph-name="Zcaron" unicode="&#x17d;" 
d="M37 0v281l921 854h-858v327h1512v-286l-916 -848h901v-328h-1560zM530 1589l-305 287h480l145 -158l145 158h447l-305 -287h-607z" />
    <glyph glyph-name="zcaron" unicode="&#x17e;" horiz-adv-x="1366" 
d="M45 0v262l668 541v4h-633v303h1220v-262l-647 -545h668v-303h-1276zM381 1237l-305 287h479l145 -158l146 158h446l-305 -287h-606z" />
    <glyph glyph-name="florin" unicode="&#x192;" horiz-adv-x="1818" 
d="M475 604l45 213h234l67 338q10 47 25.5 85t49.5 78.5t82 68t125.5 45.5t176.5 18q69 0 274 -14l-49 -267q-8 0 -48.5 3.5t-63.5 3.5q-69 0 -100.5 -29.5t-43.5 -85.5l-49 -244h230l-46 -213h-229l-147 -710q-17 -84 -58 -142.5t-103 -91.5t-135.5 -47t-168.5 -14
q-54 0 -103.5 2.5t-100.5 6.5t-75 5l55 266q99 -6 101 -6q43 0 66 5.5t47 27.5t40 68.5t33 127.5l103 502h-234z" />
    <glyph glyph-name="circumflex" unicode="&#x2c6;" horiz-adv-x="569" 
d="M-324 1237l306 287h606l305 -287h-479l-146 158l-145 -158h-447z" />
    <glyph glyph-name="caron" unicode="&#x2c7;" horiz-adv-x="569" 
d="M-18 1237l-306 287h480l145 -158l145 158h447l-305 -287h-606z" />
    <glyph glyph-name="breve" unicode="&#x2d8;" horiz-adv-x="569" 
d="M-174 1524h237q12 -58 68 -82q61 -25 154 -25q100 0 154.5 25t66.5 82h237q-23 -171 -141 -248q-110 -72 -317 -72t-321 74.5t-138 245.5z" />
    <glyph glyph-name="dotaccent" unicode="&#x2d9;" horiz-adv-x="569" 
d="M68 1219v262h434v-262h-434z" />
    <glyph glyph-name="ring" unicode="&#x2da;" horiz-adv-x="569" 
d="M14 1475q0 112 79 191t192 79t191.5 -78.5t78.5 -191.5t-79 -192t-191 -79q-113 0 -192 79t-79 192zM166 1475q0 -49 35 -84t84 -35t83.5 34.5t34.5 84.5q0 49 -34.5 83.5t-83.5 34.5q-50 0 -84.5 -34.5t-34.5 -83.5z" />
    <glyph glyph-name="ogonek" unicode="&#x2db;" horiz-adv-x="569" 
d="M457 0h184q-106 -65 -155.5 -111t-49.5 -100q0 -36 31 -60t92 -24q51 0 113 23l10 -115q-107 -39 -270 -39q-262 0 -262 168q0 89 82.5 157t224.5 101z" />
    <glyph glyph-name="tilde" unicode="&#x2dc;" horiz-adv-x="569" 
d="M-68 1227h-196q69 297 332 297q55 0 145 -19l285 -59q50 -10 57 -10q61 0 88 71h191q-8 -62 -27.5 -114t-53 -95.5t-86.5 -68.5t-122 -25q-55 0 -109 10t-219 47q-43 10 -67 15q-113 24 -123 24q-75 0 -95 -73z" />
    <glyph glyph-name="hungarumlaut" unicode="&#x2dd;" horiz-adv-x="569" 
d="M-287 1237l187 287h528l-305 -287h-410zM338 1237l186 287h529l-305 -287h-410z" />
    <glyph glyph-name="endash" unicode="&#x2013;" horiz-adv-x="1024" 
d="M0 451v286h1024v-286h-1024z" />
    <glyph glyph-name="emdash" unicode="&#x2014;" horiz-adv-x="2048" 
d="M0 451v286h2048v-286h-2048z" />
    <glyph glyph-name="quoteleft" unicode="&#x2018;" horiz-adv-x="794" 
d="M168 655v260q0 243 114.5 384.5t344.5 162.5v-168q-54 -10 -93.5 -34.5t-61.5 -58.5t-33.5 -68t-14.5 -72h203v-406h-459z" />
    <glyph glyph-name="quoteright" unicode="&#x2019;" horiz-adv-x="794" 
d="M168 1057v405h459v-260q0 -243 -114.5 -384.5t-344.5 -162.5v168q54 10 93.5 34.5t61.5 59t33.5 68.5t14.5 72h-203z" />
    <glyph glyph-name="quotesinglbase" unicode="&#x201a;" horiz-adv-x="794" 
d="M168 0v406h459v-261q0 -243 -114.5 -384t-344.5 -162v168q54 10 93.5 34.5t61.5 58.5t33.5 68t14.5 72h-203z" />
    <glyph glyph-name="quotedblleft" unicode="&#x201c;" horiz-adv-x="1366" 
d="M135 655v260q0 243 114.5 384.5t344.5 162.5v-168q-54 -10 -93.5 -34.5t-61.5 -58.5t-33.5 -68t-14.5 -72h203v-406h-459zM772 655v260q0 243 114.5 384.5t344.5 162.5v-168q-54 -10 -93.5 -34.5t-61.5 -58.5t-33.5 -68t-14.5 -72h203v-406h-459z" />
    <glyph glyph-name="quotedblright" unicode="&#x201d;" horiz-adv-x="1366" 
d="M772 1057v405h459v-260q0 -243 -114.5 -384.5t-344.5 -162.5v168q54 10 93.5 34.5t61.5 59t33.5 68.5t14.5 72h-203zM135 1057v405h459v-260q0 -243 -114.5 -384.5t-344.5 -162.5v168q54 10 93.5 34.5t61.5 59t33.5 68.5t14.5 72h-203z" />
    <glyph glyph-name="quotedblbase" unicode="&#x201e;" horiz-adv-x="1366" 
d="M772 0v406h459v-261q0 -243 -114.5 -384t-344.5 -162v168q54 10 93.5 34.5t61.5 58.5t33.5 68t14.5 72h-203zM135 0v406h459v-261q0 -243 -114.5 -384t-344.5 -162v168q54 10 93.5 34.5t61.5 58.5t33.5 68t14.5 72h-203z" />
    <glyph glyph-name="dagger" unicode="&#x2020;" horiz-adv-x="1818" 
d="M686 -401v1122h-504v315h504v426h447v-426h503v-315h-503v-1122h-447z" />
    <glyph glyph-name="daggerdbl" unicode="&#x2021;" horiz-adv-x="1818" 
d="M182 -6v287h510v499h-510v287h510v395h434v-395h510v-287h-510v-499h510v-287h-510v-395h-434v395h-510z" />
    <glyph glyph-name="bullet" unicode="&#x2022;" horiz-adv-x="1024" 
d="M147 731q0 151 106 258t257 107q152 0 259.5 -107.5t107.5 -259.5q0 -150 -107 -256t-258 -106q-152 0 -258.5 106t-106.5 258z" />
    <glyph glyph-name="ellipsis" unicode="&#x2026;" horiz-adv-x="2048" 
d="M113 0v406h458v-406h-458zM795 0v406h458v-406h-458zM1477 0v406h458v-406h-458z" />
    <glyph glyph-name="perthousand" unicode="&#x2030;" horiz-adv-x="2390" 
d="M250 1085q0 -106 22.5 -159.5t85.5 -53.5q65 0 89 52t24 161q0 108 -24 160.5t-89 52.5q-63 0 -85.5 -53.5t-22.5 -159.5zM225 -33l932 1483h229l-931 -1483h-230zM1130 332q0 -106 23 -159.5t86 -53.5q65 0 89 52t24 161q0 108 -24 160.5t-89 52.5q-63 0 -86 -53.5
t-23 -159.5zM12 1085q0 75 20 139.5t60.5 116t109 80.5t158.5 29q168 0 258.5 -89.5t90.5 -275.5q0 -364 -349 -364q-90 0 -158.5 29t-109 80t-60.5 115.5t-20 139.5zM893 332q0 75 20 139.5t60.5 115.5t109 80t158.5 29q168 0 258 -89t90 -275q0 -365 -348 -365
q-90 0 -158.5 29t-109 80.5t-60.5 116t-20 139.5zM1681 332q0 75 20 139.5t61 115.5t109.5 80t158.5 29q168 0 258 -89t90 -275q0 -365 -348 -365q-90 0 -158.5 29t-109.5 80.5t-61 116t-20 139.5zM1919 332q0 -106 23 -159.5t86 -53.5q65 0 88.5 51.5t23.5 161.5
q0 109 -23.5 161t-88.5 52q-63 0 -86 -53.5t-23 -159.5z" />
    <glyph glyph-name="guilsinglleft" unicode="&#x2039;" horiz-adv-x="794" 
d="M172 414v360l422 311v-303l-250 -188l250 -188v-304z" />
    <glyph glyph-name="guilsinglright" unicode="&#x203a;" horiz-adv-x="794" 
d="M201 102v304l250 188l-250 188v303l422 -311v-360z" />
    <glyph glyph-name="fraction" unicode="&#x2044;" horiz-adv-x="342" 
d="M-410 -33l932 1483h230l-932 -1483h-230z" />
    <glyph glyph-name="Euro" unicode="&#x20ac;" horiz-adv-x="1818" 
d="M1753 1319l-180 -287q-63 48 -150 78q-104 37 -241 37q-161 0 -252 -55q-82 -51 -121 -140h727l-106 -176h-652q-11 -65 6 -139h566l-107 -176h-416q29 -84 113 -135q93 -56 242 -56q173 0 317 68q115 56 193 149v-389q-76 -45 -187 -80q-167 -51 -377 -51
q-344 0 -550 146q-180 124 -240 348h-277l107 176h141q-11 65 -2 139h-246l107 176h166q60 226 250 357q204 141 561 141q210 0 403 -47q114 -31 205 -84z" />
    <glyph glyph-name="trademark" unicode="&#x2122;" horiz-adv-x="2048" 
d="M233 618v631h-208v213h704v-213h-209v-631h-287zM1700 618v529h-4l-183 -529h-180l-182 529h-4v-529h-262v844h356l182 -448l183 448h356v-844h-262z" />
    <glyph glyph-name="minus" unicode="&#x2212;" horiz-adv-x="1228" 
d="M96 375v287h1037v-287h-1037z" />
    <glyph glyph-name="fi" unicode="&#xfb01;" horiz-adv-x="1630" 
d="M0 823v287h227v94q0 66 10.5 112.5t39.5 88t81 66.5t135.5 39t200.5 14q111 0 254 -17v-245h-194q-58 0 -75 -16.5t-17 -67.5v-68h286v-287h-286v-823h-435v823h-227zM1073 0v1110h434v-1110h-434zM1073 1237v262h434v-262h-434z" />
    <glyph glyph-name="fl" unicode="&#xfb02;" horiz-adv-x="1630" 
d="M0 823v287h227v94q0 66 10.5 112.5t39.5 88t81 66.5t135.5 39t200.5 14q111 0 254 -17v-245h-194q-58 0 -75 -16.5t-17 -67.5v-68h286v-287h-286v-823h-435v823h-227zM1073 0v1499h434v-1499h-434z" />
    <glyph glyph-name="oldcurrency" horiz-adv-x="1818" 
d="M909 995q-118 0 -190 -78t-72 -208t72 -208.5t190 -78.5t190 78.5t72 208.5q0 123 -73 204.5t-189 81.5zM330 274l125 125q-95 137 -95 310q0 174 97 309l-127 123l149 149l123 -127q132 94 307 94q176 0 308 -94l122 127l150 -149l-127 -123q96 -133 96 -309
q0 -178 -98 -310l129 -125l-150 -147l-122 129q-130 -96 -308 -96q-177 0 -307 96l-123 -129z" />
    <glyph glyph-name="hyphenminus" horiz-adv-x="985" 
d="M125 436v316h735v-316h-735z" />
    </font>
</defs>
</svg>
