<?xml version="1.0" encoding="utf-8"?>
<!-- Generator: Adobe Illustrator 26.5.0, SVG Export Plug-In . SVG Version: 6.00 Build 0)  -->
<svg version="1.1" id="Layer_1" xmlns="http://www.w3.org/2000/svg" xmlns:xlink="http://www.w3.org/1999/xlink" x="0px" y="0px"
	 viewBox="0 0 233.6 44.9" style="enable-background:new 0 0 233.6 44.9;" xml:space="preserve">
<g>
	<path d="M20.2,1v9.4c0,4-0.1,4.7-1,6c-1.3,2-4.1,3-8.3,3c-4.7,0-8.1-1.2-9.3-3.3C1.1,15,1,13.9,1,11.4h6.8c0.1,2.6,0.8,3.5,2.9,3.5
		c1.3,0,2.1-0.5,2.5-1.3c0.2-0.7,0.4-1.8,0.4-3.6V1H20.2z"/>
	<path d="M44.3,3c1.8,1.5,2.7,3.8,2.7,7c0,6.4-3.9,9.5-12,9.5c-4.4,0-7.2-0.7-9.4-2.5c-1.9-1.5-2.7-3.8-2.7-7.1c0-3,1-5.4,2.7-6.8
		c2.2-1.7,5-2.5,9.4-2.5C39.3,0.5,42.1,1.2,44.3,3z M30.3,9.9c0,3.3,1.6,5,4.6,5c3,0,4.6-1.7,4.6-4.9S37.9,5,34.9,5
		C31.9,5,30.3,6.7,30.3,9.9z"/>
	<path d="M58.2,13.5c0.6,1,1.5,1.4,3.2,1.4c1.6,0,2.4-0.4,2.4-1.1c0-0.5-0.3-0.8-0.8-0.9c-0.6-0.2-0.9-0.2-5-0.6
		c-2-0.2-4.2-0.6-5.6-1.1c-2.2-0.7-3.4-2.3-3.4-4.4c0-4,3.9-6.1,11.4-6.1c3.8,0,6.6,0.6,8.4,1.8c1.5,0.9,2.1,1.9,2.7,4h-8.9
		c-0.4-1.1-1.4-1.6-3.2-1.6c-1.4,0-2.3,0.5-2.3,1.2c0,0.9,0.6,1,6.1,1.6c3.1,0.3,4,0.5,5.6,1.1c2.2,0.8,3.3,2.4,3.3,4.6
		c0,4.2-3.8,6.3-11.8,6.3c-3.8,0-6.7-0.5-8.5-1.5c-1.9-1-2.7-2.2-2.9-4.4H58.2z"/>
	<path d="M74.5,1h20.1v4.5H81.3v2h11v4.5h-11v2.2h14.1v4.5H74.5V1z"/>
	<path d="M110.5,1h9l7.1,17.8h-7.4l-0.7-1.6h-7.2l-0.7,1.6h-7.1L110.5,1z M117.1,12.7l-2.3-6.5l-2.4,6.5H117.1z"/>
	<path d="M128.1,1h11.8c3.6,0,5.4,0.3,7,1.1c2.6,1.4,4,4.1,4,8c0,4.1-1.5,6.8-4.5,8c-1.3,0.5-2.7,0.7-6.3,0.7h-11.9V1z M138.2,14.3
		c2.3,0,3.6-0.3,4.3-0.9c0.7-0.7,1.1-1.9,1.1-3.4c0-2.3-0.9-3.8-2.5-4.2c-0.6-0.2-0.8-0.2-2.9-0.2h-3.2v8.7H138.2z"/>
	<path d="M153.6,1h13.2c3.4,0,4.3,0.1,5.5,0.6c1.5,0.6,2.5,2.3,2.5,4.5c0,1.4-0.4,2.7-1,3.4c-0.6,0.6-1.2,0.9-2.5,1.2
		c2.7,0.8,3,1.3,3.1,5.9c0.1,1.4,0.1,1.6,0.5,2.2h-7.1c-0.1-0.7-0.1-0.9-0.2-2.3c-0.2-3.8-0.4-4-3.3-4h-3.9v6.4h-6.8V1z M164.9,8.7
		c1.1,0,1.6-0.1,1.9-0.3c0.4-0.3,0.7-0.8,0.7-1.5c0-1.3-0.6-1.7-2.5-1.7h-4.6v3.5H164.9z"/>
	<path d="M177.4,1h6.8v17.8h-6.8V1z"/>
	<path d="M193,1h9l7.1,17.8h-7.4l-0.7-1.6h-7.2l-0.7,1.6h-7.1L193,1z M199.5,12.7l-2.3-6.5l-2.4,6.5H199.5z"/>
	<path d="M210.6,1h7.7l7.5,9.7V1h6.8v17.8h-7.5l-7.8-9.6v9.6h-6.8V1z"/>
	<path d="M2.3,26h14c2.9,0,4.3,0.2,5.5,0.6c1.5,0.6,2.5,2.2,2.5,4c0,1.5-0.5,2.4-1.9,3.3c1.3,0.6,1.7,0.9,2.2,1.6
		c0.5,0.8,0.8,1.8,0.8,2.9c0,1.9-0.8,3.6-2.1,4.4c-1.2,0.7-2.7,1-5.8,1H2.3V26z M14,32.7c1.4,0,1.7,0,2.2-0.1
		c0.5-0.1,0.9-0.5,0.9-1.1c0-0.9-0.6-1.1-3-1.1h-5v2.3H14z M14.8,39.5c2.3,0,2.4,0,2.7-0.2c0.3-0.2,0.6-0.6,0.6-1
		c0-0.5-0.2-0.9-0.7-1.1C17,37,16.9,37,14.8,37H9.1v2.5H14.8z"/>
	<path d="M34.7,26v9.1c0,3.4,1.1,4.7,3.9,4.7c2.8,0,3.9-1.3,3.9-4.7V26h6.8v9.4c0,3.6-0.3,4.8-1.5,6.2c-1.6,1.8-4.5,2.7-9.1,2.7
		c-5.1,0-8.2-1-9.6-3.3c-0.9-1.3-1.1-2.5-1.1-5.4V26H34.7z"/>
	<path d="M76.2,37.2c-0.3,2.6-1.1,4-3.1,5.2c-2.2,1.4-4.7,1.9-9.2,1.9c-4.3,0-6.9-0.7-9-2.3c-2.1-1.7-3.2-4.1-3.2-7.2
		c0-3,1.1-5.5,3.1-7c2.2-1.7,5.1-2.4,9.2-2.4c4.8,0,8.1,1,10.2,2.9c1.1,1.1,1.7,2.3,1.9,4.4h-7.8c-0.6-2.1-1.7-2.8-4.3-2.8
		c-3.2,0-4.9,1.6-4.9,4.7c0,3.3,1.8,5.1,4.9,5.1c1.3,0,2.5-0.3,3.1-0.9c0.4-0.4,0.7-0.8,1.1-1.8H76.2z"/>
	<path d="M83.9,30.6h-6.8V26h20.4v4.5h-6.8v13.2h-6.8V30.6z"/>
	<path d="M106.2,26v9.1c0,3.4,1.1,4.7,3.9,4.7c2.8,0,3.9-1.3,3.9-4.7V26h6.8v9.4c0,3.6-0.3,4.8-1.5,6.2c-1.6,1.8-4.5,2.7-9.1,2.7
		c-5.1,0-8.2-1-9.6-3.3c-0.9-1.3-1.1-2.5-1.1-5.4V26H106.2z"/>
	<path d="M128.7,26h9l7.1,17.8h-7.4l-0.7-1.6h-7.2l-0.7,1.6h-7.1L128.7,26z M135.3,37.7l-2.3-6.5l-2.4,6.5H135.3z"/>
	<path d="M146.3,26h7.7l7.5,9.7V26h6.8v17.8h-7.5l-7.8-9.6v9.6h-6.8V26z"/>
	<path d="M192.6,28c1.8,1.5,2.7,3.8,2.7,7c0,6.4-3.9,9.5-12,9.5c-4.4,0-7.2-0.7-9.4-2.5c-1.9-1.5-2.7-3.8-2.7-7.1c0-3,1-5.4,2.7-6.8
		c2.2-1.7,5-2.5,9.4-2.5C187.6,25.5,190.4,26.2,192.6,28z M178.6,34.9c0,3.3,1.6,5,4.6,5c3,0,4.6-1.7,4.6-4.9s-1.6-4.9-4.6-4.9
		C180.2,30,178.6,31.7,178.6,34.9z"/>
	<path d="M198,26h7.7l7.5,9.7V26h6.8v17.8h-7.5l-7.8-9.6v9.6H198V26z"/>
</g>
</svg>
