{
  "accessors": [
    {
      "bufferView": 2,
      "componentType": 5126,
      "count": 4,
      "max": [
        0.4218130111694336,
        0.38989099860191345,
        0.18012499809265137
      ],
      "min": [
        -0.4816739857196808,
        -0.4825589954853058,
        0.18012499809265137
      ],
      "type": "VEC3"
    },
    {
      "bufferView": 2,
      "byteOffset": 48,
      "componentType": 5126,
      "count": 4,
      "max": [
        -1.5258823623298667e-05,
        -1.5258823623298667e-05,
        0.9999999403953552
      ],
      "min": [
        -1.5258823623298667e-05,
        -1.5258823623298667e-05,
        0.9999999403953552
      ],
      "type": "VEC3"
    },
    {
      "bufferView": 1,
      "componentType": 5126,
      "count": 4,
      "max": [
        1.0,
        1.0
      ],
      "min": [
        0.0,
        0.0
      ],
      "type": "VEC2"
    },
    {
      "bufferView": 0,
      "componentType": 5125,
      "count": 6,
      "type": "SCALAR"
    },
    {
      "bufferView": 2,
      "byteOffset": 96,
      "componentType": 5126,
      "count": 696,
      "max": [
        0.5,
        0.5,
        0.5
      ],
      "min": [
        -0.4366750121116638,
        -0.37244999408721924,
        0.2219810038805008
      ],
      "type": "VEC3"
    },
    {
      "bufferView": 2,
      "byteOffset": 8448,
      "componentType": 5126,
      "count": 696,
      "max": [
        0.9999999403953552,
        0.9999999403953552,
        0.9999999403953552
      ],
      "min": [
        -0.9999999403953552,
        -0.9999999403953552,
        -0.9999999403953552
      ],
      "type": "VEC3"
    },
    {
      "bufferView": 1,
      "byteOffset": 32,
      "componentType": 5126,
      "count": 696,
      "max": [
        1.0,
        2.0
      ],
      "min": [
        0.0,
        -1.0
      ],
      "type": "VEC2"
    },
    {
      "bufferView": 0,
      "byteOffset": 24,
      "componentType": 5125,
      "count": 3312,
      "type": "SCALAR"
    },
    {
      "bufferView": 2,
      "byteOffset": 16800,
      "componentType": 5126,
      "count": 50,
      "max": [
        0.5,
        0.5,
        0.5
      ],
      "min": [
        -0.4366750121116638,
        -0.37244999408721924,
        0.33129599690437317
      ],
      "type": "VEC3"
    },
    {
      "bufferView": 2,
      "byteOffset": 17400,
      "componentType": 5126,
      "count": 50,
      "max": [
        0.10182289034128189,
        -1.5258680832630489e-05,
        0.9947991967201233
      ],
      "min": [
        -0.10185597836971283,
        -1.525905099697411e-05,
        -0.9948024749755859
      ],
      "type": "VEC3"
    },
    {
      "bufferView": 1,
      "byteOffset": 5600,
      "componentType": 5126,
      "count": 50,
      "max": [
        1.0,
        1.0
      ],
      "min": [
        0.0,
        0.0
      ],
      "type": "VEC2"
    },
    {
      "bufferView": 0,
      "byteOffset": 13272,
      "componentType": 5125,
      "count": 144,
      "type": "SCALAR"
    },
    {
      "bufferView": 2,
      "byteOffset": 18000,
      "componentType": 5126,
      "count": 16,
      "max": [
        0.4218130111694336,
        0.38989099860191345,
        0.18012499809265137
      ],
      "min": [
        -0.4816739857196808,
        -0.4825589954853058,
        -0.5
      ],
      "type": "VEC3"
    },
    {
      "bufferView": 2,
      "byteOffset": 18192,
      "componentType": 5126,
      "count": 16,
      "max": [
        0.9999999403953552,
        0.9999999403953552,
        -1.5258823623298667e-05
      ],
      "min": [
        -0.9999999403953552,
        -0.9999999403953552,
        -1.5258823623298667e-05
      ],
      "type": "VEC3"
    },
    {
      "bufferView": 1,
      "byteOffset": 6000,
      "componentType": 5126,
      "count": 16,
      "max": [
        1.0,
        1.0
      ],
      "min": [
        0.0,
        0.0
      ],
      "type": "VEC2"
    },
    {
      "bufferView": 0,
      "byteOffset": 13848,
      "componentType": 5125,
      "count": 24,
      "type": "SCALAR"
    },
    {
      "bufferView": 2,
      "byteOffset": 18384,
      "componentType": 5126,
      "count": 384,
      "max": [
        0.43820101022720337,
        0.40594300627708435,
        0.17989599704742432
      ],
      "min": [
        -0.5,
        -0.5,
        -0.4851379990577698
      ],
      "type": "VEC3"
    },
    {
      "bufferView": 2,
      "byteOffset": 22992,
      "componentType": 5126,
      "count": 384,
      "max": [
        0.9999999403953552,
        0.9999999403953552,
        0.9999999403953552
      ],
      "min": [
        -0.9999999403953552,
        -0.9999999403953552,
        -0.9999999403953552
      ],
      "type": "VEC3"
    },
    {
      "bufferView": 1,
      "byteOffset": 6128,
      "componentType": 5126,
      "count": 384,
      "max": [
        2.9000000953674316,
        1.0
      ],
      "min": [
        -1.899999976158142,
        0.0
      ],
      "type": "VEC2"
    },
    {
      "bufferView": 0,
      "byteOffset": 13944,
      "componentType": 5125,
      "count": 576,
      "type": "SCALAR"
    },
    {
      "bufferView": 2,
      "byteOffset": 27600,
      "componentType": 5126,
      "count": 9114,
      "max": [
        0.5,
        0.5,
        0.5
      ],
      "min": [
        -0.5,
        -0.5,
        -0.5
      ],
      "type": "VEC3"
    },
    {
      "bufferView": 2,
      "byteOffset": 136968,
      "componentType": 5126,
      "count": 9114,
      "max": [
        0.9987695217132568,
        0.9993043541908264,
        0.9988619089126587
      ],
      "min": [
        -0.9985324740409851,
        -0.9997736215591431,
        -0.9963504672050476
      ],
      "type": "VEC3"
    },
    {
      "bufferView": 1,
      "byteOffset": 9200,
      "componentType": 5126,
      "count": 9114,
      "max": [
        1.6116700172424316,
        1.558150053024292
      ],
      "min": [
        -0.5924720168113708,
        -0.6162409782409668
      ],
      "type": "VEC2"
    },
    {
      "bufferView": 0,
      "byteOffset": 16248,
      "componentType": 5125,
      "count": 9114,
      "type": "SCALAR"
    }
  ],
  "asset": {
    "extras": {
      "author": "Plus Design (https://sketchfab.com/arnaoutoglouanastasios)",
      "license": "SKETCHFAB Editorial (https://sketchfab.com/licenses)",
      "source": "https://sketchfab.com/3d-models/head-of-apollo-0b507e28df6640d5ab1a2e3a8cb7a17b",
      "title": "Head Of Apollo"
    },
    "generator": "Sketchfab-14.11.0",
    "version": "2.0"
  },
  "bufferViews": [
    {
      "buffer": 0,
      "byteLength": 52704,
      "name": "floatBufferViews",
      "target": 34963
    },
    {
      "buffer": 0,
      "byteLength": 82112,
      "byteOffset": 52704,
      "byteStride": 8,
      "name": "floatBufferViews",
      "target": 34962
    },
    {
      "buffer": 0,
      "byteLength": 246336,
      "byteOffset": 134816,
      "byteStride": 12,
      "name": "floatBufferViews",
      "target": 34962
    }
  ],
  "buffers": [
    {
      "byteLength": 381152,
      "uri": "scene.bin"
    }
  ],
  "images": [
    {
      "uri": "textures/Material0-material_baseColor.png"
    },
    {
      "uri": "textures/Material0-material_metallicRoughness.png"
    },
    {
      "uri": "textures/Material1-material_baseColor.png"
    },
    {
      "uri": "textures/Material2-material_baseColor.png"
    },
    {
      "uri": "textures/Material3-material_baseColor.png"
    },
    {
      "uri": "textures/Material4-material_baseColor.png"
    },
    {
      "uri": "textures/Material5-material_baseColor.png"
    }
  ],
  "materials": [
    {
      "doubleSided": true,
      "emissiveFactor": [
        0.05674073751599999,
        0.055884520481999996,
        0.057024449502
      ],
      "name": "Material0-material",
      "pbrMetallicRoughness": {
        "baseColorTexture": {
          "index": 0
        },
        "metallicFactor": 0.4346417683,
        "metallicRoughnessTexture": {
          "index": 1
        },
        "roughnessFactor": 0.1602515244
      }
    },
    {
      "doubleSided": true,
      "name": "Material1-material",
      "pbrMetallicRoughness": {
        "baseColorTexture": {
          "index": 2
        },
        "metallicFactor": 0.0,
        "roughnessFactor": 0.6
      }
    },
    {
      "doubleSided": true,
      "name": "Material2-material",
      "pbrMetallicRoughness": {
        "baseColorTexture": {
          "index": 3
        },
        "metallicFactor": 0.0,
        "roughnessFactor": 0.6
      }
    },
    {
      "doubleSided": true,
      "name": "Material3-material",
      "pbrMetallicRoughness": {
        "baseColorTexture": {
          "index": 4
        },
        "metallicFactor": 0.0,
        "roughnessFactor": 0.6
      }
    },
    {
      "doubleSided": true,
      "name": "Material4-material",
      "pbrMetallicRoughness": {
        "baseColorTexture": {
          "index": 5
        },
        "metallicFactor": 0.0,
        "roughnessFactor": 0.6
      }
    },
    {
      "doubleSided": true,
      "emissiveFactor": [
        0.05,
        0.05,
        0.05
      ],
      "name": "Material5-material",
      "pbrMetallicRoughness": {
        "baseColorTexture": {
          "index": 6
        },
        "metallicFactor": 0.0,
        "roughnessFactor": 0.6
      }
    }
  ],
  "meshes": [
    {
      "name": "Material1-material",
      "primitives": [
        {
          "attributes": {
            "NORMAL": 1,
            "POSITION": 0,
            "TEXCOORD_0": 2
          },
          "indices": 3,
          "material": 1,
          "mode": 4
        }
      ]
    },
    {
      "name": "Material2-material",
      "primitives": [
        {
          "attributes": {
            "NORMAL": 5,
            "POSITION": 4,
            "TEXCOORD_0": 6
          },
          "indices": 7,
          "material": 2,
          "mode": 4
        }
      ]
    },
    {
      "name": "Material3-material",
      "primitives": [
        {
          "attributes": {
            "NORMAL": 9,
            "POSITION": 8,
            "TEXCOORD_0": 10
          },
          "indices": 11,
          "material": 3,
          "mode": 4
        }
      ]
    },
    {
      "name": "Material4-material",
      "primitives": [
        {
          "attributes": {
            "NORMAL": 13,
            "POSITION": 12,
            "TEXCOORD_0": 14
          },
          "indices": 15,
          "material": 4,
          "mode": 4
        }
      ]
    },
    {
      "name": "Material5-material",
      "primitives": [
        {
          "attributes": {
            "NORMAL": 17,
            "POSITION": 16,
            "TEXCOORD_0": 18
          },
          "indices": 19,
          "material": 5,
          "mode": 4
        }
      ]
    },
    {
      "name": "Material0-material",
      "primitives": [
        {
          "attributes": {
            "NORMAL": 21,
            "POSITION": 20,
            "TEXCOORD_0": 22
          },
          "indices": 23,
          "material": 0,
          "mode": 4
        }
      ]
    }
  ],
  "nodes": [
    {
      "children": [
        1
      ],
      "matrix": [
        1.0,
        0.0,
        0.0,
        0.0,
        0.0,
        2.220446049250313e-16,
        -1.0,
        0.0,
        0.0,
        1.0,
        2.220446049250313e-16,
        0.0,
        0.0,
        0.0,
        0.0,
        1.0
      ],
      "name": "Sketchfab_model"
    },
    {
      "children": [
        2,
        8
      ],
      "name": "Collada visual scene group"
    },
    {
      "children": [
        3,
        4,
        5,
        6,
        7
      ],
      "matrix": [
        0.553415,
        0.0,
        0.0,
        0.0,
        0.0,
        0.5731,
        0.0,
        0.0,
        0.0,
        0.0,
        1.64008,
        0.0,
        0.0,
        0.0,
        0.0,
        1.0
      ],
      "name": "prim1"
    },
    {
      "mesh": 0,
      "name": "Material1-material"
    },
    {
      "mesh": 1,
      "name": "Material2-material"
    },
    {
      "mesh": 2,
      "name": "Material3-material"
    },
    {
      "mesh": 3,
      "name": "Material4-material"
    },
    {
      "mesh": 4,
      "name": "Material5-material"
    },
    {
      "children": [
        9
      ],
      "matrix": [
        0.386114,
        -0.572451,
        1.81501e-05,
        0.0,
        0.300027,
        0.202399,
        1.05111,
        0.0,
        -0.607739,
        -0.409907,
        0.252402,
        0.0,
        -0.0583344,
        0.0596542,
        1.11816,
        1.0
      ],
      "name": "prim0"
    },
    {
      "mesh": 5,
      "name": "Material0-material"
    }
  ],
  "samplers": [
    {
      "magFilter": 9729,
      "minFilter": 9987,
      "wrapS": 10497,
      "wrapT": 10497
    }
  ],
  "scene": 0,
  "scenes": [
    {
      "name": "Sketchfab_Scene",
      "nodes": [
        0
      ]
    }
  ],
  "textures": [
    {
      "sampler": 0,
      "source": 0
    },
    {
      "sampler": 0,
      "source": 1
    },
    {
      "sampler": 0,
      "source": 2
    },
    {
      "sampler": 0,
      "source": 3
    },
    {
      "sampler": 0,
      "source": 4
    },
    {
      "sampler": 0,
      "source": 5
    },
    {
      "sampler": 0,
      "source": 6
    }
  ]
}
